<svg id="support" xmlns="http://www.w3.org/2000/svg" width="35.604" height="35.604" viewBox="0 0 35.604 35.604">
  <path id="Tracé_208" data-name="Tracé 208" d="M6.262,27.534a2.9,2.9,0,0,0-1.4.358A16.419,16.419,0,0,1,21.07,1.716.7.7,0,0,0,21.346.353,17.934,17.934,0,0,0,17.8,0,17.8,17.8,0,0,0,3.831,28.834a2.922,2.922,0,1,0,2.431-1.3Zm1.082,4a1.53,1.53,0,1,1,.448-1.082A1.519,1.519,0,0,1,7.344,31.536Zm0,0" transform="translate(0 0)" fill="#fff"/>
  <path id="Tracé_209" data-name="Tracé 209" d="M215.524,36.591a2.915,2.915,0,1,0-1.028.943,16.419,16.419,0,0,1-16.18,26.182.7.7,0,0,0-.273,1.364,17.947,17.947,0,0,0,3.51.346,17.8,17.8,0,0,0,13.971-28.835Zm-3.512-.537a1.53,1.53,0,1,1,1.082.448A1.52,1.52,0,0,1,212.011,36.053Zm0,0" transform="translate(-183.751 -29.822)" fill="#fff"/>
  <path id="Tracé_210" data-name="Tracé 210" d="M83.772,98.617a.7.7,0,0,0,.7.7h4.348a.7.7,0,0,0,.7-.7V97.269a10.889,10.889,0,0,0,2.61-1.082l.952.952a.7.7,0,0,0,.984,0l3.073-3.075a.7.7,0,0,0,0-.983l-.951-.951a10.889,10.889,0,0,0,1.082-2.61H98.6a.7.7,0,0,0,.7-.7V84.476a.7.7,0,0,0-.7-.7H97.26a10.891,10.891,0,0,0-1.081-2.61l.946-.946a.7.7,0,0,0,0-.984l-3.076-3.073a.7.7,0,0,0-.983,0l-.944.944a10.89,10.89,0,0,0-2.61-1.082V74.7a.7.7,0,0,0-.7-.7H84.467a.7.7,0,0,0-.7.7v1.336a10.881,10.881,0,0,0-2.61,1.081l-.944-.944a.7.7,0,0,0-.983,0l-3.075,3.074a.7.7,0,0,0,0,.984l.946.946a10.888,10.888,0,0,0-1.082,2.61H74.682a.7.7,0,0,0-.7.7l0,4.348a.7.7,0,0,0,.7.7h1.343a10.89,10.89,0,0,0,1.082,2.61l-.951.951a.7.7,0,0,0,0,.983l3.073,3.075a.7.7,0,0,0,.492.2h0a.7.7,0,0,0,.492-.2l.952-.952a10.9,10.9,0,0,0,2.61,1.082Zm-2.337-3.892a.7.7,0,0,0-.869.092l-.847.847-2.09-2.092.846-.846a.7.7,0,0,0,.092-.869,9.518,9.518,0,0,1-1.317-3.179.7.7,0,0,0-.68-.549H75.375l0-2.957H76.57a.7.7,0,0,0,.68-.549,9.519,9.519,0,0,1,1.317-3.179.7.7,0,0,0-.092-.869l-.84-.841,2.092-2.09.84.84a.7.7,0,0,0,.869.092,9.515,9.515,0,0,1,3.179-1.317.7.7,0,0,0,.549-.68V75.391H88.12v1.187a.7.7,0,0,0,.549.68,9.522,9.522,0,0,1,3.179,1.317.7.7,0,0,0,.869-.092l.84-.84,2.092,2.09-.84.84a.7.7,0,0,0-.092.869,9.525,9.525,0,0,1,1.317,3.179.7.7,0,0,0,.68.549h1.195v2.957H96.713a.7.7,0,0,0-.68.549,9.517,9.517,0,0,1-1.317,3.179.7.7,0,0,0,.092.869l.846.846-2.09,2.092-.847-.846a.7.7,0,0,0-.869-.092,9.525,9.525,0,0,1-3.179,1.317.7.7,0,0,0-.549.68v1.2H85.163v-1.2a.7.7,0,0,0-.549-.68A9.519,9.519,0,0,1,81.435,94.724Zm0,0" transform="translate(-68.84 -68.854)" fill="#fff"/>
  <path id="Tracé_211" data-name="Tracé 211" d="M184.863,179.117a5.746,5.746,0,1,0-5.746,5.746A5.752,5.752,0,0,0,184.863,179.117Zm-10.1,0a4.355,4.355,0,1,1,4.355,4.355A4.36,4.36,0,0,1,174.762,179.117Zm0,0" transform="translate(-161.315 -161.315)" fill="#fff"/>
  <path id="Tracé_212" data-name="Tracé 212" d="M338.773,19.2a.7.7,0,1,0-.491-.2A.7.7,0,0,0,338.773,19.2Zm0,0" transform="translate(-314.569 -16.57)" fill="#fcf9f9"/>
  <path id="Tracé_213" data-name="Tracé 213" d="M155.055,474.359a.7.7,0,1,0,.492.2A.7.7,0,0,0,155.055,474.359Zm0,0" transform="translate(-143.625 -441.373)" fill="#fcf9f9"/>
</svg>
