<svg xmlns="http://www.w3.org/2000/svg" width="189.5" height="174.672" viewBox="0 0 189.5 174.672">
  <g id="blog" transform="translate(0 -0.5)">
    <path id="Tracé_343" data-name="Tracé 343" d="M60.817,48.395h-.038a3.7,3.7,0,1,0,0,7.4h.038a3.7,3.7,0,0,0,0-7.4Zm0,0" transform="translate(-35.953 -30.168)" fill="#8e2ed8"/>
    <path id="Tracé_344" data-name="Tracé 344" d="M110.348,48.395h-.038a3.7,3.7,0,0,0,0,7.4h.038a3.7,3.7,0,0,0,0-7.4Zm0,0" transform="translate(-67.151 -30.168)" fill="#8e2ed8"/>
    <path id="Tracé_345" data-name="Tracé 345" d="M159.879,48.395h-.038a3.7,3.7,0,0,0,0,7.4h.038a3.7,3.7,0,0,0,0-7.4Zm0,0" transform="translate(-98.35 -30.168)" fill="#8e2ed8"/>
    <path id="Tracé_346" data-name="Tracé 346" d="M316.487,48.395H245.08a3.7,3.7,0,0,0,0,7.4h71.407a3.7,3.7,0,0,0,0-7.4Zm0,0" transform="translate(-152.04 -30.168)" fill="#8e2ed8"/>
    <path id="Tracé_347" data-name="Tracé 347" d="M256.592,452.438a3.7,3.7,0,1,0,2.617,1.084A3.738,3.738,0,0,0,256.592,452.438Zm0,0" transform="translate(-159.291 -284.668)" fill="#8e2ed8"/>
    <path id="Tracé_348" data-name="Tracé 348" d="M177.742.5H11.758A11.773,11.773,0,0,0,0,12.258V163.414a11.772,11.772,0,0,0,11.758,11.758H81.8a3.7,3.7,0,1,0,0-7.4H11.758A4.361,4.361,0,0,1,7.4,163.414V43.356H182.1V163.414a4.362,4.362,0,0,1-4.356,4.356H112.393a3.7,3.7,0,1,0,0,7.4h65.349A11.772,11.772,0,0,0,189.5,163.414V12.258A11.773,11.773,0,0,0,177.742.5ZM7.4,35.952V12.258A4.362,4.362,0,0,1,11.758,7.9H177.742a4.362,4.362,0,0,1,4.356,4.356V35.953H7.4Zm0,0" fill="#8b3ad7"/>
    <path id="Tracé_349" data-name="Tracé 349" d="M127.858,207.824A13.339,13.339,0,0,0,114.533,194.5H102.072a3.7,3.7,0,0,0-3.7,3.7v38.492a3.7,3.7,0,0,0,3.7,3.7h12.461a13.314,13.314,0,0,0,9.2-22.947A13.279,13.279,0,0,0,127.858,207.824Zm-7.4,19.246a5.93,5.93,0,0,1-5.922,5.922h-8.76V221.148h8.76A5.929,5.929,0,0,1,120.455,227.07Zm-14.682-13.324V201.9h8.76a5.922,5.922,0,1,1,0,11.844Zm0,0" transform="translate(-61.962 -122.197)" fill="#8e2ed8"/>
    <path id="Tracé_350" data-name="Tracé 350" d="M200.35,194.5a3.7,3.7,0,0,0-3.7,3.7v29.932a12.275,12.275,0,0,0,12.262,12.262,3.7,3.7,0,1,0,0-7.4,4.865,4.865,0,0,1-4.859-4.859V198.2A3.7,3.7,0,0,0,200.35,194.5Zm0,0" transform="translate(-123.865 -122.197)" fill="#8e2ed8"/>
    <path id="Tracé_351" data-name="Tracé 351" d="M279.25,259.478a13.4,13.4,0,1,0-13.4,13.4A13.418,13.418,0,0,0,279.25,259.478Zm-19.4,0a6,6,0,1,1,6,6A6.008,6.008,0,0,1,259.848,259.478Zm0,0" transform="translate(-159.011 -154.683)" fill="#8e2ed8"/>
    <path id="Tracé_352" data-name="Tracé 352" d="M354.605,283.244a6.007,6.007,0,0,1-6-6,3.7,3.7,0,1,0-7.4,0,13.4,13.4,0,0,0,26.806,0V259.478a13.418,13.418,0,1,0-7.4,11.978v5.787A6.008,6.008,0,0,1,354.605,283.244Zm0-17.766a6,6,0,1,1,6-6A6.007,6.007,0,0,1,354.605,265.478Zm0,0" transform="translate(-214.918 -154.683)" fill="#8e2ed8"/>
    <path id="Tracé_353" data-name="Tracé 353" d="M102.072,403.9h109.28a3.7,3.7,0,0,0,0-7.4H102.072a3.7,3.7,0,0,0,0,7.4Zm0,0" transform="translate(-61.962 -249.434)" fill="#8e2ed8"/>
    <path id="Tracé_359" data-name="Tracé 359" d="M256.592,452.438a3.7,3.7,0,1,0,2.617,1.084A3.738,3.738,0,0,0,256.592,452.438Zm0,0" transform="translate(-159.291 -284.668)" fill="#8e2ed8"/>
  </g>
</svg>
