<svg id="monitor" xmlns="http://www.w3.org/2000/svg" width="144.191" height="139.385" viewBox="0 0 144.191 139.385">
  <g id="Groupe_2" data-name="Groupe 2" transform="translate(0 0)">
    <g id="Groupe_1" data-name="Groupe 1" transform="translate(0 0)">
      <path id="Tracé_214" data-name="Tracé 214" d="M134.576,8.533H9.615A9.627,9.627,0,0,0,0,18.148v79.3a2.4,2.4,0,0,0,2.4,2.4H141.787a2.4,2.4,0,0,0,2.4-2.4v-79.3A9.626,9.626,0,0,0,134.576,8.533Zm4.809,86.514H4.806v-76.9a4.814,4.814,0,0,1,4.809-4.809h124.96a4.814,4.814,0,0,1,4.809,4.809Z" transform="translate(0 -8.533)" fill="#8843d6"/>
    </g>
  </g>
  <g id="Groupe_4" data-name="Groupe 4" transform="translate(0 86.514)">
    <g id="Groupe_3" data-name="Groupe 3">
      <path id="Tracé_215" data-name="Tracé 215" d="M141.788,315.733H2.4a2.4,2.4,0,0,0-2.4,2.4V330.15a9.626,9.626,0,0,0,9.615,9.615h124.96a9.626,9.626,0,0,0,9.615-9.615V318.136A2.4,2.4,0,0,0,141.788,315.733Zm-2.4,14.417a4.814,4.814,0,0,1-4.809,4.809H9.615a4.814,4.814,0,0,1-4.809-4.809v-9.61H139.385v9.61Z" transform="translate(0 -315.733)" fill="#8843d6"/>
    </g>
  </g>
  <g id="Groupe_6" data-name="Groupe 6" transform="translate(62.483 96.127)">
    <g id="Groupe_5" data-name="Groupe 5">
      <path id="Tracé_216" data-name="Tracé 216" d="M238.689,349.867H224.27a2.4,2.4,0,1,0,0,4.806h14.419a2.4,2.4,0,1,0,0-4.806Z" transform="translate(-221.867 -349.867)" fill="#8843d6"/>
    </g>
  </g>
  <g id="Groupe_8" data-name="Groupe 8" transform="translate(9.613 9.613)">
    <g id="Groupe_7" data-name="Groupe 7">
      <path id="Tracé_217" data-name="Tracé 217" d="M156.7,42.667H36.537a2.4,2.4,0,0,0-2.4,2.4v76.9a2.4,2.4,0,0,0,2.4,2.4H156.7a2.4,2.4,0,0,0,2.4-2.4V45.07A2.4,2.4,0,0,0,156.7,42.667Zm-2.4,76.9H38.94v-72.1H154.293v72.1Z" transform="translate(-34.134 -42.667)" fill="#8843d6"/>
    </g>
  </g>
  <g id="Groupe_10" data-name="Groupe 10" transform="translate(33.645 124.965)">
    <g id="Groupe_9" data-name="Groupe 9">
      <path id="Tracé_218" data-name="Tracé 218" d="M189.159,452.267H126.677a7.21,7.21,0,0,0,0,14.419h62.483a7.21,7.21,0,1,0,0-14.419Zm0,9.613H126.677a2.4,2.4,0,1,1,0-4.806h62.483a2.4,2.4,0,1,1,0,4.806Z" transform="translate(-119.467 -452.267)" fill="#8843d6"/>
    </g>
  </g>
  <g id="Groupe_12" data-name="Groupe 12" transform="translate(43.257 105.74)">
    <g id="Groupe_11" data-name="Groupe 11">
      <path id="Tracé_219" data-name="Tracé 219" d="M208.874,403.226c-7.974,0-12.016-5.659-12.016-16.822a2.4,2.4,0,0,0-2.4-2.4H170.423a2.4,2.4,0,0,0-2.4,2.4c0,11.163-4.042,16.822-12.016,16.822a2.4,2.4,0,0,0,0,4.806h52.87a2.4,2.4,0,0,0,0-4.806Zm-41.164,0c2.958-3.278,4.7-8.159,5.051-14.419h19.358c.348,6.26,2.091,11.141,5.051,14.419Z" transform="translate(-153.601 -384.001)" fill="#8843d6"/>
    </g>
  </g>
  <g id="Groupe_14" data-name="Groupe 14" transform="translate(84.127 50.466)">
    <g id="Groupe_13" data-name="Groupe 13">
      <path id="Tracé_220" data-name="Tracé 220" d="M329.43,208.072l-5.8-5.8,3.227-3.227a2.4,2.4,0,0,0-1.007-4l-24.032-7.21a2.4,2.4,0,0,0-2.992,2.992l7.21,24.032a2.4,2.4,0,0,0,4,1.009l3.4-3.4,5.8,5.8a2.4,2.4,0,0,0,3.4,0l6.8-6.8A2.4,2.4,0,0,0,329.43,208.072Zm-8.5,5.1-5.282-5.285a3.141,3.141,0,0,0-4.436,0l-1.735,1.735-4.77-15.9,15.9,4.77-1.86,1.86a2.724,2.724,0,0,0,0,3.848l5.575,5.575Z" transform="translate(-298.723 -187.731)" fill="#8843d6"/>
    </g>
  </g>
  <g id="Groupe_16" data-name="Groupe 16" transform="translate(31.242 19.226)">
    <g id="Groupe_15" data-name="Groupe 15" transform="translate(0 0)">
      <path id="Tracé_221" data-name="Tracé 221" d="M180.626,76.8H113.337a2.4,2.4,0,0,0-2.4,2.4V91.219a2.4,2.4,0,0,0,2.4,2.4h67.289a2.4,2.4,0,0,0,2.4-2.4V79.2A2.4,2.4,0,0,0,180.626,76.8Zm-2.4,12.016H115.74v-7.21h62.483Z" transform="translate(-110.934 -76.8)" fill="#8843d6"/>
    </g>
  </g>
  <g id="Groupe_18" data-name="Groupe 18" transform="translate(40.854 45.661)">
    <g id="Groupe_17" data-name="Groupe 17">
      <path id="Tracé_222" data-name="Tracé 222" d="M166.7,170.667H147.47a2.4,2.4,0,0,0-2.4,2.4v9.613a2.4,2.4,0,0,0,2.4,2.4H166.7a2.4,2.4,0,0,0,2.4-2.4V173.07A2.4,2.4,0,0,0,166.7,170.667Zm-2.4,9.613H149.873v-4.806h14.419Z" transform="translate(-145.067 -170.667)" fill="#8843d6"/>
    </g>
  </g>
  <g id="Groupe_20" data-name="Groupe 20" transform="translate(31.242 19.226)">
    <g id="Groupe_19" data-name="Groupe 19" transform="translate(0 0)">
      <path id="Tracé_223" data-name="Tracé 223" d="M180.626,76.8H113.337a2.4,2.4,0,0,0-2.4,2.4v45.66a2.4,2.4,0,0,0,2.4,2.4h57.21a2.4,2.4,0,0,0,2.3-3.1l-3.042-10.144,10.129,3.04a2.4,2.4,0,0,0,3.093-2.3V79.2A2.4,2.4,0,0,0,180.626,76.8Zm-2.4,34.736-11.312-3.393a2.4,2.4,0,0,0-2.992,2.995l3.4,11.324H115.74V81.606h62.483Z" transform="translate(-110.934 -76.8)" fill="#8843d6"/>
    </g>
  </g>
</svg>
