<svg id="ecommerce" xmlns="http://www.w3.org/2000/svg" width="189.5" height="174.672" viewBox="0 0 189.5 174.672">
  <g id="supermarket" transform="translate(25 0.304)">
    <path id="Tracé_338" data-name="Tracé 338" d="M117.316,69.211a3.66,3.66,0,0,0-2.837-1.275H31.906a3.766,3.766,0,0,0-2.216.7l-1.3-6.324a1.026,1.026,0,0,0-1.006-.82H19.933v-.875a2.923,2.923,0,0,0-2.92-2.92H2.92A2.923,2.923,0,0,0,0,60.616v4.473a2.923,2.923,0,0,0,2.92,2.92H17.013a2.923,2.923,0,0,0,2.92-2.92V63.545H26.55l1.766,8.608c0,.026.005.053.01.079l9.238,50.358a4.911,4.911,0,0,0,4.711,3.926H104.11a4.913,4.913,0,0,0,4.712-3.926l9.238-50.358A3.66,3.66,0,0,0,117.316,69.211ZM17.879,65.089a.868.868,0,0,1-.867.867H2.92a.868.868,0,0,1-.867-.867V63.106h8.3a1.027,1.027,0,1,0,0-2.054h-8.3v-.437a.868.868,0,0,1,.867-.867H17.013a.868.868,0,0,1,.867.867Zm33.083,59.374-1.509-8.221H59.688l1.506,8.221Zm-1.886-10.274-4.156-22.64H55.165l4.147,22.64ZM33.957,91.548h8.876l4.156,22.64H38.11Zm-1.51-8.231h8.875l1.134,6.178H33.58Zm12.1,6.178-1.134-6.178H53.658l1.132,6.178Zm-1.511-8.231L40.963,69.99H51.217l2.065,11.273ZM30.646,70.526a1.6,1.6,0,0,1,1.26-.537h6.97l2.069,11.273H32.07l-1.725-9.4A1.594,1.594,0,0,1,30.646,70.526Zm8.938,51.693-1.1-5.978h8.879l1.509,8.221h-6.6A2.881,2.881,0,0,1,39.584,122.219Zm67.218,0a2.882,2.882,0,0,1-2.692,2.242H63.281l-1.506-8.221H92.1a1.027,1.027,0,1,0,0-2.054H61.4l-4.147-22.64H64.4a1.027,1.027,0,0,0,0-2.054H56.877l-1.132-6.178H91.058a1.027,1.027,0,0,0,0-2.054H55.369L53.3,69.99H114.48a1.5,1.5,0,0,1,1.56,1.872l-.345,1.878H90.59a1.027,1.027,0,0,0,0,2.054h24.728L111.3,97.725H93.149a1.027,1.027,0,0,0,0,2.054h17.769l-1.133,6.178h-37.1a1.027,1.027,0,1,0,0,2.054h36.719Z" fill="#d782e7"/>
    <path id="Tracé_339" data-name="Tracé 339" d="M204.08,369.758a4.811,4.811,0,1,0,4.811,4.811A4.817,4.817,0,0,0,204.08,369.758Zm0,7.569a2.758,2.758,0,1,1,2.758-2.758A2.761,2.761,0,0,1,204.08,377.327Z" transform="translate(-151.127 -236.67)" fill="#d782e7"/>
    <path id="Tracé_340" data-name="Tracé 340" d="M187.653,348.1A10.044,10.044,0,1,0,197.7,358.142,10.055,10.055,0,0,0,187.653,348.1Zm0,18.035a7.99,7.99,0,1,1,7.99-7.99A8,8,0,0,1,187.653,366.132Z" transform="translate(-134.7 -220.243)" fill="#d782e7"/>
    <path id="Tracé_341" data-name="Tracé 341" d="M355.2,348.1a10.044,10.044,0,1,0,10.044,10.044A10.056,10.056,0,0,0,355.2,348.1Zm0,18.035a7.991,7.991,0,1,1,7.99-7.99A8,8,0,0,1,355.2,366.133Z" transform="translate(-261.768 -220.243)" fill="#d782e7"/>
    <path id="Tracé_342" data-name="Tracé 342" d="M371.628,369.758a4.811,4.811,0,1,0,4.811,4.811A4.817,4.817,0,0,0,371.628,369.758Zm0,7.569a2.758,2.758,0,1,1,2.758-2.757A2.761,2.761,0,0,1,371.628,377.327Z" transform="translate(-278.196 -236.67)" fill="#d782e7"/>
  </g>
  <path id="Tracé_372" data-name="Tracé 372" d="M177.742.5H11.758A11.773,11.773,0,0,0,0,12.258V163.412A11.772,11.772,0,0,0,11.758,175.17H81.8a3.7,3.7,0,1,0,0-7.4H11.758A4.361,4.361,0,0,1,7.4,163.412V43.355H182.1V163.412a4.362,4.362,0,0,1-4.356,4.356H112.393a3.7,3.7,0,1,0,0,7.4h65.349A11.772,11.772,0,0,0,189.5,163.412V12.258A11.773,11.773,0,0,0,177.742.5ZM7.4,35.951V12.258A4.362,4.362,0,0,1,11.758,7.9H177.742a4.362,4.362,0,0,1,4.356,4.356V35.953H7.4Zm0,0" transform="translate(0 -0.5)" fill="#da7fe8"/>
  <path id="Tracé_373" data-name="Tracé 373" d="M60.817,48.395h-.038a3.7,3.7,0,1,0,0,7.4h.038a3.7,3.7,0,0,0,0-7.4Zm0,0" transform="translate(-35.953 -30.668)" fill="#da7fe8"/>
  <path id="Tracé_374" data-name="Tracé 374" d="M110.348,48.395h-.038a3.7,3.7,0,0,0,0,7.4h.038a3.7,3.7,0,0,0,0-7.4Zm0,0" transform="translate(-67.151 -30.668)" fill="#da7fe8"/>
  <path id="Tracé_375" data-name="Tracé 375" d="M159.879,48.395h-.038a3.7,3.7,0,0,0,0,7.4h.038a3.7,3.7,0,0,0,0-7.4Zm0,0" transform="translate(-98.35 -30.668)" fill="#da7fe8"/>
  <path id="Tracé_376" data-name="Tracé 376" d="M316.487,48.395H245.08a3.7,3.7,0,0,0,0,7.4h71.407a3.7,3.7,0,0,0,0-7.4Zm0,0" transform="translate(-152.04 -30.668)" fill="#da7fe8"/>
  <path id="Tracé_451" data-name="Tracé 451" d="M256.592,452.438a3.7,3.7,0,1,0,2.617,1.084A3.738,3.738,0,0,0,256.592,452.438Zm0,0" transform="translate(-158.292 -285.168)" fill="#dd7be9"/>
</svg>
