<svg id="Intranet" xmlns="http://www.w3.org/2000/svg" width="189.5" height="174.672" viewBox="0 0 189.5 174.672">
  <path id="Tracé_354" data-name="Tracé 354" d="M177.742.5H11.758A11.773,11.773,0,0,0,0,12.258V163.412A11.772,11.772,0,0,0,11.758,175.17H81.8a3.7,3.7,0,1,0,0-7.4H11.758A4.361,4.361,0,0,1,7.4,163.412V43.355H182.1V163.412a4.362,4.362,0,0,1-4.356,4.356H112.393a3.7,3.7,0,1,0,0,7.4h65.349A11.772,11.772,0,0,0,189.5,163.412V12.258A11.773,11.773,0,0,0,177.742.5ZM7.4,35.951V12.258A4.362,4.362,0,0,1,11.758,7.9H177.742a4.362,4.362,0,0,1,4.356,4.356V35.953H7.4Zm0,0" transform="translate(0 -0.5)" fill="#7b7ff1"/>
  <path id="intranet-2" data-name="intranet" d="M87.954,72.124V57.939H51.481v-10.7H71.933a11.971,11.971,0,0,0,6.71-21.882A19.572,19.572,0,0,0,52.036,4.423a18.548,18.548,0,0,0-30.57,14.13c0,.116,0,.232,0,.349a15.008,15.008,0,0,0,6.9,28.336H45.782v10.7H9.308V72.124H0V97.262H25.138V72.124H15.007V63.638H45.782v8.485H36.062V97.262H61.2V72.124h-9.72V63.638H82.255v8.485H72.123V97.262H97.262V72.124ZM25.382,23.415l2.23-.755-.321-2.333a13.051,13.051,0,0,1-.125-1.774A12.869,12.869,0,0,1,40.02,5.7a12.732,12.732,0,0,1,9.375,4.066l1.487,1.586L52.8,10.335a13.7,13.7,0,0,1,6.465-1.6A13.879,13.879,0,0,1,72.685,26.131l-.628,2.4,2.287.954a6.27,6.27,0,0,1-2.411,12.057H28.368a9.307,9.307,0,0,1-2.986-18.123ZM19.44,91.563H5.7V77.823H19.44Zm36.061,0H41.761V77.823H55.5Zm36.061,0H77.822V77.823H91.563Zm0,0" transform="translate(46.248 51)" fill="#7983f0"/>
  <path id="Tracé_367" data-name="Tracé 367" d="M60.817,48.395h-.038a3.7,3.7,0,1,0,0,7.4h.038a3.7,3.7,0,0,0,0-7.4Zm0,0" transform="translate(-35.953 -30.668)" fill="#7d7bf2"/>
  <path id="Tracé_368" data-name="Tracé 368" d="M110.348,48.395h-.038a3.7,3.7,0,0,0,0,7.4h.038a3.7,3.7,0,0,0,0-7.4Zm0,0" transform="translate(-67.151 -30.668)" fill="#7d7bf2"/>
  <path id="Tracé_369" data-name="Tracé 369" d="M159.879,48.395h-.038a3.7,3.7,0,0,0,0,7.4h.038a3.7,3.7,0,0,0,0-7.4Zm0,0" transform="translate(-98.35 -30.668)" fill="#7d7bf2"/>
  <path id="Tracé_370" data-name="Tracé 370" d="M316.487,48.395H245.08a3.7,3.7,0,0,0,0,7.4h71.407a3.7,3.7,0,0,0,0-7.4Zm0,0" transform="translate(-152.04 -30.668)" fill="#7d7bf2"/>
  <path id="Tracé_371" data-name="Tracé 371" d="M256.592,452.438a3.7,3.7,0,1,0,2.617,1.084A3.738,3.738,0,0,0,256.592,452.438Zm0,0" transform="translate(-159.292 -285.168)" fill="#7d7bf2"/>
</svg>
