<svg xmlns="http://www.w3.org/2000/svg" xmlns:xlink="http://www.w3.org/1999/xlink" width="950.082" height="984.154" viewBox="0 0 950.082 984.154">
  <defs>
    <linearGradient id="linear-gradient" x1="-1.604" y1="6.792" x2="-1.604" y2="6.3" gradientUnits="objectBoundingBox">
      <stop offset="0.21" stop-color="#fff" stop-opacity="0"/>
      <stop offset="1" stop-color="#fff" stop-opacity="0.2"/>
    </linearGradient>
    <filter id="Tracé_7" x="320.228" y="1.146" width="629.854" height="776.361" filterUnits="userSpaceOnUse">
      <feOffset dy="30" input="SourceAlpha"/>
      <feGaussianBlur stdDeviation="30" result="blur"/>
      <feFlood flood-opacity="0.161"/>
      <feComposite operator="in" in2="blur"/>
      <feComposite in="SourceGraphic"/>
    </filter>
    <filter id="Tracé_13" x="0" y="361.062" width="947.497" height="623.092" filterUnits="userSpaceOnUse">
      <feOffset dy="30" input="SourceAlpha"/>
      <feGaussianBlur stdDeviation="30" result="blur-2"/>
      <feFlood flood-opacity="0.161"/>
      <feComposite operator="in" in2="blur-2"/>
      <feComposite in="SourceGraphic"/>
    </filter>
    <linearGradient id="linear-gradient-2" x1="0.175" y1="1.691" x2="0.175" y2="2.041" gradientUnits="objectBoundingBox">
      <stop offset="0" stop-color="#e9eaf2" stop-opacity="0.8"/>
      <stop offset="1" stop-color="#e9eaf2" stop-opacity="0"/>
    </linearGradient>
    <filter id="_Контур_" x="452.969" y="65.613" width="133.577" height="149.032" filterUnits="userSpaceOnUse">
      <feOffset dy="10" input="SourceAlpha"/>
      <feGaussianBlur stdDeviation="10" result="blur-3"/>
      <feFlood flood-opacity="0.161"/>
      <feComposite operator="in" in2="blur-3"/>
      <feComposite in="SourceGraphic"/>
    </filter>
    <filter id="Tracé_169" x="664.071" y="161.403" width="270.002" height="453.886" filterUnits="userSpaceOnUse">
      <feOffset dy="20" input="SourceAlpha"/>
      <feGaussianBlur stdDeviation="15" result="blur-4"/>
      <feFlood flood-opacity="0.161"/>
      <feComposite operator="in" in2="blur-4"/>
      <feComposite in="SourceGraphic"/>
    </filter>
  </defs>
  <g id="Слой_2" data-name="Слой 2" transform="translate(69.605 -0.003)">
    <g id="Слой_1" data-name="Слой 1" transform="translate(0.04 0.003)">
      <g id="Laptop" transform="translate(10.802 51.031)">
        <path id="Tracé_1" data-name="Tracé 1" d="M643.838,653.416,204.73,399.858c-6.163-3.512-11.15-13.1-11.15-21.3V38.837c0-8.218,4.987-11.993,11.15-8.429L643.838,283.966c6.163,3.512,11.15,13.1,11.15,21.3V644.987C655.059,653.205,650.072,656.981,643.838,653.416Z" transform="translate(135.462 -29.065)" fill="#b1b4c4"/>
        <path id="Tracé_2" data-name="Tracé 2" d="M451.33,394.046l4.864-2.809-2.107-14.416Z" transform="translate(330.306 233.817)" fill="#b1b4c4"/>
        <path id="Tracé_3" data-name="Tracé 3" d="M193.13,32.194l4.794-2.774,6.883,3.933s-7.34,1.106-7.515,1.071S193.13,32.194,193.13,32.194Z" transform="translate(135.122 -28.797)" fill="#b1b4c4"/>
        <path id="Tracé_4" data-name="Tracé 4" d="M641.626,654.786,202.448,401.158c-6.163-3.512-11.168-13.1-11.168-21.317V40.207c0-8.218,5-11.993,11.168-8.429L641.626,285.336c6.163,3.512,11.15,13.1,11.15,21.317V646.287C652.776,654.487,647.789,658.3,641.626,654.786Z" transform="translate(133.724 -28.029)" fill="#e4e7f2"/>
        <path id="Tracé_5" data-name="Tracé 5" d="M641.186,655,202.008,401.441c-6.163-3.512-11.168-13.1-11.168-21.317V40.4c0-8.2,5-11.976,11.168-8.429L641.186,285.532c6.146,3.512,11.15,13.1,11.15,21.317V646.571C652.336,654.788,647.332,658.564,641.186,655Z" transform="translate(133.391 -27.874)" fill="#d6d8e5"/>
        <path id="Tracé_6" data-name="Tracé 6" d="M643.907,631.169,194,371.447l.263-332.8c0-3.407,2.388-4.794,5.268-3.09L638.71,289.111a11.8,11.8,0,0,1,5.268,9.254Z" transform="translate(135.78 -24.711)" fill="#fff"/>
        <g transform="matrix(1, 0, 0, 1, -80.45, -51.03)" filter="url(#Tracé_7)">
          <path id="Tracé_7-2" data-name="Tracé 7" d="M643.767,631.186,194,371.465l.141-332.821c0-3.407,2.388-4.794,5.268-3.09L638.587,289.111a11.817,11.817,0,0,1,5.268,9.254Z" transform="translate(216.23 26.32)" opacity="0.5" fill="url(#linear-gradient)"/>
        </g>
        <path id="Tracé_8" data-name="Tracé 8" d="M449.528,688.348,10.35,434.79c-6.163-3.512-5.391-9.763,1.756-13.872l294.208-169.87c7.024-4.091,17.876-4.548,24.021-.983l439.2,253.558c6.146,3.512,5.373,9.763-1.756,13.872L473.55,687.365C466.438,691.456,455.674,691.913,449.528,688.348Z" transform="translate(-6.192 136.18)" fill="#d6d8e5" opacity="0.4"/>
        <path id="Tracé_9" data-name="Tracé 9" d="M455,685.03,15.79,431.559c-6.163-3.512-5.391-9.763,1.756-13.872L311.754,247.835c7.024-4.109,17.875-4.565,24.039-1L774.971,500.392c6.163,3.512,5.391,9.763-1.756,13.872L479.042,684.046C471.931,688.137,461.167,688.594,455,685.03Z" transform="translate(-2.08 133.739)" fill="#b1b4c4"/>
        <path id="Tracé_10" data-name="Tracé 10" d="M11.65,351.258V342.97l9.306,3.9Z" transform="translate(-2.066 208.228)" fill="#b1b4c4"/>
        <path id="Tracé_11" data-name="Tracé 11" d="M451.683,397.165V389.07l-6.883,2.37,4.565,6.708Z" transform="translate(325.37 243.077)" fill="#b1b4c4"/>
        <path id="Tracé_12" data-name="Tracé 12" d="M455,681.085,15.79,427.563c-6.163-3.512-5.391-9.763,1.756-13.872l294.208-169.87c7.024-4.109,17.875-4.548,24.039-.983L774.971,496.4c6.163,3.512,5.391,9.763-1.756,13.872L479.042,680.084C471.931,684.193,461.167,684.65,455,681.085Z" transform="translate(-2.08 130.712)" fill="#e4e7f2"/>
        <g transform="matrix(1, 0, 0, 1, -80.45, -51.03)" filter="url(#Tracé_13)">
          <path id="Tracé_13-2" data-name="Tracé 13" d="M455,680.492,15.79,426.934c-6.163-3.512-5.391-9.781,1.756-13.872l294.208-169.87c7.024-4.109,17.875-4.548,24.039-1L774.971,495.767c6.163,3.512,5.391,9.763-1.756,13.872L479.042,679.491C471.931,683.6,461.167,684.039,455,680.492Z" transform="translate(78.37 181.27)" fill="#d6d8e5"/>
        </g>
        <path id="Tracé_14" data-name="Tracé 14" d="M187.21,286.3,166.77,274.5c-1.756-.966-1.457-2.652.457-3.758l19.526-11.273a7.217,7.217,0,0,1,6.5-.263l20.457,11.8c1.668.966,1.457,2.652-.474,3.758L193.724,286.04a7.252,7.252,0,0,1-6.515.263Z" transform="translate(114.317 144.42)" fill="#2b303f"/>
        <path id="Tracé_15" data-name="Tracé 15" d="M203.691,295.823l-20.457-11.818c-1.668-.948-1.457-2.634.474-3.758l19.509-11.256a7.252,7.252,0,0,1,6.515-.263l20.439,11.8c1.756.966,1.457,2.651-.457,3.758l-19.526,11.256a7.164,7.164,0,0,1-6.5.281Z" transform="translate(126.791 151.617)" fill="#2b303f"/>
        <path id="Tracé_16" data-name="Tracé 16" d="M220.37,305.46,199.93,293.642c-1.756-.966-1.457-2.651.457-3.758l19.526-11.256a7.164,7.164,0,0,1,6.5-.281l20.457,11.818c1.756.948,1.457,2.634-.474,3.758l-19.509,11.256A7.322,7.322,0,0,1,220.37,305.46Z" transform="translate(139.384 158.89)" fill="#2b303f"/>
        <path id="Tracé_17" data-name="Tracé 17" d="M236.661,314.853l-20.457-11.8c-1.668-.966-1.457-2.651.474-3.758l19.508-11.273a7.252,7.252,0,0,1,6.515-.263l20.457,11.8c1.668.966,1.457,2.651-.474,3.758L243.176,314.59a7.252,7.252,0,0,1-6.515.263Z" transform="translate(151.715 166.002)" fill="#2b303f"/>
        <path id="Tracé_18" data-name="Tracé 18" d="M253.166,324.373l-20.457-11.8c-1.756-.966-1.457-2.651.474-3.758l19.508-11.273a7.252,7.252,0,0,1,6.515-.263l20.439,11.8c1.668.966,1.457,2.651-.474,3.758L259.664,324.11A7.217,7.217,0,0,1,253.166,324.373Z" transform="translate(164.165 173.199)" fill="#2b303f"/>
        <path id="Tracé_19" data-name="Tracé 19" d="M269.627,333.943l-20.439-11.8c-1.668-.966-1.475-2.651.457-3.758l19.508-11.273a7.252,7.252,0,0,1,6.515-.263l20.457,11.8c1.668.966,1.457,2.652-.474,3.758L276.141,333.68A7.252,7.252,0,0,1,269.627,333.943Z" transform="translate(176.642 180.433)" fill="#2b303f"/>
        <path id="Tracé_20" data-name="Tracé 20" d="M286.121,343.413l-20.457-11.8c-1.668-.966-1.457-2.651.474-3.758l19.508-11.273a7.252,7.252,0,0,1,6.515-.263l20.439,11.8c1.668.966,1.457,2.651-.457,3.758l-19.526,11.256a7.164,7.164,0,0,1-6.5.281Z" transform="translate(189.103 187.592)" fill="#2b303f"/>
        <path id="Tracé_21" data-name="Tracé 21" d="M302.594,352.95l-20.439-11.818c-1.668-.966-1.457-2.634.457-3.758l19.526-11.256a7.164,7.164,0,0,1,6.5-.281l20.457,11.818c1.756.966,1.457,2.634-.474,3.758l-19.544,11.238a7.2,7.2,0,0,1-6.479.3Z" transform="translate(201.568 194.789)" fill="#2b303f"/>
        <path id="Tracé_22" data-name="Tracé 22" d="M319.091,362.442l-20.457-11.8c-1.668-.966-1.457-2.651.474-3.758l19.509-11.256a7.2,7.2,0,0,1,6.515-.281l20.439,11.818c1.668.948,1.457,2.634-.457,3.758l-19.508,11.256a7.252,7.252,0,0,1-6.515.263Z" transform="translate(214.027 201.978)" fill="#2b303f"/>
        <path id="Tracé_23" data-name="Tracé 23" d="M335.564,371.928l-20.439-11.8c-1.668-.966-1.458-2.651.456-3.758l19.491-11.238a7.217,7.217,0,0,1,6.5-.263l20.457,11.8c1.668.966,1.457,2.651-.474,3.758L342.1,371.7a7.252,7.252,0,0,1-6.532.228Z" transform="translate(226.492 209.174)" fill="#2b303f"/>
        <path id="Tracé_24" data-name="Tracé 24" d="M352.061,381.483l-20.457-11.8c-1.668-.966-1.457-2.651.474-3.758l19.508-11.273a7.252,7.252,0,0,1,6.515-.263l20.457,11.8c1.668.966,1.457,2.651-.474,3.758L358.576,381.22a7.252,7.252,0,0,1-6.515.263Z" transform="translate(238.95 216.371)" fill="#2b303f"/>
        <path id="Tracé_25" data-name="Tracé 25" d="M368.551,391l-20.457-11.8c-1.668-.966-1.457-2.651.474-3.758l19.526-11.273a7.252,7.252,0,0,1,6.515-.263l20.439,11.8c1.756.966,1.457,2.651-.474,3.758L375.118,390.74a7.217,7.217,0,0,1-6.567.263Z" transform="translate(251.416 223.567)" fill="#2b303f"/>
        <path id="Tracé_26" data-name="Tracé 26" d="M385.042,400.527,364.6,388.71c-1.756-.966-1.475-2.634.457-3.758L384.568,373.7a7.252,7.252,0,0,1,6.515-.281l20.457,11.817c1.668.966,1.457,2.634-.474,3.758l-19.509,11.256A7.2,7.2,0,0,1,385.042,400.527Z" transform="translate(263.862 230.76)" fill="#2b303f"/>
        <path id="Tracé_27" data-name="Tracé 27" d="M415.463,418.092l-34.4-19.86c-1.668-.966-1.457-2.651.474-3.758l19.579-11.256a7.2,7.2,0,0,1,6.514-.281l34.311,19.912c1.668.966,1.457,2.652-.457,3.758L421.96,417.881A7.217,7.217,0,0,1,415.463,418.092Z" transform="translate(276.339 237.954)" fill="#2b303f"/>
        <path id="Tracé_28" data-name="Tracé 28" d="M195.7,309.628,175.24,297.863c-1.756-.966-1.457-2.651.474-3.758l19.508-11.273a7.252,7.252,0,0,1,6.515-.263l20.439,11.782c1.668.966,1.457,2.651-.457,3.758l-19.526,11.273a7.217,7.217,0,0,1-6.5.246Z" transform="translate(120.721 162.079)" fill="#2b303f"/>
        <path id="Tracé_29" data-name="Tracé 29" d="M212.184,319.153l-20.439-11.8c-1.668-.966-1.457-2.652.457-3.758l19.526-11.2a7.217,7.217,0,0,1,6.5-.263l20.474,11.73c1.668.966,1.457,2.651-.474,3.758l-19.508,11.273a7.252,7.252,0,0,1-6.532.263Z" transform="translate(133.224 169.306)" fill="#2b303f"/>
        <path id="Tracé_30" data-name="Tracé 30" d="M228.726,328.713l-20.457-11.8c-1.756-.966-1.457-2.651.474-3.758l19.508-11.273a7.252,7.252,0,0,1,6.515-.263l20.439,11.8c1.668.966,1.457,2.651-.457,3.758L235.223,328.45a7.217,7.217,0,0,1-6.5.263Z" transform="translate(145.689 176.48)" fill="#2b303f"/>
        <path id="Tracé_31" data-name="Tracé 31" d="M245.221,338.28l-20.457-11.818c-1.668-.948-1.457-2.634.474-3.758L244.747,311.4a7.252,7.252,0,0,1,6.514-.281l20.422,11.87c1.668.966,1.457,2.634-.474,3.758L251.7,338A7.2,7.2,0,0,1,245.221,338.28Z" transform="translate(158.185 183.665)" fill="#2b303f"/>
        <path id="Tracé_32" data-name="Tracé 32" d="M261.594,347.75l-20.439-11.888c-1.668-.966-1.457-2.634.457-3.758l19.526-11.256a7.164,7.164,0,0,1,6.5-.281l20.457,11.818c1.756.948,1.457,2.634-.474,3.758l-19.544,11.326a7.252,7.252,0,0,1-6.479.281Z" transform="translate(170.575 190.806)" fill="#2b303f"/>
        <path id="Tracé_33" data-name="Tracé 33" d="M278.121,357.258l-20.457-11.8c-1.668-.966-1.457-2.652.474-3.758l19.509-11.308a7.252,7.252,0,0,1,6.514-.263l20.439,11.8c1.668.966,1.457,2.651-.457,3.758L284.618,356.96A7.217,7.217,0,0,1,278.121,357.258Z" transform="translate(183.056 198.032)" fill="#2b303f"/>
        <path id="Tracé_34" data-name="Tracé 34" d="M294.631,366.772l-20.457-11.8c-1.668-.966-1.457-2.652.474-3.758l19.508-11.256a7.2,7.2,0,0,1,6.515-.281L321.128,351.5c1.668.948,1.457,2.634-.474,3.758l-19.508,11.256A7.252,7.252,0,0,1,294.631,366.772Z" transform="translate(195.536 205.251)" fill="#2b303f"/>
        <path id="Tracé_35" data-name="Tracé 35" d="M311.133,376.313l-20.439-11.8c-1.668-.966-1.457-2.651.474-3.758l19.509-11.273a7.217,7.217,0,0,1,6.5-.263l20.457,11.8c1.668.966,1.457,2.652-.474,3.758l-19.508,11.273A7.252,7.252,0,0,1,311.133,376.313Z" transform="translate(208.025 212.463)" fill="#2b303f"/>
        <path id="Tracé_36" data-name="Tracé 36" d="M327.676,385.843l-20.457-11.8c-1.756-.966-1.457-2.652.474-3.758L327.2,359.012a7.252,7.252,0,0,1,6.515-.263l20.439,11.8c1.668.966,1.475,2.651-.457,3.758L334.191,385.58a7.252,7.252,0,0,1-6.514.263Z" transform="translate(220.49 219.667)" fill="#2b303f"/>
        <path id="Tracé_37" data-name="Tracé 37" d="M344.164,395.384l-20.439-11.818c-1.668-.948-1.457-2.634.457-3.758l19.526-11.256a7.27,7.27,0,0,1,6.5-.281l20.509,11.818c1.668.966,1.457,2.651-.474,3.758L350.731,395.1A7.2,7.2,0,0,1,344.164,395.384Z" transform="translate(232.993 226.877)" fill="#2b303f"/>
        <path id="Tracé_38" data-name="Tracé 38" d="M360.691,404.943l-20.457-11.8c-1.668-.966-1.457-2.651.474-3.758l19.508-11.273a7.252,7.252,0,0,1,6.515-.263l20.439,11.8c1.668.966,1.457,2.651-.457,3.758L367.188,404.68a7.217,7.217,0,0,1-6.5.263Z" transform="translate(245.474 234.105)" fill="#2b303f"/>
        <path id="Tracé_39" data-name="Tracé 39" d="M377.2,414.457,356.758,402.64c-1.668-.966-1.475-2.634.457-3.758l19.508-11.256a7.252,7.252,0,0,1,6.515-.281l20.457,11.818c1.668.966,1.457,2.634-.474,3.758l-19.509,11.256a7.2,7.2,0,0,1-6.515.281Z" transform="translate(257.959 241.29)" fill="#2b303f"/>
        <path id="Tracé_40" data-name="Tracé 40" d="M185.156,303.582l-34.381-19.86c-1.668-.966-1.457-2.634.457-3.758l19.526-11.256a7.164,7.164,0,0,1,6.5-.281l34.469,19.86c1.668.966,1.457,2.651-.474,3.758l-19.579,11.238A7.252,7.252,0,0,1,185.156,303.582Z" transform="translate(102.253 151.391)" fill="#2b303f"/>
        <path id="Tracé_41" data-name="Tracé 41" d="M428.942,408.685l-20.439-11.8a6.673,6.673,0,0,0-6.075,0L381.813,408.79c-1.756.966-1.756,2.529,0,3.512l1.633.948c1.545.878,1.528,2.335,0,3.231l-21.879,12.573c-1.756.983-1.756,2.546,0,3.512l13.011,7.515a6.69,6.69,0,0,0,6.058,0l20.4-11.765,4.214-2.441,3.038-1.756,3.055-1.756,17.559-10.132C430.611,411.213,430.611,409.651,428.942,408.685Z" transform="translate(261.455 248.432)" fill="#2b303f"/>
        <path id="Tracé_42" data-name="Tracé 42" d="M123.36,323.258l-20.439-11.8c-1.756-.966-1.457-2.651.457-3.758L122.9,296.392a7.217,7.217,0,0,1,6.5-.263l20.457,11.8c1.668.966,1.457,2.651-.474,3.758L129.874,322.96A7.252,7.252,0,0,1,123.36,323.258Z" transform="translate(66.05 172.33)" fill="#2b303f"/>
        <path id="Tracé_43" data-name="Tracé 43" d="M139.8,332.733l-20.439-11.8c-1.756-.966-1.457-2.652.457-3.758L139.343,305.9a7.217,7.217,0,0,1,6.5-.263l20.457,11.8c1.668.966,1.457,2.651-.474,3.758l-19.508,11.273a7.252,7.252,0,0,1-6.515.263Z" transform="translate(78.478 179.519)" fill="#2b303f"/>
        <path id="Tracé_44" data-name="Tracé 44" d="M156.242,342.223l-20.439-11.8c-1.756-.966-1.475-2.651.457-3.758l19.508-11.273a7.252,7.252,0,0,1,6.515-.263l20.4,11.8c1.668.966,1.457,2.651-.474,3.758L162.7,341.96a7.252,7.252,0,0,1-6.462.263Z" transform="translate(90.903 186.692)" fill="#2b303f"/>
        <path id="Tracé_45" data-name="Tracé 45" d="M296.246,423.057,275.79,411.24c-1.756-.948-1.457-2.634.474-3.758l19.508-11.256a7.252,7.252,0,0,1,6.514-.281l20.4,11.818c1.756.966,1.457,2.634-.474,3.758l-19.473,11.343A7.165,7.165,0,0,1,296.246,423.057Z" transform="translate(196.731 247.791)" fill="#2b303f"/>
        <path id="Tracé_46" data-name="Tracé 46" d="M312.67,432.543l-20.439-11.8c-1.756-.966-1.457-2.651.457-3.758l19.526-11.273a7.217,7.217,0,0,1,6.5-.263l20.457,11.8c1.756.966,1.457,2.651-.474,3.758L319.184,432.28a7.252,7.252,0,0,1-6.515.263Z" transform="translate(209.157 254.969)" fill="#2b303f"/>
        <path id="Tracé_47" data-name="Tracé 47" d="M329.094,442.033l-20.439-11.8c-1.668-.966-1.457-2.651.457-3.758L328.638,415.2a7.217,7.217,0,0,1,6.5-.263l20.457,11.8c1.756.966,1.457,2.651-.474,3.758l-19.508,11.273a7.252,7.252,0,0,1-6.515.263Z" transform="translate(221.601 262.143)" fill="#2b303f"/>
        <path id="Tracé_48" data-name="Tracé 48" d="M345.534,451.523l-20.439-11.8c-1.668-.966-1.457-2.651.457-3.758L345.1,424.692a7.217,7.217,0,0,1,6.5-.263l20.457,11.8c1.756.966,1.457,2.651-.474,3.758l-19.456,11.273A7.252,7.252,0,0,1,345.534,451.523Z" transform="translate(234.028 269.317)" fill="#2b303f"/>
        <path id="Tracé_49" data-name="Tracé 49" d="M180.1,356.015l-27.884-16.1c-1.668-.966-1.457-2.651.474-3.758L172.2,324.882a7.252,7.252,0,0,1,6.515-.263l27.884,16.1c1.756.966,1.457,2.634-.474,3.758l-19.508,11.256a7.2,7.2,0,0,1-6.515.281Z" transform="translate(103.342 193.866)" fill="#2b303f"/>
        <path id="Tracé_50" data-name="Tracé 50" d="M283,415.415l-27.884-16.1c-1.756-.966-1.457-2.651.457-3.758L275.1,384.282a7.217,7.217,0,0,1,6.5-.263l27.884,16.1c1.668.966,1.457,2.634-.457,3.758L289.5,415.134A7.164,7.164,0,0,1,283,415.415Z" transform="translate(181.105 238.769)" fill="#2b303f"/>
        <path id="Tracé_51" data-name="Tracé 51" d="M308.822,430.318,172.9,351.863c-1.668-.966-1.457-2.652.457-3.758l19.526-11.273a7.217,7.217,0,0,1,6.5-.263l135.945,78.508c1.668.966,1.457,2.652-.474,3.758l-19.509,11.273a7.252,7.252,0,0,1-6.515.211Z" transform="translate(118.974 202.9)" fill="#2b303f"/>
        <path id="Tracé_52" data-name="Tracé 52" d="M184.173,321.463l-20.439-11.8c-1.668-.966-1.457-2.651.474-3.758l19.509-11.273a7.217,7.217,0,0,1,6.5-.263l20.492,11.8c1.756.966,1.457,2.651-.474,3.758L190.723,321.2A7.252,7.252,0,0,1,184.173,321.463Z" transform="translate(112.05 170.999)" fill="#2b303f"/>
        <path id="Tracé_53" data-name="Tracé 53" d="M200.644,330.947,180.205,319.13c-1.668-.966-1.457-2.634.457-3.758l19.526-11.256a7.217,7.217,0,0,1,6.5-.281l20.457,11.818c1.756.966,1.457,2.634-.474,3.758l-19.508,11.256a7.2,7.2,0,0,1-6.515.281Z" transform="translate(124.5 178.161)" fill="#2b303f"/>
        <path id="Tracé_54" data-name="Tracé 54" d="M217.136,340.473l-20.457-11.8c-1.756-.966-1.457-2.652.474-3.758l19.509-11.273a7.252,7.252,0,0,1,6.515-.263l20.439,11.8c1.756.966,1.475,2.651-.457,3.758L223.651,340.21A7.252,7.252,0,0,1,217.136,340.473Z" transform="translate(136.928 185.37)" fill="#2b303f"/>
        <path id="Tracé_55" data-name="Tracé 55" d="M233.606,349.913l-20.457-11.8c-1.756-.966-1.457-2.652.474-3.758l19.456-11.2a7.252,7.252,0,0,1,6.515-.263l20.439,11.8c1.756.966,1.457,2.652-.457,3.758L240.1,349.72a7.217,7.217,0,0,1-6.5.193Z" transform="translate(149.378 192.559)" fill="#2b303f"/>
        <path id="Tracé_56" data-name="Tracé 56" d="M250.06,359.493l-20.439-11.8c-1.756-.966-1.457-2.651.457-3.758L249.6,332.662a7.217,7.217,0,0,1,6.5-.263l20.457,11.8c1.756.966,1.457,2.651-.474,3.758l-19.508,11.273A7.252,7.252,0,0,1,250.06,359.493Z" transform="translate(161.828 199.748)" fill="#2b303f"/>
        <path id="Tracé_57" data-name="Tracé 57" d="M266.532,369.01l-20.439-11.818c-1.756-.966-1.475-2.634.457-3.758l19.579-11.256a7.2,7.2,0,0,1,6.515-.281L293.1,353.716c1.668.966,1.457,2.634-.474,3.758l-19.508,11.256a7.2,7.2,0,0,1-6.585.281Z" transform="translate(174.276 206.93)" fill="#2b303f"/>
        <path id="Tracé_58" data-name="Tracé 58" d="M282.991,378.5l-20.457-11.8c-1.668-.966-1.457-2.652.474-3.758l19.509-11.273a7.252,7.252,0,0,1,6.514-.263l20.439,11.8c1.756.966,1.457,2.652-.457,3.758L289.488,378.24a7.217,7.217,0,0,1-6.5.263Z" transform="translate(186.737 214.118)" fill="#2b303f"/>
        <path id="Tracé_59" data-name="Tracé 59" d="M299.461,388.013,279,376.213c-1.668-.966-1.457-2.652.474-3.758l19.508-11.273a7.252,7.252,0,0,1,6.515-.263l20.439,11.8c1.668.966,1.457,2.651-.474,3.758L305.958,387.75a7.217,7.217,0,0,1-6.5.263Z" transform="translate(199.188 221.307)" fill="#2b303f"/>
        <path id="Tracé_60" data-name="Tracé 60" d="M315.907,397.523l-20.422-11.8c-1.668-.966-1.457-2.651.457-3.758l19.526-11.273a7.217,7.217,0,0,1,6.5-.263l20.457,11.8c1.668.966,1.457,2.652-.474,3.758l-19.508,11.273a7.252,7.252,0,0,1-6.532.263Z" transform="translate(211.645 228.496)" fill="#2b303f"/>
        <path id="Tracé_61" data-name="Tracé 61" d="M332.391,407.04l-20.457-11.818c-1.668-.966-1.457-2.634.474-3.758l19.508-11.256a7.2,7.2,0,0,1,6.514-.281l20.457,11.818c1.668.948,1.457,2.634-.474,3.758l-19.508,11.256A7.252,7.252,0,0,1,332.391,407.04Z" transform="translate(224.081 235.678)" fill="#2b303f"/>
        <path id="Tracé_62" data-name="Tracé 62" d="M348.861,416.533l-20.457-11.8c-1.668-.966-1.457-2.651.474-3.758L348.387,389.7a7.252,7.252,0,0,1,6.514-.263l20.439,11.8c1.756.966,1.457,2.651-.457,3.758L355.358,416.27A7.217,7.217,0,0,1,348.861,416.533Z" transform="translate(236.531 242.866)" fill="#2b303f"/>
        <path id="Tracé_63" data-name="Tracé 63" d="M365.284,426.043l-20.439-11.8c-1.668-.966-1.457-2.651.474-3.758l19.508-11.273a7.217,7.217,0,0,1,6.5-.263l20.457,11.8c1.668.966,1.457,2.652-.474,3.758l-19.456,11.361A7.252,7.252,0,0,1,365.284,426.043Z" transform="translate(248.959 250.056)" fill="#2b303f"/>
        <path id="Tracé_64" data-name="Tracé 64" d="M177.14,317.371l-42.3-24.408c-1.756-.966-1.457-2.652.474-3.758l19.508-11.273a7.252,7.252,0,0,1,6.515-.263l42.283,24.408c1.756.966,1.457,2.651-.457,3.758l-19.526,11.273a7.217,7.217,0,0,1-6.5.263Z" transform="translate(90.181 158.375)" fill="#2b303f"/>
        <path id="Tracé_65" data-name="Tracé 65" d="M160.027,325.927l-20.439-11.765c-1.668-.966-1.475-2.634.457-3.758l19.508-11.256a7.2,7.2,0,0,1,6.515-.281l20.457,11.818c1.668.948,1.457,2.634-.474,3.758L166.541,325.7A7.252,7.252,0,0,1,160.027,325.927Z" transform="translate(93.791 174.402)" fill="#2b303f"/>
        <path id="Tracé_66" data-name="Tracé 66" d="M176.5,335.473l-20.457-11.8c-1.668-.966-1.457-2.651.474-3.758l19.509-11.273a7.252,7.252,0,0,1,6.515-.263l20.439,11.8c1.756.966,1.457,2.652-.457,3.758L183,335.21a7.217,7.217,0,0,1-6.5.263Z" transform="translate(106.237 181.59)" fill="#2b303f"/>
        <path id="Tracé_67" data-name="Tracé 67" d="M192.992,344.917,172.5,333.17c-1.756-.966-1.457-2.634.474-3.758l19.508-11.256a7.252,7.252,0,0,1,6.514-.281l20.457,11.818c1.756.966,1.457,2.634-.474,3.758l-19.508,11.256a7.2,7.2,0,0,1-6.479.211Z" transform="translate(118.649 188.775)" fill="#2b303f"/>
        <path id="Tracé_68" data-name="Tracé 68" d="M209.429,354.483l-20.439-11.8c-1.756-.966-1.457-2.651.474-3.758l19.508-11.273a7.217,7.217,0,0,1,6.5-.263l20.457,11.8c1.668.966,1.457,2.651-.474,3.758L215.943,354.22a7.252,7.252,0,0,1-6.515.263Z" transform="translate(131.115 195.96)" fill="#2b303f"/>
        <path id="Tracé_69" data-name="Tracé 69" d="M225.853,363.993l-20.369-11.8c-1.668-.966-1.457-2.651.474-3.758l19.508-11.273a7.252,7.252,0,0,1,6.515-.263l20.439,11.8c1.668.966,1.475,2.651-.457,3.758l-19.508,11.256A7.2,7.2,0,0,1,225.853,363.993Z" transform="translate(143.611 203.149)" fill="#2b303f"/>
        <path id="Tracé_70" data-name="Tracé 70" d="M242.344,373.493l-20.439-11.8c-1.668-.966-1.457-2.651.457-3.758l19.526-11.273a7.217,7.217,0,0,1,6.5-.263l20.457,11.8c1.668.966,1.457,2.651-.474,3.758l-19.508,11.273A7.252,7.252,0,0,1,242.344,373.493Z" transform="translate(156.023 210.331)" fill="#2b303f"/>
        <path id="Tracé_71" data-name="Tracé 71" d="M258.821,383l-20.457-11.8c-1.668-.966-1.457-2.652.474-3.758l19.509-11.273a7.252,7.252,0,0,1,6.515-.263l20.439,11.8c1.668.966,1.457,2.651-.457,3.758L265.336,382.74A7.252,7.252,0,0,1,258.821,383Z" transform="translate(168.466 217.52)" fill="#2b303f"/>
        <path id="Tracé_72" data-name="Tracé 72" d="M275.284,392.52,254.845,380.7c-1.668-.966-1.457-2.634.457-3.758l19.526-11.256a7.165,7.165,0,0,1,6.5-.281l20.457,11.818c1.668.948,1.457,2.634-.474,3.758L281.8,392.239A7.252,7.252,0,0,1,275.284,392.52Z" transform="translate(180.923 224.702)" fill="#2b303f"/>
        <path id="Tracé_73" data-name="Tracé 73" d="M291.751,402.013l-20.457-11.8c-1.668-.966-1.457-2.651.474-3.758l19.508-11.273a7.252,7.252,0,0,1,6.514-.263l20.439,11.8c1.668.966,1.457,2.651-.457,3.758L298.248,401.75a7.217,7.217,0,0,1-6.5.263Z" transform="translate(193.359 231.89)" fill="#2b303f"/>
        <path id="Tracé_74" data-name="Tracé 74" d="M308.2,411.527,287.765,399.71c-1.668-.948-1.457-2.634.457-3.758L307.748,384.7a7.217,7.217,0,0,1,6.5-.281l20.439,11.818c1.668.966,1.457,2.634-.474,3.758L314.7,411.246a7.2,7.2,0,0,1-6.5.281Z" transform="translate(205.809 239.075)" fill="#2b303f"/>
        <path id="Tracé_75" data-name="Tracé 75" d="M324.681,421.023l-20.457-11.8c-1.668-.966-1.457-2.651.474-3.758l19.508-11.273a7.252,7.252,0,0,1,6.515-.263l20.439,11.8c1.668.966,1.457,2.651-.457,3.758L331.178,420.76a7.217,7.217,0,0,1-6.5.263Z" transform="translate(218.253 246.261)" fill="#2b303f"/>
        <path id="Tracé_76" data-name="Tracé 76" d="M376.908,451.2l-56.19-32.467c-1.668-.966-1.475-2.651.457-3.758L340.683,403.7a7.252,7.252,0,0,1,6.515-.263l56.19,32.467c1.668.948,1.457,2.634-.474,3.758L383.4,450.919A7.252,7.252,0,0,1,376.908,451.2Z" transform="translate(230.715 253.45)" fill="#2b303f"/>
        <path id="Tracé_77" data-name="Tracé 77" d="M146.785,318.314l-27.884-16.1c-1.756-.966-1.457-2.651.457-3.758L138.883,287.2a7.164,7.164,0,0,1,6.5-.281l27.884,16.1c1.668.966,1.457,2.651-.457,3.758l-19.491,11.273A7.217,7.217,0,0,1,146.785,318.314Z" transform="translate(78.13 165.368)" fill="#2b303f"/>
        <path id="Tracé_78" data-name="Tracé 78" d="M593.979,499.615,183.37,262.563c-1.756-.948-1.457-2.634.474-3.758l9.763-5.619a7.217,7.217,0,0,1,6.5-.281L610.713,489.957c1.668.966,1.457,2.634-.474,3.758l-9.745,5.672A7.252,7.252,0,0,1,593.979,499.615Z" transform="translate(126.867 139.661)" fill="#2b303f"/>
        <path id="Tracé_79" data-name="Tracé 79" d="M411.167,458.817a6.2,6.2,0,0,1-2.845,2.95L295.345,527a13.925,13.925,0,0,1-12.52.509L89.671,416.025a4.319,4.319,0,0,1-1.9-1.949c-.7-1.756.281-3.7,2.845-5.18l112.995-65.251a13.924,13.924,0,0,1,12.52-.509L409.288,454.621A3.406,3.406,0,0,1,411.167,458.817Z" transform="translate(55.313 207.413)" fill="#b1b4c4"/>
        <path id="Tracé_80" data-name="Tracé 80" d="M411.072,457.845a6.2,6.2,0,0,1-2.845,2.95L295.25,526.028a13.925,13.925,0,0,1-12.52.509L89.576,415.053a4.319,4.319,0,0,1-1.9-1.949,6.339,6.339,0,0,1,2.845-2.932l112.995-65.233a13.942,13.942,0,0,1,12.52-.527l193.153,111.5A4.232,4.232,0,0,1,411.072,457.845Z" transform="translate(55.408 208.385)" fill="#c3c6d1"/>
        <path id="Tracé_81" data-name="Tracé 81" d="M612.542,490.648,201.932,253.6A7.235,7.235,0,0,1,199,247.819V242.99c0-2.23,1.352-3.248,3.02-2.283L612.629,477.759a7.2,7.2,0,0,1,3.02,5.759v4.829C615.562,490.595,614.21,491.613,612.542,490.648Z" transform="translate(139.56 130.648)" fill="#2b303f"/>
        <path id="Tracé_82" data-name="Tracé 82" d="M257.423,274.387l-40.562-23.372c-5.075-2.932-9.2-10.817-9.2-17.559V189.961c0-6.778,4.126-9.886,9.2-7.024l40.562,23.442c5.092,2.932,9.2,10.817,9.2,17.559v43.495C266.554,274.212,262.445,277.32,257.423,274.387Z" transform="translate(146.106 86.45)" fill="#e9eaf2"/>
        <path id="Tracé_83" data-name="Tracé 83" d="M257.3,222.185l-40.492-23.372c-5.075-2.932-9.2-14.926-9.2-20.79V127.241c0-6.778,4.126-9.886,9.2-7.024L257.3,143.589c5.092,2.932,9.2,10.817,9.2,17.559V211.93C266.5,217.9,262.4,225.118,257.3,222.185Z" transform="translate(146.068 39.037)" fill="#e9eaf2"/>
        <path id="Tracé_84" data-name="Tracé 84" d="M230.943,174.255C222.708,169.5,216,157.872,216,148.355s6.708-13.4,14.943-8.639S245.9,156.1,245.9,165.616,239.2,179.013,230.943,174.255Zm0-30.114c-6.128-3.512-11.115-.65-11.115,6.427a24.583,24.583,0,0,0,11.115,19.315c6.146,3.512,11.133.667,11.133-6.409A24.583,24.583,0,0,0,230.943,144.14Z" transform="translate(152.411 53.043)" fill="#854bd5"/>
        <path id="Tracé_85" data-name="Tracé 85" d="M229.768,163l-6.778-10.781V143.25l3.828,2.212v6.971l5.479,8.692Z" transform="translate(157.695 57.252)" fill="#854bd5"/>
        <path id="Tracé_86" data-name="Tracé 86" d="M257.273,159.154l-40.492-23.372c-5.075-2.95-9.2-16.155-9.2-22.037V67c0-5.865,4.126-8.253,9.2-5.268l40.492,23.389a20.3,20.3,0,0,1,9.2,15.926v46.761C266.474,153.623,262.365,162.086,257.273,159.154Z" transform="translate(146.046 -5.343)" fill="#e9eaf2"/>
        <path id="Tracé_87" data-name="Tracé 87" d="M230.662,90.424c-2.441-1.4-4.407-.263-4.407,2.564a9.728,9.728,0,0,0,4.407,7.638c2.441,1.4,4.425.263,4.425-2.546a9.816,9.816,0,0,0-4.425-7.656Zm11.782,1.756-3.512-2.037a2.879,2.879,0,0,1-1.159-1.633l-.913-3.705a2.985,2.985,0,0,0-1.176-1.633l-10.009-5.777c-.492-.281-1-.158-1.159.3l-.913,2.634a.755.755,0,0,1-1.159.3l-3.512-2.037c-1.615-.948-2.932-.176-2.932,1.756V95.656a6.515,6.515,0,0,0,2.932,5.092L242.5,114.357c1.615.931,2.95.176,2.95-1.756V97.237a6.55,6.55,0,0,0-3-5.11Zm-11.782,11.905A16.313,16.313,0,0,1,223.3,91.337c0-4.706,3.3-6.6,7.357-4.249a16.225,16.225,0,0,1,7.357,12.748c0,4.636-3.284,6.55-7.357,4.2Zm10.746-6.725A2.248,2.248,0,0,1,240.39,95.6c0-.667.457-.931,1.018-.6a2.248,2.248,0,0,1,1.036,1.756c0,.615-.457.878-1.036.544Z" transform="translate(152.411 7.356)" fill="#854bd5"/>
        <path id="Tracé_88" data-name="Tracé 88" d="M242.327,220.349c0,7.919-12.415,18.209-12.415,18.209S217.48,213.975,217.48,206s5.566-11.133,12.432-7.182A27.481,27.481,0,0,1,242.327,220.349Z" transform="translate(153.529 97.976)" fill="#8843d6"/>
        <ellipse id="Ellipse_1" data-name="Ellipse 1" cx="6.637" cy="11.484" rx="6.637" ry="11.484" transform="translate(371.952 303.988) rotate(-30)" fill="#e9eaf2"/>
        <path id="Tracé_89" data-name="Tracé 89" d="M507.887,411.826,262.74,270.28c-4.144-2.371-7.48-8.78-7.48-14.276V91.244c0-5.5,3.336-8.025,7.48-5.637L507.887,227.136c4.126,2.388,7.463,8.78,7.463,14.293V406.172C515.35,411.686,512.014,414.214,507.887,411.826Z" transform="translate(182.089 12.997)" fill="#e9eaf2"/>
        <path id="Tracé_90" data-name="Tracé 90" d="M468.391,265.358,278.381,155.664c-4.6-2.669-8.341-9.8-8.341-15.926V127.324c0-6.146,3.74-8.955,8.341-6.3l190.01,109.694c4.6,2.651,8.323,9.781,8.323,15.926v12.415C476.714,265.2,472.992,268.01,468.391,265.358Z" transform="translate(193.262 39.693)" fill="#fff"/>
        <path id="Tracé_91" data-name="Tracé 91" d="M365.054,237.459l-86.673-50.044c-4.6-2.651-8.341-9.781-8.341-15.926V159.144c0-6.146,3.74-8.955,8.341-6.3l86.673,50.044c4.6,2.651,8.323,9.781,8.323,15.926v12.327C373.377,237.283,369.655,240.11,365.054,237.459Z" transform="translate(193.262 63.747)" fill="#8252d4"/>
        <path id="Tracé_92" data-name="Tracé 92" d="M558.214,349.932S465.8,370.3,391.084,287.316,255.42,214.971,255.42,214.971v51.8l302.794,174.8Z" transform="translate(182.21 111.133)" fill="url(#linear-gradient-2)"/>
        <path id="Tracé_93" data-name="Tracé 93" d="M558.214,349.932S465.8,370.3,391.084,287.316,255.42,214.971,255.42,214.971" transform="translate(182.21 111.133)" fill="none" stroke="#cccedd" stroke-miterlimit="10" stroke-width="1.06"/>
      </g>
      <g id="Men_12" transform="translate(408.116)">
        <path id="_Контур_2" data-name="&lt;Контур&gt;" d="M262.722,64.377a67.676,67.676,0,0,1-9.781,13.345c-1.054,1.229-9.184-1.879-7.48-2.757s7.024-8.288,9.693-13.24a168.9,168.9,0,0,0,5.689-18.069c1.668-6.058,3.108-14.943,4.337-19.122A8.165,8.165,0,0,1,271.4,18.2c2.932-.685,4.829.123,4.285,3.67C274.679,28.047,269.886,52.173,262.722,64.377Z" transform="translate(-222.809 13.582)" fill="#ffcea9"/>
        <path id="Tracé_94" data-name="Tracé 94" d="M266.147,98.25c-2.511,2.054-6.234.176-6.427.369a115.432,115.432,0,0,1-9.289,7.744c-1.58,1.229-4.021,2.88-3.512,5.268.79,4.232,7.586,2.932,10.149,1.633s4.671-3.512,7.024-4.952c1.756-1.089,3.512-1.633,3.7-3.828C267.956,103.167,266.6,98.2,266.147,98.25Z" transform="translate(-221.581 74.266)" fill="#38226d"/>
        <path id="Tracé_95" data-name="Tracé 95" d="M267.748,101.3c-.334,2.09-2.019,2.669-3.74,3.74-2.458,1.528-4.636,3.74-7.2,5.04s-8.27,2.388-9.939-.65c.9,4.091,7.586,2.81,10.114,1.528s4.671-3.512,7.024-4.952c1.756-1.089,3.512-1.633,3.705-3.828a5.407,5.407,0,0,0,.035-.878Z" transform="translate(-221.567 76.572)" fill="#9c73ff"/>
        <path id="Tracé_96" data-name="Tracé 96" d="M251.459,89.864c-2.511,2.054-6.918-.176-7.112,0a93.061,93.061,0,0,1-8.306,7.5c-1.58,1.247-4.021,2.9-3.512,5.268.79,4.249,7.586,2.95,10.167,1.651s4.653-3.512,7.024-4.969c1.756-1.071,3.512-1.633,3.705-3.81C253.566,94.184,251.915,89.812,251.459,89.864Z" transform="translate(-232.459 67.919)" fill="#38226d"/>
        <path id="Tracé_97" data-name="Tracé 97" d="M253.338,92.74c-.334,2.09-2.019,2.669-3.74,3.74-2.458,1.528-4.636,3.74-7.2,5.04s-8.288,2.388-9.939-.65c.9,4.091,7.568,2.81,10.114,1.528s4.653-3.512,7.024-4.969c1.756-1.071,3.512-1.615,3.705-3.81A5.4,5.4,0,0,0,253.338,92.74Z" transform="translate(-232.46 70.101)" fill="#9c73ff"/>
        <g transform="matrix(1, 0, 0, 1, -477.76, 0)" filter="url(#_Контур_)">
          <path id="_Контур_3" data-name="&lt;Контур&gt;" d="M308.428,54.871c2.792,17.454-4.952,23.969-15.031,27.674-7.234,2.669-17.559,6.778-17.559,6.778s.14,3.828.211,12.415c0,7.568-.913,35.119-.913,35.119a8.446,8.446,0,0,1-7.726,0s-4.056-21.159-4.917-30.711C261.316,93.2,259.331,84.722,260,81.93c.579-2.458,14.732-9.412,19.228-13.134l-29.658,9.939a52.381,52.381,0,0,1,.86,9.745c-.263,10.272-.843,32.52-.843,32.52s-4.056,2.932-7.533,0c0,0-7.463-44.021-6.55-49.851.86-5.531,26.989-16.839,31.607-20.738a7.375,7.375,0,0,1,5.795-1.563Z" transform="translate(247.54 36.85)" fill="#854bd5"/>
        </g>
        <g id="_Группа_" data-name="&lt;Группа&gt;" transform="translate(2.048 74.552)">
          <g id="_Группа_2" data-name="&lt;Группа&gt;">
            <path id="_Контур_4" data-name="&lt;Контур&gt;" d="M236.54,61.4l19.93-11.5a1.106,1.106,0,0,1,1.141,0l34.943,20.176L272.063,81.909Z" transform="translate(-231.424 -36.957)" fill="#f4f4f4"/>
            <path id="Tracé_98" data-name="Tracé 98" d="M258.168,65.673l1.528.878c.123,0,.105.193,0,.281l-1.457.843a.562.562,0,0,1-.474,0l-1.528-.878c-.123,0-.105-.193,0-.281l1.457-.843a.562.562,0,0,1,.474,0Z" transform="translate(-216.599 -24.952)" fill="#3a2c6d"/>
            <path id="Tracé_99" data-name="Tracé 99" d="M256.948,65.028l1.51.86c.123,0,.105.211,0,.281l-1.44.843a.544.544,0,0,1-.492,0l-1.51-.878c-.123,0-.105-.193,0-.281l1.44-.825A.492.492,0,0,1,256.948,65.028Z" transform="translate(-217.521 -25.449)" fill="#3a2c6d"/>
            <path id="Tracé_100" data-name="Tracé 100" d="M255.708,64.259l1.51.878c.123,0,.123.193,0,.281l-1.44.825a.544.544,0,0,1-.492,0l-1.51-.878c-.123,0-.105-.193,0-.281l1.44-.843a.544.544,0,0,1,.492.018Z" transform="translate(-218.458 -26.032)" fill="#3a2c6d"/>
            <path id="Tracé_101" data-name="Tracé 101" d="M254.5,63.553l1.51.878c.123,0,.123.193,0,.281l-1.44.843a.6.6,0,0,1-.492,0l-1.51-.878c-.123,0-.105-.193,0-.281l1.44-.843a.6.6,0,0,1,.492,0Z" transform="translate(-219.373 -26.555)" fill="#3a2c6d"/>
            <path id="Tracé_102" data-name="Tracé 102" d="M253.268,62.842l1.528.878c.123,0,.105.211,0,.281l-1.457.843a.509.509,0,0,1-.474,0l-1.528-.878c-.123,0-.105-.193,0-.281l1.457-.825a.509.509,0,0,1,.474-.018Z" transform="translate(-220.303 -27.091)" fill="#3a2c6d"/>
            <path id="Tracé_103" data-name="Tracé 103" d="M252.048,62.145l1.528.878c.123,0,.105.193,0,.281l-1.457.825a.509.509,0,0,1-.474,0l-1.528-.878c-.123,0-.105-.193,0-.263l1.457-.843a.509.509,0,0,1,.474,0Z" transform="translate(-221.225 -27.623)" fill="#3a2c6d"/>
            <path id="Tracé_104" data-name="Tracé 104" d="M250.871,61.433l1.51.878c.123,0,.105.193,0,.281l-1.44.843a.6.6,0,0,1-.492,0l-1.51-.878c-.123,0-.123-.193,0-.281l1.44-.843a.6.6,0,0,1,.492,0Z" transform="translate(-222.12 -28.158)" fill="#3a2c6d"/>
            <path id="Tracé_105" data-name="Tracé 105" d="M249.6,60.722l1.528.878c.123,0,.105.211,0,.281l-1.457.843a.509.509,0,0,1-.474,0l-1.528-.878c-.123,0-.105-.193,0-.281l1.457-.825a.509.509,0,0,1,.474-.018Z" transform="translate(-223.077 -28.693)" fill="#3a2c6d"/>
            <path id="Tracé_106" data-name="Tracé 106" d="M248.378,60.025l1.51.878c.123,0,.105.193,0,.281l-1.44.825a.544.544,0,0,1-.492,0l-1.51-.878c-.123,0-.105-.193,0-.263l1.44-.843a.544.544,0,0,1,.492,0Z" transform="translate(-224 -29.226)" fill="#3a2c6d"/>
            <path id="Tracé_107" data-name="Tracé 107" d="M247.148,59.315l1.528.878c.123,0,.105.193,0,.281l-1.457.843a.562.562,0,0,1-.474,0l-1.528-.878c-.123,0-.105-.193,0-.281l1.457-.843a.509.509,0,0,1,.474,0Z" transform="translate(-224.929 -29.763)" fill="#3a2c6d"/>
            <path id="Tracé_108" data-name="Tracé 108" d="M245.928,58.6l1.51.878c.123,0,.123.193,0,.281L246,60.6a.544.544,0,0,1-.492,0L244,59.725c-.123,0-.105-.193,0-.281l1.44-.825A.544.544,0,0,1,245.928,58.6Z" transform="translate(-225.852 -30.296)" fill="#3a2c6d"/>
            <path id="Tracé_109" data-name="Tracé 109" d="M244.716,57.905l1.51.878c.123,0,.105.193,0,.281l-1.457.825a.509.509,0,0,1-.474,0l-1.528-.878c-.123,0-.105-.193,0-.281l1.457-.825a.544.544,0,0,1,.492,0Z" transform="translate(-226.781 -30.829)" fill="#3a2c6d"/>
            <path id="Tracé_110" data-name="Tracé 110" d="M243.478,57.2l1.528.878c.123,0,.105.193,0,.281l-1.457.825a.509.509,0,0,1-.474,0l-1.528-.878c-.123,0-.105-.211,0-.281L243,57.182a.509.509,0,0,1,.474.018Z" transform="translate(-227.704 -31.369)" fill="#3a2c6d"/>
            <path id="Tracé_111" data-name="Tracé 111" d="M241.671,56.143l2.546,1.475c.123,0,.105.193,0,.281l-1.44.843a.6.6,0,0,1-.492,0l-2.546-1.475c-.123,0-.123-.193,0-.281l1.44-.843a.6.6,0,0,1,.492,0Z" transform="translate(-229.075 -32.157)" fill="#3a2c6d"/>
            <path id="Tracé_112" data-name="Tracé 112" d="M257.538,63.945l1.528.878c.123,0,.105.193,0,.281l-1.457.825a.457.457,0,0,1-.474,0l-1.528-.86c-.123,0-.105-.211,0-.281l1.457-.843a.509.509,0,0,1,.474,0Z" transform="translate(-217.075 -26.263)" fill="#3a2c6d"/>
            <path id="Tracé_113" data-name="Tracé 113" d="M256.321,63.235l1.51.878c.123,0,.105.193,0,.281l-1.44.843a.6.6,0,0,1-.492,0l-1.51-.878c-.123,0-.123-.193,0-.281l1.44-.843a.544.544,0,0,1,.492,0Z" transform="translate(-218 -26.799)" fill="#3a2c6d"/>
            <path id="Tracé_114" data-name="Tracé 114" d="M255.088,62.523l1.51.878c.14,0,.123.193,0,.281l-1.44.843a.6.6,0,0,1-.492,0l-1.51-.878c-.123,0-.105-.193,0-.281l1.44-.843a.6.6,0,0,1,.492,0Z" transform="translate(-218.927 -27.334)" fill="#3a2c6d"/>
            <path id="Tracé_115" data-name="Tracé 115" d="M253.868,61.812l1.528.878c.123,0,.105.211,0,.281l-1.457.843a.509.509,0,0,1-.474,0l-1.528-.878c-.123,0-.105-.193,0-.281l1.457-.825a.509.509,0,0,1,.474-.018Z" transform="translate(-219.849 -27.869)" fill="#3a2c6d"/>
            <path id="Tracé_116" data-name="Tracé 116" d="M252.651,61.113l1.51.878c.123,0,.105.193,0,.281l-1.44.843a.6.6,0,0,1-.492,0l-1.51-.878c-.123,0-.123-.193,0-.281l1.44-.843a.6.6,0,0,1,.492,0Z" transform="translate(-220.774 -28.4)" fill="#3a2c6d"/>
            <path id="Tracé_117" data-name="Tracé 117" d="M251.418,60.4l1.528.878c.123,0,.105.211,0,.281l-1.457.843a.509.509,0,0,1-.474,0l-1.528-.878c-.123,0-.105-.193,0-.281l1.457-.825a.509.509,0,0,1,.474-.018Z" transform="translate(-221.701 -28.935)" fill="#3a2c6d"/>
            <path id="Tracé_118" data-name="Tracé 118" d="M250.188,59.705l1.528.878c.123,0,.105.193,0,.263l-1.457.843a.509.509,0,0,1-.474,0l-1.528-.878c-.123,0-.105-.193,0-.281l1.457-.825a.509.509,0,0,1,.474,0Z" transform="translate(-222.631 -29.468)" fill="#3a2c6d"/>
            <path id="Tracé_119" data-name="Tracé 119" d="M248.968,59.025l1.51.878c.123,0,.105.193,0,.281l-1.44.825a.544.544,0,0,1-.492,0l-1.51-.878c-.123,0-.105-.193,0-.263l1.44-.843a.544.544,0,0,1,.492,0Z" transform="translate(-223.553 -29.982)" fill="#3a2c6d"/>
            <path id="Tracé_120" data-name="Tracé 120" d="M247.738,58.289l1.528.878c.123,0,.105.193,0,.281l-1.457.825a.509.509,0,0,1-.474,0l-1.528-.878c-.123,0-.105-.211,0-.281l1.457-.843a.509.509,0,0,1,.474.018Z" transform="translate(-224.483 -30.545)" fill="#3a2c6d"/>
            <path id="Tracé_121" data-name="Tracé 121" d="M246.526,57.573l1.51.878c.123,0,.105.193,0,.281l-1.457.843a.562.562,0,0,1-.474,0l-1.528-.878c-.123,0-.105-.193,0-.281l1.457-.843A.6.6,0,0,1,246.526,57.573Z" transform="translate(-225.413 -31.076)" fill="#3a2c6d"/>
            <path id="Tracé_122" data-name="Tracé 122" d="M245.288,56.863l1.51.878c.123,0,.123.193,0,.281l-1.44.843a.544.544,0,0,1-.492,0l-1.51-.878c-.123,0-.105-.193,0-.281l1.44-.843A.6.6,0,0,1,245.288,56.863Z" transform="translate(-226.335 -31.612)" fill="#3a2c6d"/>
            <path id="Tracé_123" data-name="Tracé 123" d="M244.058,56.169l1.528.86c.123,0,.105.211,0,.281l-1.457.843a.509.509,0,0,1-.474,0l-1.528-.878c-.123,0-.105-.193,0-.281l1.457-.825A.457.457,0,0,1,244.058,56.169Z" transform="translate(-227.265 -32.147)" fill="#3a2c6d"/>
            <path id="Tracé_124" data-name="Tracé 124" d="M258.768,64.655l2.546,1.475c.123,0,.123.193,0,.281l-1.44.825a.545.545,0,0,1-.492,0l-2.546-1.475c-.123,0-.105-.193,0-.281l1.44-.825a.544.544,0,0,1,.492,0Z" transform="translate(-216.145 -25.726)" fill="#3a2c6d"/>
            <path id="Tracé_125" data-name="Tracé 125" d="M240.881,57.078l1.51.878a.527.527,0,0,0,.457,0l1.528-.9a.14.14,0,0,0,0-.263h-.123c-.105,0-.105-.158,0-.228l1.615-.931c.14,0,.14-.193,0-.263l-.966-.562a.527.527,0,0,0-.457,0l-1.51.878-.316.176-.228.14-.228.123-1.3.755a.14.14,0,0,0,.018.193Z" transform="translate(-228.179 -33.162)" fill="#3a2c6d"/>
            <path id="Tracé_126" data-name="Tracé 126" d="M262.868,62.935l1.528.878c.123,0,.105.193,0,.281l-1.457.825a.457.457,0,0,1-.474,0l-1.528-.86a.158.158,0,0,1,0-.281l1.457-.843A.509.509,0,0,1,262.868,62.935Z" transform="translate(-213.046 -27.026)" fill="#3a2c6d"/>
            <path id="Tracé_127" data-name="Tracé 127" d="M261.688,62.222l1.528.878c.123,0,.105.211,0,.281l-1.457.843a.509.509,0,0,1-.474,0l-1.528-.878c-.123,0-.105-.193,0-.281l1.457-.825a.509.509,0,0,1,.474-.018Z" transform="translate(-213.938 -27.559)" fill="#3a2c6d"/>
            <path id="Tracé_128" data-name="Tracé 128" d="M260.468,61.529l1.528.878c.123,0,.105.193,0,.281l-1.457.825a.509.509,0,0,1-.474,0l-1.528-.878c-.123,0-.105-.211,0-.281l1.457-.843a.509.509,0,0,1,.474.018Z" transform="translate(-214.86 -28.096)" fill="#3a2c6d"/>
            <path id="Tracé_129" data-name="Tracé 129" d="M250.084,55.525l1.51.878c.123,0,.105.193,0,.281l-1.44.825a.544.544,0,0,1-.492,0l-1.51-.878c-.14,0-.123-.193,0-.281l1.44-.825a.545.545,0,0,1,.492,0Z" transform="translate(-222.72 -32.628)" fill="#3a2c6d"/>
            <path id="Tracé_130" data-name="Tracé 130" d="M248.868,54.813l1.528.878c.123,0,.105.193,0,.281l-1.457.843a.562.562,0,0,1-.474,0l-1.528-.878c-.123,0-.105-.193,0-.281l1.457-.843a.562.562,0,0,1,.474,0Z" transform="translate(-223.629 -33.162)" fill="#3a2c6d"/>
            <path id="Tracé_131" data-name="Tracé 131" d="M247.628,54.115l1.528.878c.123,0,.105.193,0,.281L247.7,56.1a.509.509,0,0,1-.474,0l-1.528-.878c-.123,0-.105-.193,0-.263l1.457-.843a.509.509,0,0,1,.474,0Z" transform="translate(-224.566 -33.694)" fill="#3a2c6d"/>
            <path id="Tracé_132" data-name="Tracé 132" d="M246.408,53.4l1.528.878c.123,0,.105.193,0,.281l-1.457.843a.562.562,0,0,1-.474,0l-1.528-.878c-.123,0-.105-.193,0-.281l1.457-.843a.562.562,0,0,1,.474,0Z" transform="translate(-225.489 -34.228)" fill="#3a2c6d"/>
            <path id="Tracé_133" data-name="Tracé 133" d="M258.919,60.624l2.072,1.194c.123,0,.105.211,0,.281l-1.457.843a.509.509,0,0,1-.474,0l-2.019-1.176c-.123,0-.123-.193,0-.281l1.44-.843a.6.6,0,0,1,.439-.018Z" transform="translate(-215.997 -28.754)" fill="#3a2c6d"/>
            <path id="Tracé_134" data-name="Tracé 134" d="M251.3,56.223l2.072,1.194c.123,0,.105.193,0,.281l-1.457.843a.562.562,0,0,1-.474,0l-2.072-1.194c-.123,0-.123-.193,0-.281l1.44-.843A.6.6,0,0,1,251.3,56.223Z" transform="translate(-221.795 -32.096)" fill="#3a2c6d"/>
            <path id="Tracé_135" data-name="Tracé 135" d="M252.868,57.115l10.1,5.83c.123,0,.105.193,0,.281l-1.44.825a.544.544,0,0,1-.492,0l-10.1-5.83c-.123,0-.105-.193,0-.263l1.457-.843a.509.509,0,0,1,.474,0Z" transform="translate(-220.605 -31.426)" fill="#3a2c6d"/>
            <path id="Tracé_136" data-name="Tracé 136" d="M258.4,63.023l1.51.878c.123,0,.105.193,0,.281l-1.44.843a.6.6,0,0,1-.492,0l-1.51-.878c-.123,0-.123-.193,0-.281l1.44-.843a.6.6,0,0,1,.492,0Z" transform="translate(-216.428 -26.956)" fill="#3a2c6d"/>
            <path id="Tracé_137" data-name="Tracé 137" d="M257.168,62.352l1.528.878c.123,0,.105.211,0,.281l-1.457.843a.509.509,0,0,1-.474,0l-1.528-.878c-.123,0-.105-.193,0-.281l1.457-.825a.509.509,0,0,1,.474-.018Z" transform="translate(-217.355 -27.461)" fill="#3a2c6d"/>
            <path id="Tracé_138" data-name="Tracé 138" d="M255.948,61.659l1.528.878c.123,0,.105.193,0,.281l-1.457.825a.544.544,0,0,1-.492,0l-1.51-.878a.158.158,0,0,1,0-.281l1.457-.843a.509.509,0,0,1,.474.018Z" transform="translate(-218.277 -27.998)" fill="#3a2c6d"/>
            <path id="Tracé_139" data-name="Tracé 139" d="M254.728,60.943l1.51.878c.123,0,.105.193,0,.281l-1.44.843a.6.6,0,0,1-.492,0l-1.51-.878c-.123,0-.105-.193,0-.281l1.44-.843a.6.6,0,0,1,.492,0Z" transform="translate(-219.199 -28.528)" fill="#3a2c6d"/>
            <path id="Tracé_140" data-name="Tracé 140" d="M253.5,60.245l1.528.878c.123,0,.105.193,0,.281l-1.457.825a.509.509,0,0,1-.474,0l-1.528-.878c-.123,0-.105-.193,0-.281l1.457-.825A.509.509,0,0,1,253.5,60.245Z" transform="translate(-220.129 -29.06)" fill="#3a2c6d"/>
            <path id="Tracé_141" data-name="Tracé 141" d="M252.278,59.533l1.528.878c.123,0,.105.193,0,.281l-1.457.843a.562.562,0,0,1-.474,0l-1.528-.878c-.123,0-.105-.193,0-.281l1.457-.843a.562.562,0,0,1,.474,0Z" transform="translate(-221.051 -29.594)" fill="#3a2c6d"/>
            <path id="Tracé_142" data-name="Tracé 142" d="M251.058,58.822l1.51.878c.123,0,.123.211,0,.281l-1.44.843a.544.544,0,0,1-.492,0l-1.51-.878c-.123,0-.105-.193,0-.281l1.44-.825A.544.544,0,0,1,251.058,58.822Z" transform="translate(-221.974 -30.13)" fill="#3a2c6d"/>
            <path id="Tracé_143" data-name="Tracé 143" d="M249.871,58.125l1.51.878c.123,0,.105.193,0,.281l-1.44.825a.492.492,0,0,1-.492,0l-1.51-.86c-.123,0-.123-.211,0-.281l1.44-.843a.544.544,0,0,1,.492,0Z" transform="translate(-222.876 -30.662)" fill="#3a2c6d"/>
            <path id="Tracé_144" data-name="Tracé 144" d="M248.608,57.413l1.528.878c.123,0,.105.193,0,.281l-1.457.843a.562.562,0,0,1-.474,0l-1.528-.878c-.123,0-.105-.193,0-.281l1.457-.843a.562.562,0,0,1,.474,0Z" transform="translate(-223.826 -31.196)" fill="#3a2c6d"/>
            <path id="Tracé_145" data-name="Tracé 145" d="M247.4,56.717l1.51.878c.14,0,.123.193,0,.263l-1.457.843a.544.544,0,0,1-.492,0l-1.51-.878c-.123,0-.105-.193,0-.281l1.44-.825a.544.544,0,0,1,.509,0Z" transform="translate(-224.755 -31.73)" fill="#3a2c6d"/>
            <path id="Tracé_146" data-name="Tracé 146" d="M246.168,56.029l1.51.878c.123,0,.105.193,0,.281l-1.44.843a.6.6,0,0,1-.492,0l-1.51-.878c-.123,0-.105-.193,0-.281l1.4-.843a.544.544,0,0,1,.527,0Z" transform="translate(-225.67 -32.254)" fill="#3a2c6d"/>
            <path id="Tracé_147" data-name="Tracé 147" d="M244.938,55.292l1.528.878c.123,0,.105.211,0,.281l-1.457.843a.509.509,0,0,1-.474,0l-1.528-.878c-.123,0-.105-.193,0-.281l1.457-.825a.509.509,0,0,1,.474-.018Z" transform="translate(-226.6 -32.798)" fill="#3a2c6d"/>
            <path id="Tracé_148" data-name="Tracé 148" d="M259.618,63.772l3.143,1.756c.123,0,.105.193,0,.281l-1.457.843a.562.562,0,0,1-.474,0L257.687,64.9c-.123,0-.105-.193,0-.281l1.44-.825A.544.544,0,0,1,259.618,63.772Z" transform="translate(-215.503 -26.388)" fill="#3a2c6d"/>
            <path id="Tracé_149" data-name="Tracé 149" d="M260.188,62.735l1.51.878c.14,0,.123.193,0,.263l-1.44.843a.544.544,0,0,1-.492,0l-1.51-.878c-.123,0-.105-.193,0-.281l1.44-.825a.544.544,0,0,1,.492,0Z" transform="translate(-215.072 -27.177)" fill="#3a2c6d"/>
            <path id="Tracé_150" data-name="Tracé 150" d="M258.968,62.025l1.51.878c.123,0,.105.193,0,.281l-1.44.843a.6.6,0,0,1-.492,0l-1.51-.878c-.123,0-.105-.193,0-.281l1.44-.843a.544.544,0,0,1,.492,0Z" transform="translate(-215.994 -27.714)" fill="#3a2c6d"/>
            <path id="Tracé_151" data-name="Tracé 151" d="M257.738,61.312l1.528.878c.123,0,.105.211,0,.281l-1.457.843a.509.509,0,0,1-.474,0l-1.528-.878c-.123,0-.105-.193,0-.281l1.457-.825a.509.509,0,0,1,.474-.018Z" transform="translate(-216.924 -28.247)" fill="#3a2c6d"/>
            <path id="Tracé_152" data-name="Tracé 152" d="M256.518,60.615l1.528.878c.123,0,.105.193,0,.281l-1.457.825a.457.457,0,0,1-.474,0l-1.528-.86a.158.158,0,0,1,0-.281l1.457-.843a.509.509,0,0,1,.474,0Z" transform="translate(-217.846 -28.78)" fill="#3a2c6d"/>
            <path id="Tracé_153" data-name="Tracé 153" d="M255.3,59.9l1.51.878c.123,0,.123.193,0,.281l-1.44.843a.6.6,0,0,1-.492,0l-1.51-.878c-.123,0-.105-.193,0-.281l1.44-.843a.6.6,0,0,1,.492,0Z" transform="translate(-218.768 -29.314)" fill="#3a2c6d"/>
            <path id="Tracé_154" data-name="Tracé 154" d="M254.081,59.205l1.51.878c.123,0,.105.193,0,.263l-1.44.843a.544.544,0,0,1-.492,0l-1.51-.878c-.123,0-.123-.193,0-.281l1.44-.825a.544.544,0,0,1,.492,0Z" transform="translate(-219.693 -29.846)" fill="#3a2c6d"/>
            <path id="Tracé_155" data-name="Tracé 155" d="M252.868,58.493l1.528.878c.123,0,.105.193,0,.281l-1.457.843a.562.562,0,0,1-.474,0l-1.528-.878c-.123,0-.105-.193,0-.281l1.457-.843a.562.562,0,0,1,.474,0Z" transform="translate(-220.605 -30.38)" fill="#3a2c6d"/>
            <path id="Tracé_156" data-name="Tracé 156" d="M251.628,57.782l1.528.878c.123,0,.105.211,0,.281l-1.457.843a.509.509,0,0,1-.474,0l-1.528-.878c-.123,0-.105-.193,0-.281l1.457-.825a.509.509,0,0,1,.474-.018Z" transform="translate(-221.543 -30.916)" fill="#3a2c6d"/>
            <path id="Tracé_157" data-name="Tracé 157" d="M250.408,57.089l1.51.878c.123,0,.105.193,0,.281l-1.44.825a.544.544,0,0,1-.492,0l-1.51-.878c-.123,0-.105-.211,0-.281l1.44-.843a.544.544,0,0,1,.492.018Z" transform="translate(-222.465 -31.452)" fill="#3a2c6d"/>
            <path id="Tracé_158" data-name="Tracé 158" d="M249.194,56.373l1.51.878c.123,0,.105.193,0,.281l-1.44.843a.6.6,0,0,1-.492,0l-1.51-.878c-.14,0-.123-.193,0-.281l1.44-.843a.6.6,0,0,1,.492,0Z" transform="translate(-223.393 -31.983)" fill="#3a2c6d"/>
            <path id="Tracé_159" data-name="Tracé 159" d="M247.958,55.675l1.528.878c.123,0,.105.193,0,.281l-1.457.825a.509.509,0,0,1-.474,0l-1.528-.878c-.123,0-.105-.193,0-.263l1.457-.843a.509.509,0,0,1,.474,0Z" transform="translate(-224.317 -32.514)" fill="#3a2c6d"/>
            <path id="Tracé_160" data-name="Tracé 160" d="M245.231,54.1,249.41,56.5c.123,0,.105.193,0,.281l-1.457.843a.6.6,0,0,1-.492,0L243.3,55.2c-.123,0-.123-.193,0-.263l1.44-.843a.544.544,0,0,1,.492,0Z" transform="translate(-226.383 -33.709)" fill="#3a2c6d"/>
            <path id="Tracé_161" data-name="Tracé 161" d="M261.408,63.433l2.072,1.194c.123,0,.105.211,0,.281l-1.44.843a.544.544,0,0,1-.492,0l-2.072-1.194c-.123,0-.105-.193,0-.281l1.457-.843a.562.562,0,0,1,.474,0Z" transform="translate(-214.15 -26.646)" fill="#3a2c6d"/>
            <path id="Tracé_162" data-name="Tracé 162" d="M240.129,56.857l30.483,17.559c.123,0,.123.193,0,.281l-.72.4a.509.509,0,0,1-.474,0l-30.5-17.559c-.123,0-.105-.193,0-.281l.72-.421a.6.6,0,0,1,.492.018Z" transform="translate(-229.692 -31.624)" fill="#3a2c6d"/>
            <path id="_Контур_5" data-name="&lt;Контур&gt;" d="M266.361,59.654l-.211.105-5.268,3.055-9.359-5.408-.193-.123,5.461-3.143Z" transform="translate(-220.243 -33.631)" fill="#bfbfbf"/>
            <path id="_Контур_6" data-name="&lt;Контур&gt;" d="M266.067,59.661,260.8,62.716l-9.359-5.408,5.268-3.038Z" transform="translate(-220.16 -33.532)" fill="#e5e5e5"/>
            <path id="_Контур_7" data-name="&lt;Контур&gt;" d="M292.555,65.062v.474a1.914,1.914,0,0,1-.948,1.668L273.029,77.915a1.879,1.879,0,0,1-1.914,0L237.507,58.6a1.931,1.931,0,0,1-.966-1.756V56.37l35.523,20.509Z" transform="translate(-231.424 -31.945)" fill="#e5e5e5"/>
            <path id="_Контур_8" data-name="&lt;Контур&gt;" d="M273.738,87.542a2.283,2.283,0,0,1-1.967-.14L238.409,68.086a2.265,2.265,0,0,1-1.106-1.6l-3.67-21.844a2.609,2.609,0,0,1,0-.369,2.23,2.23,0,0,1,.685-1.615l34.768,20.07a1.756,1.756,0,0,1,.808,1.176Z" transform="translate(-233.626 -42.309)" fill="#f4f4f4"/>
            <path id="_Контур_9" data-name="&lt;Контур&gt;" d="M273.983,87.412l-.228.14-.3.14-3.968-23.635a1.756,1.756,0,0,0-.808-1.176L234,42.811a1.51,1.51,0,0,1,.457-.351l34.838,20.106a1.756,1.756,0,0,1,.825,1.176Z" transform="translate(-233.344 -42.46)" fill="#e5e5e5"/>
          </g>
        </g>
        <path id="_Контур_10" data-name="&lt;Контур&gt;" d="M279.121,14.83s-.439,8.306-.246,9.043,3.81,3.178,4.864,4.056-5.742,7.586-9.043,9.1-13.8-2.476-14.048-7.638,1.756-9.465,3.406-9.693S279.121,14.83,279.121,14.83Z" transform="translate(-211.166 11.205)" fill="#ffcea9"/>
        <path id="_Контур_11" data-name="&lt;Контур&gt;" d="M283.566,23.953s-6.023,8.99-14.434,9.833c-2.651-2.616-2.9-11.923.773-14.89,0,0-3.371-2.739-5.689-2.195a11.853,11.853,0,0,0-5.268,6.62,54.084,54.084,0,0,0-2.967,19.315c.14,8.78,0,31.1,0,31.1A18.982,18.982,0,0,0,264.847,86.5a27.375,27.375,0,0,0,20.035,2.774c4.267-1,5.847-3.371,7.322-6.479-.386-6.163-2.827-18.894-1.756-26.673s2.669-13.573,3.09-19.842-.825-6.163-3.986-8.411a49.362,49.362,0,0,0-5.988-3.916Z" transform="translate(-214.698 12.566)" fill="#5e8ef9"/>
        <path id="_Контур_12" data-name="&lt;Контур&gt;" d="M267.1,90.348a40.386,40.386,0,0,1,4.723-2.7,10.026,10.026,0,0,0,4.039-2.458c1.475-1.44,3.9-6.918,5.637-12.292a54.787,54.787,0,0,0,2.019-18.56c-.72-7.5-3.424-17.981-4.109-22.283s.7-6.04,2.722-7.621c2.353-1.861,5.6-1.036,7.34,5a115.888,115.888,0,0,1,3.863,25.584A58.263,58.263,0,0,1,290.4,73.929a68.271,68.271,0,0,1-7.2,14.855c-.825,1.387-1.106,2.634-2.371,5.479a19.105,19.105,0,0,1-5.514,7.34c-2.107,1.51-3.108,1.756-3.617,1.44s-.492-1.036.4-1.756a15.943,15.943,0,0,0,3.758-4.232s-1.844,1.861-3.055,2.88a15.8,15.8,0,0,1-3.512,2.248c-1.229.544-2.95-.509-2.072-1.335s1.756-1.247,3.512-2.774a15.188,15.188,0,0,0,2.511-2.722A29.346,29.346,0,0,1,269.33,97.9a6.69,6.69,0,0,1-3.512.966c-.65,0-1.44-.948-.211-1.756a24.073,24.073,0,0,0,4.688-3.319c1.352-1.335,2.107-2.476,1.756-2.493s-1.124.808-2.7,1.317-3.284,0-3.512-.825S265.625,91.067,267.1,90.348Z" transform="translate(-207.89 17.796)" fill="#ffcea9"/>
        <path id="_Контур_13" data-name="&lt;Контур&gt;" d="M260.675,12.5h0c1-6.444,5.654-11.326,12.292-10.957a12.783,12.783,0,0,1,6.515,23.354,13.083,13.083,0,0,1-1.036,2.827c-2.335,2.739-9.447,4.5-11.519,4.144a6.058,6.058,0,0,1-5.268-4.337C259.446,22.469,260.13,15.691,260.675,12.5Z" transform="translate(-211.543 1.143)" fill="#ffcea9"/>
        <path id="Tracé_163" data-name="Tracé 163" d="M279.085,26.038h0L278.47,20.4s4.6-11.905-6.269-9.623c-7.164,1.51-8.973,2.177-11.15-2.634S266.512-1,275.7.209A12.608,12.608,0,0,1,287,13.009C286.776,16.556,285.828,23.721,279.085,26.038Z" transform="translate(-211.13 -0.003)" fill="#3a2c6d"/>
        <path id="Tracé_164" data-name="Tracé 164" d="M288.8,40.859s-5.935,5.9-12.941,4.2c-1-.685-3.424-14.469-3.424-14.469s0-7.638,5.865-7.445S288.8,40.859,288.8,40.859Z" transform="translate(-202.245 17.486)" fill="#5e8ef9"/>
        <path id="Tracé_165" data-name="Tracé 165" d="M258.14,34.3a6.444,6.444,0,0,1-4.39-1.949c.246-3.09,4.2-14.82,12.133-15.681a14.662,14.662,0,0,0-4.952,5.988A76.049,76.049,0,0,0,258.14,34.3Z" transform="translate(-216.366 12.596)" fill="#5e8ef9"/>
      </g>
      <path id="Tracé_166" data-name="Tracé 166" d="M529.718,466.94,383.061,382.268c-9.219-5.268-16.681-19.579-16.681-31.853V119.667c0-12.292,7.463-17.911,16.681-12.608l146.656,84.689c9.2,5.268,16.664,19.579,16.664,31.853V454.385C546.381,466.676,538.919,472.26,529.718,466.94Z" transform="translate(276.891 79.416)" fill="#211b49"/>
      <path id="Tracé_167" data-name="Tracé 167" d="M462.74,317l5.022-2.476-3.389-6.655Z" transform="translate(349.734 232.726)" fill="#211b49"/>
      <path id="Tracé_168" data-name="Tracé 168" d="M367.94,107.53a29.34,29.34,0,0,1,4.636-2.23l3.723,7.357Z" transform="translate(278.071 79.595)" fill="#211b49"/>
      <g transform="matrix(1, 0, 0, 1, -69.65, 0)" filter="url(#Tracé_169)">
        <path id="Tracé_169-2" data-name="Tracé 169" d="M527.528,468.043,380.854,383.319c-9.2-5.268-16.664-19.579-16.664-31.853V120.77c0-12.292,7.463-17.928,16.664-12.608l146.674,84.689c9.2,5.268,16.664,19.561,16.664,31.835V455.435C544.191,467.709,536.729,473.363,527.528,468.043Z" transform="translate(344.88 80.24)" fill="#2e245b"/>
      </g>
      <path id="Tracé_170" data-name="Tracé 170" d="M400.353,145.472l-26.673-15.4V120.45l26.673,15.4Z" transform="translate(282.41 91.048)" fill="#a298e2"/>
      <path id="Tracé_171" data-name="Tracé 171" d="M505.048,205.919,391.72,140.475V130.87L505.048,196.3Z" transform="translate(296.047 98.925)" fill="#d18be4"/>
      <path id="Tracé_172" data-name="Tracé 172" d="M400.353,163.012l-26.673-15.4V137.99l26.673,15.4Z" transform="translate(282.41 104.307)" fill="#a298e2"/>
      <path id="Tracé_173" data-name="Tracé 173" d="M466.716,201.324l-75-43.3V148.4l75,43.3Z" transform="translate(296.047 112.176)" fill="#d388e5"/>
      <path id="Tracé_174" data-name="Tracé 174" d="M400.353,171.765,373.68,156.383V146.76l26.673,15.382Z" transform="translate(282.41 110.937)" fill="#a298e2"/>
      <path id="Tracé_175" data-name="Tracé 175" d="M485.048,220.682l-93.328-53.89V157.17l93.328,53.89Z" transform="translate(296.047 118.806)" fill="#d388e5"/>
      <path id="Tracé_176" data-name="Tracé 176" d="M400.353,180.542l-26.673-15.4V155.52l26.673,15.4Z" transform="translate(282.41 117.559)" fill="#a298e2"/>
      <path id="Tracé_177" data-name="Tracé 177" d="M456.725,213.087l-65-37.524V165.94l65,37.524Z" transform="translate(296.047 125.436)" fill="#5e8ef9"/>
      <path id="Tracé_178" data-name="Tracé 178" d="M400.353,154.242l-26.673-15.4V129.22l26.673,15.4Z" transform="translate(282.41 97.678)" fill="#a298e2"/>
      <path id="Tracé_179" data-name="Tracé 179" d="M448.384,181.983,391.72,149.253V139.63l56.664,32.713Z" transform="translate(296.047 105.547)" fill="#5c91f8"/>
      <path id="Tracé_180" data-name="Tracé 180" d="M400.353,189.312l-26.673-15.4V164.29l26.673,15.4Z" transform="translate(282.41 124.188)" fill="#a298e2"/>
      <path id="Tracé_181" data-name="Tracé 181" d="M425.048,203.568,391.72,184.323V174.7l33.328,19.245Z" transform="translate(296.047 132.058)" fill="#d388e5"/>
      <path id="Tracé_182" data-name="Tracé 182" d="M400.353,206.835,373.68,191.453V181.83l26.673,15.4Z" transform="translate(282.41 137.448)" fill="#a298e2"/>
      <path id="Tracé_183" data-name="Tracé 183" d="M496.725,262.478,391.72,201.863V192.24l105.005,60.615Z" transform="translate(296.047 145.317)" fill="#608afa"/>
      <path id="Tracé_184" data-name="Tracé 184" d="M400.353,215.612l-26.673-15.4V190.59l26.673,15.4Z" transform="translate(282.41 144.07)" fill="#a298e2"/>
      <path id="Tracé_185" data-name="Tracé 185" d="M423.38,228.912l-31.66-18.279V201.01l31.66,18.279Z" transform="translate(296.047 151.946)" fill="#d585e6"/>
      <path id="Tracé_186" data-name="Tracé 186" d="M400.353,224.382l-26.673-15.4V199.36l26.673,15.4Z" transform="translate(282.41 150.699)" fill="#a298e2"/>
      <path id="Tracé_187" data-name="Tracé 187" d="M485.048,273.275l-93.328-53.89v-9.6l93.328,53.872Z" transform="translate(296.047 158.576)" fill="#6286fb"/>
      <path id="Tracé_188" data-name="Tracé 188" d="M400.353,198.082l-26.673-15.4V173.06l26.673,15.4Z" transform="translate(282.41 130.818)" fill="#a298e2"/>
      <path id="Tracé_189" data-name="Tracé 189" d="M480.044,244.1l-88.324-51.01V183.47l88.324,51.01Z" transform="translate(296.047 138.687)" fill="#5e8ef9"/>
      <path id="Tracé_190" data-name="Tracé 190" d="M400.353,233.152l-26.673-15.4V208.13l26.673,15.4Z" transform="translate(282.41 157.329)" fill="#a298e2"/>
      <path id="Tracé_191" data-name="Tracé 191" d="M403.379,234.905l-11.659-6.743V218.54l11.659,6.743Z" transform="translate(296.047 165.198)" fill="#d782e7"/>
      <path id="Tracé_192" data-name="Tracé 192" d="M400.353,250.675,373.68,235.293V225.67l26.673,15.4Z" transform="translate(282.41 170.588)" fill="#a298e2"/>
      <path id="Tracé_193" data-name="Tracé 193" d="M413.388,258.2,391.72,245.7V236.08l21.668,12.5Z" transform="translate(296.047 178.457)" fill="#6482fc"/>
      <path id="Tracé_194" data-name="Tracé 194" d="M400.353,259.452l-26.673-15.4V234.43l26.673,15.4Z" transform="translate(282.41 177.21)" fill="#a298e2"/>
      <path id="Tracé_195" data-name="Tracé 195" d="M448.384,287.186,391.72,254.473V244.85l56.664,32.713Z" transform="translate(296.047 185.087)" fill="#6482fc"/>
      <path id="Tracé_196" data-name="Tracé 196" d="M400.353,268.222l-26.673-15.4V243.2l26.673,15.4Z" transform="translate(282.41 183.84)" fill="#a298e2"/>
      <path id="Tracé_197" data-name="Tracé 197" d="M481.712,315.208,391.72,263.233V253.61l89.992,51.976Z" transform="translate(296.047 191.709)" fill="#d782e7"/>
      <path id="Tracé_198" data-name="Tracé 198" d="M400.353,241.922l-26.673-15.4V216.9l26.673,15.4Z" transform="translate(282.41 163.958)" fill="#a298e2"/>
      <path id="Tracé_199" data-name="Tracé 199" d="M505.048,302.376,391.72,236.933V227.31l113.328,65.426Z" transform="translate(296.047 171.828)" fill="#d585e6"/>
      <path id="Tracé_200" data-name="Tracé 200" d="M63.394,287.1,47.38,278.885,13.824,298.2c-7.6,4.39-13.784.843-13.784-7.954V253.688a30.483,30.483,0,0,1,13.784-23.881L213.668,114.389c7.6-4.39,13.784-.825,13.784,7.954v36.682a30.483,30.483,0,0,1-13.784,23.881L79.3,260.413" transform="translate(-0.04 85.046)" fill="#b1b4c4"/>
      <path id="Tracé_201" data-name="Tracé 201" d="M128.151,112.77l7.551,3.055-6.392,6.567-4.53-7.252Z" transform="translate(94.256 85.242)" fill="#b1b4c4"/>
      <path id="Tracé_202" data-name="Tracé 202" d="M36.12,214.117l7.954,3.2.018-6.848-7.041-1.4Z" transform="translate(27.234 158.032)" fill="#b1b4c4"/>
      <path id="Tracé_203" data-name="Tracé 203" d="M11.461,225.536c.3.632-8.622-3.02-8.938-3.512S13.339,215,13.339,215Z" transform="translate(1.832 162.522)" fill="#b1b4c4"/>
      <path id="Tracé_204" data-name="Tracé 204" d="M83.863,262.208l134.365-77.56a30.536,30.536,0,0,0,13.784-23.881V124.156c0-8.78-6.181-12.292-13.784-7.972L18.314,231.6A30.518,30.518,0,0,0,4.53,255.483v36.611c0,8.78,6.181,12.292,13.784,7.954L51.87,280.733l16.084,8.235Z" transform="translate(3.354 86.429)" fill="#e9eaf2"/>
      <path id="Tracé_205" data-name="Tracé 205" d="M206.366,139.018,14.74,249.642V236.912L206.366,126.27Z" transform="translate(11.072 95.447)" fill="#8058d3"/>
      <path id="Tracé_206" data-name="Tracé 206" d="M140.2,173.468,14.74,245.9V233.153L140.2,160.72Z" transform="translate(11.072 121.49)" fill="#8252d4"/>
    </g>
  </g>
</svg>
