<svg xmlns="http://www.w3.org/2000/svg" width="720.021" height="719.743" viewBox="0 0 720.021 719.743">
    <defs>
        <clipPath id="prefix__clip-path">
            <path id="prefix__Tracé_422" d="M105.057 187.033v71.138a4.593 4.593 0 0 1-.259 1.44 6.265 6.265 0 0 1-.36.85 5.342 5.342 0 0 1-1.9 2.117L6.775 317.846a1.7 1.7 0 0 1-1.9.086 1.354 1.354 0 0 1-.389-.461 2.275 2.275 0 0 1-.245-1.094v-71.138a4.32 4.32 0 0 1 .245-1.44 5.76 5.76 0 0 1 2.29-2.967l95.734-55.269a1.714 1.714 0 0 1 1.9-.1 1.282 1.282 0 0 1 .389.475 2.275 2.275 0 0 1 .258 1.095z" class="prefix__cls-1" data-name="Tracé 422" transform="translate(-4.239 -185.223)"/>
        </clipPath>
        <clipPath id="prefix__clip-path-2">
            <path id="prefix__Tracé_430" d="M537.745 64.541v83.292a5.4 5.4 0 0 1-.3 1.67 9.737 9.737 0 0 1-.418.994 6.437 6.437 0 0 1-2.232 2.477l-112.136 64.8a2 2 0 0 1-2.232.1 1.44 1.44 0 0 1-.461-.547 2.764 2.764 0 0 1-.274-1.282v-83.361a5.025 5.025 0 0 1 .288-1.613 5.859 5.859 0 0 1 .432-1.037 6.221 6.221 0 0 1 2.247-2.491l112.107-64.73a2.016 2.016 0 0 1 2.246-.115 1.585 1.585 0 0 1 .461.547 2.881 2.881 0 0 1 .272 1.296z" class="prefix__cls-1" data-name="Tracé 430" transform="translate(-419.689 -62.41)"/>
        </clipPath>
        <clipPath id="prefix__clip-path-3">
            <path id="prefix__Tracé_439" d="M410.567 51.092v176.837a11.232 11.232 0 0 1-.634 3.543 14.939 14.939 0 0 1-.907 2.1 13.277 13.277 0 0 1-4.723 5.271L166.279 376.282a4.2 4.2 0 0 1-4.738.23 3.354 3.354 0 0 1-.965-1.166 5.919 5.919 0 0 1-.576-2.722V195.773a11.305 11.305 0 0 1 .59-3.442 15.311 15.311 0 0 1 .936-2.2 13.234 13.234 0 0 1 4.767-5.285L404.26 47.435a4.32 4.32 0 0 1 4.752-.23 3.355 3.355 0 0 1 .965 1.166 5.919 5.919 0 0 1 .59 2.721z" class="prefix__cls-1" data-name="Tracé 439" transform="translate(-159.998 -46.601)"/>
        </clipPath>
        <linearGradient id="prefix__linear-gradient" x1=".5" x2=".5" y1="1" gradientUnits="objectBoundingBox">
            <stop offset=".21" stop-color="#fff" stop-opacity="0"/>
            <stop offset="1" stop-color="#fff" stop-opacity=".2"/>
        </linearGradient>
        <style>
            .prefix__cls-1{fill:none}.prefix__cls-3{fill:#b1b4c4}.prefix__cls-5{fill:#757b89}.prefix__cls-11{fill:#e9eaf2}.prefix__cls-15{fill:#9437ff}.prefix__cls-16{opacity:.6}.prefix__cls-17{fill:#a692e5}.prefix__cls-19{fill:#d782e7}.prefix__cls-25{fill:#e9acf3}.prefix__cls-26{fill:#ebaaf4}.prefix__cls-27{fill:#ce78dc}.prefix__cls-29{opacity:.12}.prefix__cls-30{opacity:.05}
        </style>
    </defs>
    <g id="prefix__Слой_2" data-name="Слой 2" transform="translate(-1.669)">
        <g id="prefix__Слой_1" data-name="Слой 1" transform="translate(1.669)">
            <g id="prefix__Mobile" transform="translate(70.063 365.889)">
                <path id="prefix__Tracé_378" d="M205.511 595.538l-146.8-84.746c-12.428-7.2-10.872-19.714 3.485-28.009L416.794 278.1c14.4-8.295 36.073-9.187 48.5-2.016l146.8 84.746c12.428 7.2 10.872 19.729-3.485 28.009l-354.6 204.7c-14.354 8.278-36.07 9.185-48.498 1.999z" data-name="Tracé 378" transform="translate(-50.323 -246.534)" style="fill:#d6d8e5;opacity:.4"/>
                <path id="prefix__Tracé_379" d="M218.419 587.809L71.636 503.063c-12.442-7.2-10.872-19.729 3.485-28.009L429.7 270.324c14.4-8.28 36-9.187 48.515-2L625 353.068c12.428 7.2 10.872 19.714-3.485 28.009L266.934 585.793c-14.357 8.294-36.073 9.187-48.515 2.016z" class="prefix__cls-3" data-name="Tracé 379" transform="translate(-44.64 -249.951)"/>
                <path id="prefix__Tracé_380" d="M63.24 425.4v-13.51l15.855 5.976z" class="prefix__cls-3" data-name="Tracé 380" transform="translate(-44.64 -184.642)"/>
                <path id="prefix__Tracé_381" d="M463.02 337.779V324.79l-12.6 8.122z" class="prefix__cls-3" data-name="Tracé 381" transform="translate(125.735 -222.969)"/>
                <path id="prefix__Tracé_382" d="M218.419 579.857L71.636 495.111c-12.442-7.2-10.872-19.714 3.485-28.009L429.7 262.386c14.4-8.295 36-9.187 48.515-2.016L625 345.116c12.428 7.2 10.872 19.729-3.485 28.009l-354.581 204.73c-14.357 8.28-36.073 9.187-48.515 2.002z" data-name="Tracé 382" transform="translate(-44.64 -253.447)" style="fill:#616e84"/>
                <ellipse id="prefix__Ellipse_11" cx="1.57" cy="2.722" class="prefix__cls-5" data-name="Ellipse 11" rx="1.57" ry="2.722" transform="rotate(-30 496.348 51.742)"/>
                <ellipse id="prefix__Ellipse_12" cx="1.57" cy="2.722" class="prefix__cls-5" data-name="Ellipse 12" rx="1.57" ry="2.722" transform="rotate(-30 507.502 40.597)"/>
                <ellipse id="prefix__Ellipse_13" cx="1.57" cy="2.722" class="prefix__cls-5" data-name="Ellipse 13" rx="1.57" ry="2.722" transform="rotate(-30 518.628 29.446)"/>
                <ellipse id="prefix__Ellipse_14" cx="1.57" cy="2.722" class="prefix__cls-5" data-name="Ellipse 14" rx="1.57" ry="2.722" transform="rotate(-30 529.789 18.314)"/>
                <ellipse id="prefix__Ellipse_15" cx="1.57" cy="2.722" class="prefix__cls-5" data-name="Ellipse 15" rx="1.57" ry="2.722" transform="rotate(-30 625.472 -77.403)"/>
                <ellipse id="prefix__Ellipse_16" cx="1.57" cy="2.722" class="prefix__cls-5" data-name="Ellipse 16" rx="1.57" ry="2.722" transform="rotate(-30 636.633 -88.52)"/>
                <ellipse id="prefix__Ellipse_17" cx="1.57" cy="2.722" class="prefix__cls-5" data-name="Ellipse 17" rx="1.57" ry="2.722" transform="rotate(-30 647.759 -99.672)"/>
                <ellipse id="prefix__Ellipse_18" cx="1.57" cy="2.722" class="prefix__cls-5" data-name="Ellipse 18" rx="1.57" ry="2.722" transform="rotate(-30 658.913 -110.83)"/>
                <path id="prefix__Tracé_383" d="M129.609 464.252l-19.4-11.218a5.285 5.285 0 0 1-2.232-4.248c0-1.642.994-2.391 2.232-1.685l19.4 11.218a5.285 5.285 0 0 1 2.232 4.248c-.072 1.642-1.065 2.391-2.232 1.685z" class="prefix__cls-5" data-name="Tracé 383" transform="translate(-24.952 -169.264)"/>
                <path id="prefix__Tracé_384" d="M434.472 357.923l-18.058 10.426c-1.138.648-2.074 0-2.074-1.57a4.983 4.983 0 0 1 2.074-3.96l18.058-10.411c1.138-.662 2.059 0 2.059 1.555a4.968 4.968 0 0 1-2.059 3.96z" class="prefix__cls-5" data-name="Tracé 384" transform="translate(109.858 -210.928)"/>
                <path id="prefix__Tracé_385" d="M415.272 369l-18.058 10.426c-1.138.662-2.074 0-2.074-1.57a4.982 4.982 0 0 1 2.074-3.946l18.058-10.426c1.138-.662 2.059 0 2.059 1.57a4.925 4.925 0 0 1-2.059 3.946z" class="prefix__cls-5" data-name="Tracé 385" transform="translate(101.409 -206.053)"/>
                <path id="prefix__Tracé_386" d="M218.419 578.419L71.636 493.672c-12.442-7.2-10.872-19.714 3.485-28.009L429.7 260.948c14.4-8.295 36-9.2 48.515-2.016L625 343.678c12.428 7.2 10.872 19.714-3.485 28.009L266.934 576.4c-14.357 8.3-36.073 9.19-48.515 2.019z" data-name="Tracé 386" transform="translate(-44.64 -254.083)" style="fill:#20232d"/>
                <path id="prefix__Tracé_387" d="M602.055 344.369l-57.313-33.121-.13.086c-6.783 3.9-17.756 3.9-24.481 0s-6.768-10.253 0-14.156l.144-.086-57.314-33.121c-8.64-5.026-22.81-5.026-31.522 0L86.06 463.417c-8.64 5.026-8.64 13.176 0 18.2l139.122 80.325c8.712 5.026 22.825 5.026 31.522 0l345.35-199.388c8.699-5.023 8.699-13.159.001-18.185z" data-name="Tracé 387" transform="translate(-37.449 -251.39)" style="fill:#fff"/>
                <path id="prefix__Tracé_388" d="M602.069 362.536l-345.35 199.388c-7.863 4.536-20.161 4.983-28.887 1.3a23.326 23.326 0 0 1-2.621-1.3L86.075 481.656a14.718 14.718 0 0 1-4.882-4.32c-3.283-4.651-1.656-10.181 4.882-13.954L431.41 264.008c8.712-5.011 22.81-5.011 31.522 0l57.313 33.121h-.145c-6.768 3.9-6.768 10.239 0 14.156s17.756 3.9 24.481 0l.144-.086 57.313 33.121c8.729 5.054 8.729 13.19.031 18.216z" data-name="Tracé 388" transform="translate(-37.464 -251.369)"/>
                <ellipse id="prefix__Ellipse_19" cx="6.581" cy="3.802" data-name="Ellipse 19" rx="6.581" ry="3.802" transform="translate(484.554 51.261)" style="fill:#2b303f"/>
                <path id="prefix__Tracé_389" d="M390.24 293.929a1.2 1.2 0 0 1 0-2.246 4.32 4.32 0 0 1 3.9 0 1.181 1.181 0 0 1 0 2.246 4.32 4.32 0 0 1-3.9 0z" data-name="Tracé 389" transform="translate(98.907 -237.743)" style="opacity:.1;fill:#fff"/>
            </g>
            <path id="prefix__Tracé_390" d="M408.521 312.525l-2.491-1.44 4.162-2.4 2.491 1.44z" class="prefix__cls-11" data-name="Tracé 390" transform="translate(176.265 135.831)"/>
            <path id="prefix__Tracé_391" d="M410.831 314.145l-2.491-1.44 5.818-3.355 2.491 1.44z" class="prefix__cls-11" data-name="Tracé 391" transform="translate(177.281 136.126)"/>
            <path id="prefix__Tracé_392" d="M413.141 315.915l-2.491-1.44 8.309-4.8 2.491 1.44z" class="prefix__cls-11" data-name="Tracé 392" transform="translate(178.298 136.271)"/>
            <path id="prefix__Tracé_393" d="M415.451 317.845l-2.491-1.44 11.64-6.725 2.491 1.44z" class="prefix__cls-11" data-name="Tracé 393" transform="translate(179.314 136.271)"/>
            <path id="prefix__Tracé_394" d="M423.374 321.735l-3.874-2.246 7.762-4.479 3.874 2.246z" class="prefix__cls-11" data-name="Tracé 394" transform="translate(182.192 138.616)"/>
            <path id="prefix__Tracé_395" d="M426.978 323.8l-3.888-2.232 7.762-4.479 3.874 2.232z" class="prefix__cls-11" data-name="Tracé 395" transform="translate(183.772 139.532)"/>
            <path id="prefix__Tracé_396" d="M430.568 325.871l-3.888-2.232 7.762-4.478 3.874 2.232z" class="prefix__cls-11" data-name="Tracé 396" transform="translate(185.351 140.443)"/>
            <path id="prefix__Tracé_397" d="M322.612 301.445l-17.842-10.311c-2.477-1.44-2.16-3.9.691-5.544l16.46-9.5a10.642 10.642 0 0 1 9.619-.4l17.842 10.3c2.462 1.44 2.16 3.917-.691 5.559l-16.46 9.5a10.7 10.7 0 0 1-9.619.396z" data-name="Tracé 397" transform="translate(130.972 120.889)" style="fill:#a396e3"/>
            <path id="prefix__Tracé_398" d="M433.344 365.377L328.927 305.1c-2.462-1.44-2.146-3.917.691-5.559l16.474-9.5a10.656 10.656 0 0 1 9.605-.4l104.417 60.28c2.462 1.44 2.16 3.917-.691 5.559l-16.46 9.5a10.743 10.743 0 0 1-9.619.397z" data-name="Tracé 398" transform="translate(141.606 127.03)" style="fill:#d585e6"/>
            <path id="prefix__Tracé_399" d="M297.511 315.935l-17.842-10.311c-2.462-1.44-2.16-3.9.691-5.544l16.46-9.5a10.642 10.642 0 0 1 9.619-.4l17.842 10.253c2.462 1.44 2.16 3.917-.691 5.559l-16.46 9.5a10.7 10.7 0 0 1-9.619.443z" data-name="Tracé 399" transform="translate(119.928 127.266)" style="fill:#a494e4"/>
            <path id="prefix__Tracé_400" d="M408.241 379.867l-104.4-60.28c-2.462-1.44-2.16-3.917.691-5.559l16.46-9.5a10.7 10.7 0 0 1 9.619-.4l104.4 60.28c2.462 1.44 2.16 3.917-.691 5.559l-16.46 9.5a10.743 10.743 0 0 1-9.619.4z" class="prefix__cls-15" data-name="Tracé 400" transform="translate(130.564 133.406)"/>
            <g id="prefix__Groupe_21" class="prefix__cls-16" data-name="Groupe 21" transform="translate(361.788 437.347)">
                <path id="prefix__Tracé_401" d="M272.425 330.425l-17.856-10.311c-2.462-1.44-2.16-3.9.691-5.544l16.474-9.5a10.613 10.613 0 0 1 9.605-.4l17.857 10.3c2.462 1.44 2.146 3.917-.691 5.559l-16.475 9.521a10.656 10.656 0 0 1-9.605.375z" class="prefix__cls-17" data-name="Tracé 401" transform="translate(-252.904 -303.705)"/>
                <path id="prefix__Tracé_402" d="M383.156 394.357l-104.417-60.28c-2.462-1.44-2.16-3.917.691-5.559l16.46-9.5a10.7 10.7 0 0 1 9.62-.4l104.417 60.28c2.462 1.44 2.146 3.917-.691 5.559l-16.474 9.5a10.714 10.714 0 0 1-9.6.4z" data-name="Tracé 402" transform="translate(-242.268 -297.564)" style="fill:#6286fb"/>
            </g>
            <path id="prefix__Tracé_403" d="M247.306 344.915l-17.8-10.311c-2.462-1.44-2.146-3.9.691-5.544l16.474-9.519a10.656 10.656 0 0 1 9.605-.389l17.871 10.282c2.462 1.44 2.16 3.917-.691 5.559l-16.589 9.519a10.656 10.656 0 0 1-9.561.403z" class="prefix__cls-17" data-name="Tracé 403" transform="translate(97.858 140.018)"/>
            <path id="prefix__Tracé_404" d="M358.054 408.847l-104.417-60.28c-2.462-1.44-2.146-3.917.691-5.559l16.474-9.5a10.656 10.656 0 0 1 9.605-.4l104.417 60.28c2.462 1.44 2.146 3.917-.691 5.559l-16.474 9.5a10.714 10.714 0 0 1-9.605.4z" class="prefix__cls-15" data-name="Tracé 404" transform="translate(108.476 146.158)"/>
            <path id="prefix__Tracé_405" d="M222.221 359.405l-17.842-10.311c-2.462-1.44-2.16-3.9.691-5.544l16.46-9.519a10.685 10.685 0 0 1 9.619-.389l17.842 10.3c2.462 1.44 2.16 3.917-.691 5.559l-16.46 9.562a10.7 10.7 0 0 1-9.619.346z" class="prefix__cls-17" data-name="Tracé 405" transform="translate(86.798 146.394)"/>
            <path id="prefix__Tracé_406" d="M332.968 423.355l-104.46-60.338c-2.462-1.44-2.146-3.917.691-5.559l16.474-9.5a10.685 10.685 0 0 1 9.619-.4l104.4 60.28c2.462 1.44 2.16 3.917-.691 5.559l-16.46 9.5a10.743 10.743 0 0 1-9.576.461z" class="prefix__cls-19" data-name="Tracé 406" transform="translate(97.418 152.517)"/>
            <g id="prefix__Groupe_22" class="prefix__cls-16" data-name="Groupe 22" transform="translate(253.367 499.944)">
                <path id="prefix__Tracé_407" d="M197.121 373.9l-17.842-10.311c-2.462-1.44-2.16-3.9.691-5.544l16.46-9.519a10.685 10.685 0 0 1 9.619-.389l17.842 10.311c2.477 1.44 2.16 3.917-.691 5.559l-16.46 9.5a10.7 10.7 0 0 1-9.619.389z" data-name="Tracé 407" transform="translate(-177.614 -347.174)" style="fill:#a88fe6"/>
                <path id="prefix__Tracé_408" d="M307.851 437.827l-104.4-60.28c-2.462-1.44-2.16-3.917.691-5.559l16.46-9.5a10.7 10.7 0 0 1 9.619-.4l104.36 60.28c2.462 1.44 2.16 3.917-.691 5.559l-16.46 9.5a10.743 10.743 0 0 1-9.579.4z" class="prefix__cls-15" data-name="Tracé 408" transform="translate(-166.978 -341.033)"/>
            </g>
            <path id="prefix__Tracé_409" d="M172.034 388.385l-17.856-10.311c-2.462-1.44-2.146-3.9.691-5.544l16.474-9.519a10.656 10.656 0 0 1 9.605-.389l17.856 10.3c2.462 1.44 2.146 3.917-.691 5.559l-16.474 9.5a10.656 10.656 0 0 1-9.605.4z" data-name="Tracé 409" transform="translate(64.71 159.146)" style="fill:#cbbaf0"/>
            <path id="prefix__Tracé_410" d="M282.766 452.325l-104.417-60.308c-2.462-1.44-2.16-3.917.691-5.559l16.46-9.5a10.7 10.7 0 0 1 9.619-.4l104.417 60.28c2.462 1.44 2.146 3.917-.691 5.559l-16.5 9.533a10.714 10.714 0 0 1-9.576.4z" data-name="Tracé 410" transform="translate(75.344 165.278)" style="fill:#a1b4fd"/>
            <g id="prefix__Groupe_23" class="prefix__cls-16" data-name="Groupe 23" transform="translate(181.125 541.676)">
                <path id="prefix__Tracé_411" d="M146.964 402.875l-17.856-10.311c-2.462-1.44-2.146-3.9.691-5.544l16.474-9.519a10.685 10.685 0 0 1 9.619-.389l17.8 10.339c2.462 1.44 2.16 3.917-.691 5.559l-16.474 9.5a10.656 10.656 0 0 1-9.562.36z" data-name="Tracé 411" transform="translate(-127.448 -376.154)" style="fill:#ccb9f1"/>
                <path id="prefix__Tracé_412" d="M257.664 466.807l-104.417-60.28c-2.462-1.44-2.146-3.917.691-5.559l16.474-9.5a10.656 10.656 0 0 1 9.605-.4l104.417 60.28c2.462 1.44 2.16 3.917-.691 5.559l-16.474 9.5a10.714 10.714 0 0 1-9.605.4z" class="prefix__cls-15" data-name="Tracé 412" transform="translate(-116.825 -370.013)"/>
            </g>
            <g id="prefix__Groupe_24" class="prefix__cls-16" data-name="Groupe 24" transform="translate(144.947 562.485)">
                <path id="prefix__Tracé_413" d="M121.831 417.383l-17.842-10.368c-2.462-1.44-2.16-3.9.691-5.544l16.46-9.519a10.685 10.685 0 0 1 9.619-.389l17.842 10.3c2.462 1.44 2.16 3.917-.691 5.559l-16.46 9.5a10.7 10.7 0 0 1-9.619.461z" data-name="Tracé 413" transform="translate(-102.324 -390.604)" style="fill:#e1d3f7"/>
                <path id="prefix__Tracé_414" d="M232.564 481.293l-104.4-60.28c-2.477-1.44-2.16-3.9.677-5.544l16.474-9.5a10.685 10.685 0 0 1 9.619-.4l104.4 60.28c2.462 1.44 2.16 3.917-.691 5.559l-16.46 9.5a10.743 10.743 0 0 1-9.619.385z" class="prefix__cls-19" data-name="Tracé 414" transform="translate(-91.691 -384.441)"/>
            </g>
            <path id="prefix__Tracé_415" d="M102.473 185.631v71.138a4.2 4.2 0 0 1-.259 1.44 4.853 4.853 0 0 1-.36.85 5.343 5.343 0 0 1-1.9 2.117L4.19 316.472a1.7 1.7 0 0 1-1.9.115 1.282 1.282 0 0 1-.389-.475 2.419 2.419 0 0 1-.23-1.094V243.88a4.709 4.709 0 0 1 .23-1.44 6.881 6.881 0 0 1 .374-.893 5.486 5.486 0 0 1 1.915-2.117l95.734-55.33a1.7 1.7 0 0 1 1.915-.086 1.541 1.541 0 0 1 .389.461 2.462 2.462 0 0 1 .245 1.152z" class="prefix__cls-25" data-name="Tracé 415" transform="translate(-1.669 80.863)"/>
            <path id="prefix__Tracé_416" d="M2.23 277.417l3.686 2.03.23-6.538z" class="prefix__cls-26" data-name="Tracé 416" transform="translate(-1.423 120.091)"/>
            <path id="prefix__Tracé_417" d="M71.547 183.88l3.974 2.174-5.6 6.711z" class="prefix__cls-26" data-name="Tracé 417" transform="translate(28.363 80.914)"/>
            <path id="prefix__Tracé_418" d="M105.057 187.033v71.138a4.593 4.593 0 0 1-.259 1.44 6.265 6.265 0 0 1-.36.85 5.342 5.342 0 0 1-1.9 2.117L6.775 317.846a1.7 1.7 0 0 1-1.9.086 1.354 1.354 0 0 1-.389-.461 2.275 2.275 0 0 1-.245-1.094v-71.138a4.32 4.32 0 0 1 .245-1.44 5.76 5.76 0 0 1 2.29-2.967l95.734-55.269a1.714 1.714 0 0 1 1.9-.1 1.282 1.282 0 0 1 .389.475 2.275 2.275 0 0 1 .258 1.095z" class="prefix__cls-27" data-name="Tracé 418" transform="translate(-.539 81.505)"/>
            <g id="prefix__Groupe_25" data-name="Groupe 25" transform="translate(3.701 266.728)">
                <path id="prefix__Tracé_419" d="M4.658 297.965l49.983-66.775 49.9 8.813v7.056l-100.3 57.9z" class="prefix__cls-29" data-name="Tracé 419" transform="translate(-4.239 -164.996)"/>
                <path id="prefix__Tracé_420" d="M56.507 234.156l-49.883-8.237-4.594-1.469L0 305.582l6.739-4.911z" class="prefix__cls-30" data-name="Tracé 420" transform="translate(-6.105 -167.962)"/>
                <path id="prefix__Tracé_421" d="M39.24 253.377l49.9-65.853 4.594-6.754 2.03 78.77-6.624 2.65z" class="prefix__cls-30" data-name="Tracé 421" transform="translate(11.162 -187.183)"/>
            </g>
            <path id="prefix__Tracé_423" d="M534.725 62.895v83.292a5.4 5.4 0 0 1-.3 1.67 9.754 9.754 0 0 1-.418.994 6.235 6.235 0 0 1-2.232 2.477l-112.136 64.8a2.016 2.016 0 0 1-2.232.1 1.584 1.584 0 0 1-.461-.547 2.764 2.764 0 0 1-.274-1.282v-83.362a5.024 5.024 0 0 1 .288-1.613 7.2 7.2 0 0 1 .432-1.037 6.221 6.221 0 0 1 2.246-2.491l112.106-64.773a1.987 1.987 0 0 1 2.232-.115 1.44 1.44 0 0 1 .461.547 2.88 2.88 0 0 1 .288 1.34z" class="prefix__cls-25" data-name="Tracé 423" transform="translate(180.946 26.719)"/>
            <path id="prefix__Tracé_424" d="M417.33 170.375l4.32 2.376.274-7.661z" class="prefix__cls-26" data-name="Tracé 424" transform="translate(181.237 72.646)"/>
            <path id="prefix__Tracé_425" d="M498.5 60.83l4.666 2.563-6.566 7.848z" class="prefix__cls-26" data-name="Tracé 425" transform="translate(216.119 26.768)"/>
            <path id="prefix__Tracé_426" d="M537.745 64.541v83.292a5.4 5.4 0 0 1-.3 1.67 9.737 9.737 0 0 1-.418.994 6.437 6.437 0 0 1-2.232 2.477l-112.136 64.8a2 2 0 0 1-2.232.1 1.44 1.44 0 0 1-.461-.547 2.764 2.764 0 0 1-.274-1.282v-83.361a5.025 5.025 0 0 1 .288-1.613 5.859 5.859 0 0 1 .432-1.037 6.221 6.221 0 0 1 2.247-2.491l112.107-64.73a2.016 2.016 0 0 1 2.246-.115 1.585 1.585 0 0 1 .461.547 2.881 2.881 0 0 1 .272 1.296z" class="prefix__cls-27" data-name="Tracé 426" transform="translate(182.275 27.463)"/>
            <g id="prefix__Groupe_26" data-name="Groupe 26" transform="translate(601.965 89.873)">
                <path id="prefix__Tracé_427" d="M420.151 194.424l58.566-78.194 58.422 10.325v8.266L419.69 202.632z" class="prefix__cls-29" data-name="Tracé 427" transform="translate(-419.689 -38.728)"/>
                <path id="prefix__Tracé_428" d="M480.9 119.7l-58.422-9.634-5.371-1.728-2.39 95.014 7.891-5.746z" class="prefix__cls-30" data-name="Tracé 428" transform="translate(-421.876 -42.2)"/>
                <path id="prefix__Tracé_429" d="M460.68 142.21l58.42-77.1 5.371-7.92 2.376 92.249-7.747 3.1z" class="prefix__cls-30" data-name="Tracé 429" transform="translate(-401.652 -64.708)"/>
            </g>
            <path id="prefix__Tracé_431" d="M404.94 56.005a2.332 2.332 0 0 0-.806-1.022 7.589 7.589 0 0 0-2.3-.763L280.218 19.27 158.607 194.652a14.891 14.891 0 0 0-2.16 3.125 14.658 14.658 0 0 0-.936 2.2 11.3 11.3 0 0 0-.59 3.442v176.912a6.164 6.164 0 0 0 .576 2.736 3.34 3.34 0 0 0 .979 1.152A4.2 4.2 0 0 0 161.2 384l238.052-137.434a14.4 14.4 0 0 0 5.631-7.373 10.915 10.915 0 0 0 .634-3.557V58.727a6.048 6.048 0 0 0-.576-2.722z" data-name="Tracé 431" transform="translate(65.766 8.48)" style="fill:#e7aef2"/>
            <path id="prefix__Tracé_432" d="M328.656 43.93l7.474 4.435-10.44 7.661z" data-name="Tracé 432" transform="translate(140.912 19.331)" style="fill:#ceb95f"/>
            <path id="prefix__Tracé_433" d="M163.647 279.854L156 275.246l11.794-8.5z" class="prefix__cls-25" data-name="Tracé 433" transform="translate(66.242 117.38)"/>
            <path id="prefix__Tracé_434" d="M241.93 19.27l7.3 4.392L372.988 59.2l-6.149-3.643a47.319 47.319 0 0 0-7.344-2.506z" class="prefix__cls-25" data-name="Tracé 434" transform="translate(104.054 8.48)"/>
            <path id="prefix__Tracé_435" d="M410.567 50.962V227.8a11.232 11.232 0 0 1-.634 3.543 14.939 14.939 0 0 1-.907 2.1 13.277 13.277 0 0 1-4.723 5.271L166.279 376.151a4.2 4.2 0 0 1-4.738.23 3.354 3.354 0 0 1-.965-1.166 5.919 5.919 0 0 1-.576-2.722v-176.85a11.305 11.305 0 0 1 .59-3.442 15.311 15.311 0 0 1 .936-2.2 13.234 13.234 0 0 1 4.767-5.285L404.26 47.3l-4.06 2.8c1.9-1.08 7.69-3.9 8.842-3.038a3.355 3.355 0 0 1 .965 1.166 5.919 5.919 0 0 1 .562 2.736z" class="prefix__cls-19" data-name="Tracé 435" transform="translate(68.001 20.637)"/>
            <g id="prefix__Groupe_27" data-name="Groupe 27" transform="translate(228 67.108)">
                <path id="prefix__Tracé_436" d="M161.545 326.238L285.288 160.85l124.045 21.917v17.54L159.99 344.253z" class="prefix__cls-29" data-name="Tracé 436" transform="translate(-160.002 3.673)"/>
                <path id="prefix__Tracé_437" d="M289.93 168.221L165.9 147.758l-11.391-3.658-5.069 201.692 16.748-12.183z" class="prefix__cls-30" data-name="Tracé 437" transform="translate(-164.644 -3.698)"/>
                <path id="prefix__Tracé_438" d="M246.82 215.84L370.85 52.165l11.391-16.805 5.069 195.831-16.46 6.567z" class="prefix__cls-30" data-name="Tracé 438" transform="translate(-121.793 -51.548)"/>
            </g>
            <path id="prefix__Tracé_440" d="M161.05 200.813L284.821 22.32l123.757 35.555-123.757 163.934z" data-name="Tracé 440" transform="translate(68.464 9.822)" style="fill:#72297e"/>
            <path id="prefix__Tracé_441" d="M408.578 57.875l-28.009 37.11-95.748 126.824-95.734-16.244-28.038-4.752 28.038-40.436L258.065 60.9l26.756-38.58 26.756 7.69 68.992 19.829z" data-name="Tracé 441" transform="translate(68.464 9.822)" style="opacity:.3;fill:#ce78dc"/>
            <path id="prefix__Tracé_442" d="M372 0v104.806L276.254 231.63l-95.734-16.243V110.552z" data-name="Tracé 442" transform="translate(77.032)" style="fill:#fafbff"/>
            <path id="prefix__Tracé_443" d="M239.178 125.423L191.93 152.7V98.149l47.248-27.289z" class="prefix__cls-11" data-name="Tracé 443" transform="translate(82.052 31.181)"/>
            <path id="prefix__Tracé_444" d="M277.848 103.093L230.6 130.382V75.819l47.248-27.289z" class="prefix__cls-11" data-name="Tracé 444" transform="translate(99.069 21.355)"/>
            <path id="prefix__Tracé_445" d="M316.522 80.773l-47.262 27.289V53.5l47.262-27.29z" class="prefix__cls-11" data-name="Tracé 445" transform="translate(116.081 11.533)"/>
            <path id="prefix__Tracé_446" d="M350.55 82.734l-158.62 91.572v-9.49L350.55 73.23z" class="prefix__cls-11" data-name="Tracé 446" transform="translate(82.052 32.224)"/>
            <path id="prefix__Tracé_447" d="M326.924 96.91v9.5l-122.548 70.753-12.456-1.263v-1.037z" class="prefix__cls-11" data-name="Tracé 447" transform="translate(82.048 42.644)"/>
            <path id="prefix__Tracé_448" d="M295.9 119.58v9.5l-72.247 41.7-14.919-.878z" class="prefix__cls-11" data-name="Tracé 448" transform="translate(89.445 52.62)"/>
            <path id="prefix__Tracé_449" d="M275.046 138.77v5.8l-4.954 6.552-29.42 16.992-12.8-2.1z" class="prefix__cls-11" data-name="Tracé 449" transform="translate(97.867 61.064)"/>
        </g>
    </g>
</svg>
