<svg id="Composant_1_1" data-name="Composant 1 – 1" xmlns="http://www.w3.org/2000/svg" width="869" height="847" viewBox="0 0 869 847">
  <path id="Tracé_2" data-name="Tracé 2" d="M434.5,0C674.468,0,869,189.607,869,423.5S674.468,847,434.5,847,0,657.393,0,423.5,194.532,0,434.5,0Z" fill="#b288d7" opacity="0.47"/>
  <g id="user_1_" data-name="user (1)" transform="translate(179 168)">
    <g id="Groupe_1" data-name="Groupe 1" opacity="0.806">
      <path id="Tracé_1" data-name="Tracé 1" d="M437.02,330.98a255.018,255.018,0,0,0-97.281-61.018A147.947,147.947,0,0,0,404,148C404,66.393,337.607,0,256,0S108,66.393,108,148a147.945,147.945,0,0,0,64.262,121.962A256.4,256.4,0,0,0,0,512H40c0-119.1,96.9-216,216-216s216,96.9,216,216h40A254.331,254.331,0,0,0,437.02,330.98ZM256,256A108,108,0,1,1,364,148,108.122,108.122,0,0,1,256,256Z" fill="#7c86e8"/>
    </g>
  </g>
</svg>
