<svg xmlns="http://www.w3.org/2000/svg" width="136.964" height="139.246" viewBox="0 0 136.964 139.246">
  <g id="social-media-marketing" transform="translate(-2 -1)">
    <path id="Tracé_227" data-name="Tracé 227" d="M81.9,82.22H77.33V59.849a2.283,2.283,0,1,0-4.565,0V82.22H13.414V36.565H32.406a2.283,2.283,0,0,0,0-4.565H11.131a2.283,2.283,0,0,0-2.283,2.283V82.22H4.283A2.283,2.283,0,0,0,2,84.5v4.565a11.414,11.414,0,0,0,11.414,11.414H72.765A11.414,11.414,0,0,0,84.178,89.068V84.5A2.283,2.283,0,0,0,81.9,82.22Zm-2.283,6.848a6.848,6.848,0,0,1-6.848,6.848H68.2V93.634a2.283,2.283,0,1,0-4.565,0v2.283H22.545V93.634a2.283,2.283,0,1,0-4.565,0v2.283H13.414a6.848,6.848,0,0,1-6.848-6.848V86.785H79.613Z" transform="translate(0 39.765)" fill="#d585e6"/>
    <path id="Tracé_228" data-name="Tracé 228" d="M60.414,10.565h4.565a2.283,2.283,0,0,0,0-4.565H60.414a6.848,6.848,0,0,0-6.848,6.848v2.283H51.283a2.283,2.283,0,1,0,0,4.565h2.283v6.848a2.283,2.283,0,0,0,4.565,0V19.7h2.283a2.283,2.283,0,1,0,0-4.565H58.131V12.848A2.283,2.283,0,0,1,60.414,10.565Z" transform="translate(60.288 6.414)" fill="#d585e6"/>
    <path id="Tracé_229" data-name="Tracé 229" d="M78.241,2H50.848A6.848,6.848,0,0,0,44,8.848v4.565a2.283,2.283,0,1,0,4.565,0V8.848a2.283,2.283,0,0,1,2.283-2.283H78.241a2.283,2.283,0,0,1,2.283,2.283V36.241a2.283,2.283,0,0,1-2.283,2.283H50.848a2.283,2.283,0,0,1-2.283-2.283v-13.7a2.283,2.283,0,1,0-4.565,0v13.7a6.848,6.848,0,0,0,6.848,6.848H78.241a6.848,6.848,0,0,0,6.848-6.848V8.848A6.848,6.848,0,0,0,78.241,2Z" transform="translate(53.875 1.283)" fill="#d585e6"/>
    <path id="Tracé_230" data-name="Tracé 230" d="M49,47.131A9.131,9.131,0,1,0,58.131,38,9.131,9.131,0,0,0,49,47.131Zm13.7,0a4.565,4.565,0,1,1-4.565-4.565A4.565,4.565,0,0,1,62.7,47.131Z" transform="translate(60.288 47.461)" fill="#d585e6"/>
    <path id="Tracé_231" data-name="Tracé 231" d="M78.241,33H50.848A6.848,6.848,0,0,0,44,39.848V67.241a6.848,6.848,0,0,0,6.848,6.848H78.241a6.848,6.848,0,0,0,6.848-6.848V62.675a2.283,2.283,0,1,0-4.565,0v4.565a2.283,2.283,0,0,1-2.283,2.283H50.848a2.283,2.283,0,0,1-2.283-2.283V39.848a2.283,2.283,0,0,1,2.283-2.283H78.241a2.283,2.283,0,0,1,2.283,2.283v13.7a2.283,2.283,0,1,0,4.565,0v-13.7A6.848,6.848,0,0,0,78.241,33Z" transform="translate(53.875 41.047)" fill="#d585e6"/>
    <path id="Tracé_232" data-name="Tracé 232" d="M25.073,23.916a2.271,2.271,0,0,0,2.237.091l13.7-6.848a2.283,2.283,0,0,0,0-4.063L27.31,6.247A2.283,2.283,0,0,0,24,8.279v13.7A2.283,2.283,0,0,0,25.073,23.916Zm3.493-11.939,6.3,3.15-6.3,3.15Z" transform="translate(28.22 6.418)" fill="#d585e6"/>
    <path id="Tracé_233" data-name="Tracé 233" d="M38.545,42.089A20.545,20.545,0,1,0,18,21.545,20.545,20.545,0,0,0,38.545,42.089Zm0-36.524A15.979,15.979,0,1,1,22.565,21.545,15.979,15.979,0,0,1,38.545,5.565Z" transform="translate(20.524 0)" fill="#d585e6"/>
    <path id="Tracé_234" data-name="Tracé 234" d="M38.283,30.7a2.283,2.283,0,0,0,1.826-.913l6.848-9.131A2.283,2.283,0,1,0,43.3,17.913l-6.848,9.131A2.283,2.283,0,0,0,38.283,30.7Z" transform="translate(43.613 20.524)" fill="#d585e6"/>
    <path id="Tracé_235" data-name="Tracé 235" d="M39.457,32.5a2.283,2.283,0,0,0,3.2.457l9.131-6.848a2.283,2.283,0,1,0-2.739-3.652L39.913,29.3a2.283,2.283,0,0,0-.457,3.2Z" transform="translate(47.461 26.937)" fill="#d585e6"/>
    <path id="Tracé_236" data-name="Tracé 236" d="M58.114,29.856a2.283,2.283,0,0,0-2.739-1.826L43.961,30.313a2.294,2.294,0,0,0,.457,4.565h.457L56.288,32.6a2.283,2.283,0,0,0,1.826-2.739Z" transform="translate(51.174 34.603)" fill="#d585e6"/>
    <path id="Tracé_237" data-name="Tracé 237" d="M4.283,52.089H31.675a2.283,2.283,0,0,0,2.283-2.283V13.283A2.283,2.283,0,0,0,31.675,11H4.283A2.283,2.283,0,0,0,2,13.283V49.806a2.283,2.283,0,0,0,2.283,2.283ZM6.565,15.565H29.393V47.524H6.565Z" transform="translate(0 12.827)" fill="#d585e6"/>
    <path id="Tracé_238" data-name="Tracé 238" d="M14.848,15H10.283a2.283,2.283,0,0,0,0,4.565h4.565a2.283,2.283,0,0,0,0-4.565Z" transform="translate(7.696 17.958)" fill="#d585e6"/>
    <path id="Tracé_239" data-name="Tracé 239" d="M17.414,19H8.283a2.283,2.283,0,1,0,0,4.565h9.131a2.283,2.283,0,1,0,0-4.565Z" transform="translate(5.131 23.089)" fill="#d585e6"/>
    <path id="Tracé_240" data-name="Tracé 240" d="M17.414,23H8.283a2.283,2.283,0,1,0,0,4.565h9.131a2.283,2.283,0,0,0,0-4.565Z" transform="translate(5.131 28.22)" fill="#d585e6"/>
    <path id="Tracé_241" data-name="Tracé 241" d="M70.864,36.008a2.291,2.291,0,1,0-3.972,2.283L76.959,55.708,40.435,69.4h-.342l-5.935,3.424-3.949,2.283a4.558,4.558,0,0,1-6.232-1.666l-4.565-7.9a4.565,4.565,0,0,1,1.712-6.026l7.9-4.565,5.707,9.884A2.291,2.291,0,1,0,38.7,62.556L32.811,52.375,61.459,28.749,62.4,30.37a2.291,2.291,0,0,0,3.972-2.283l-2.283-3.949a2.313,2.313,0,0,0-3.447-.616L28.679,49.864,18.955,55.48a9.131,9.131,0,0,0-4.2,10.341l-2.283,1.3A6.843,6.843,0,0,0,15.9,79.9a6.985,6.985,0,0,0,3.424-.913l2.283-1.3A8.857,8.857,0,0,0,25.6,80.065a8.651,8.651,0,0,0,2.4.32,8.994,8.994,0,0,0,4.565-1.233l1.986-1.141,4.565,7.921a6.842,6.842,0,1,0,11.847-6.848L46.8,71.847,81.045,59a2.289,2.289,0,0,0,1.187-3.264ZM16.946,75.02a2.281,2.281,0,1,1-2.283-3.949l1.986-1.141,2.283,3.949Zm30.041,6.392a2.281,2.281,0,0,1-3.949,2.283l-4.565-7.921L42.262,73.6h.183Z" transform="translate(9.023 28.223)" fill="#d585e6"/>
  </g>
</svg>
