<svg xmlns="http://www.w3.org/2000/svg" xmlns:xlink="http://www.w3.org/1999/xlink" width="737.218" height="765.224" viewBox="0 0 737.218 765.224">
  <defs>
    <filter id="Tracé_267" x="0" y="0" width="492.373" height="661.197" filterUnits="userSpaceOnUse">
      <feOffset dy="3" input="SourceAlpha"/>
      <feGaussianBlur stdDeviation="3" result="blur"/>
      <feFlood flood-opacity="0.161"/>
      <feComposite operator="in" in2="blur"/>
      <feComposite in="SourceGraphic"/>
    </filter>
  </defs>
  <g id="Слой_2" data-name="Слой 2" transform="translate(4.062 3.15)">
    <g id="Слой_1" data-name="Слой 1" transform="translate(0 0)">
      <g id="monitor">
        <path id="Tracé_255" data-name="Tracé 255" d="M319.111,430.479l91.448-52.811c6.6-3.81,5.761-10.456-1.844-14.86L349.441,328.59l-115.362,66.6,59.274,34.217C300.973,433.817,312.5,434.289,319.111,430.479Z" transform="translate(-38.623 172.231)" fill="#d6d8e5" opacity="0.4"/>
        <path id="Tracé_256" data-name="Tracé 256" d="M323.47,427.919l91.448-52.827c6.584-3.81,5.761-10.456-1.859-14.86L353.846,326,238.484,392.6l59.259,34.232C305.363,431.242,316.886,431.714,323.47,427.919Z" transform="translate(-49.689 170.874)" fill="#b1b4c4"/>
        <path id="Tracé_257" data-name="Tracé 257" d="M353.67,370.91v-3.49L359,370.5Z" transform="translate(-164.89 192.584)" fill="#b1b4c4"/>
        <path id="Tracé_258" data-name="Tracé 258" d="M243.922,355.3V351.75l-5.472,2.271Z" transform="translate(125.804 184.37)" fill="#b1b4c4"/>
        <path id="Tracé_259" data-name="Tracé 259" d="M323.516,425.609,414.964,372.8c6.584-3.81,5.761-10.456-1.859-14.86L353.846,323.72l-115.362,66.6,59.259,34.217C305.409,428.947,316.931,429.419,323.516,425.609Z" transform="translate(-49.735 169.679)" fill="#d6d8e5"/>
        <path id="Tracé_260" data-name="Tracé 260" d="M387.382,340.11l14.266-47.37L285.021,359.634,272.31,406.563Z" transform="translate(-83.53 153.441)" fill="#9ea1af"/>
        <path id="Tracé_261" data-name="Tracé 261" d="M357.288,370.749,353.92,368.8l5.014-4.008Z" transform="translate(-165.201 191.205)" fill="#9ea1af"/>
        <path id="Tracé_262" data-name="Tracé 262" d="M385.252,341.28l14.281-47.37L282.891,360.8l-13,47.1Z" transform="translate(-77.727 154.054)" fill="#b1b4c4"/>
        <path id="Tracé_263" data-name="Tracé 263" d="M181.251,641.786,632.7,381.158c6.325-3.658,11.462-13.473,11.462-21.917V10.046c0-8.444-5.136-12.33-11.462-8.672L181.251,262c-6.325,3.658-11.461,13.458-11.461,21.9V633.129C169.836,641.573,174.926,645.444,181.251,641.786Z" transform="translate(-169.79 0.003)" fill="#c4c7d6"/>
        <path id="Tracé_264" data-name="Tracé 264" d="M480.029,429.546l-5-2.9,2.164-14.83Z" transform="translate(-470.884 215.855)" fill="#c4c7d6"/>
        <path id="Tracé_265" data-name="Tracé 265" d="M181.255,3.285,176.332.45,169.26,4.489s7.529,1.143,7.712,1.1S181.255,3.285,181.255,3.285Z" transform="translate(293.926 0.24)" fill="#b1b4c4"/>
        <path id="Tracé_266" data-name="Tracé 266" d="M178.541,643.356,629.976,382.728c6.34-3.643,11.461-13.458,11.461-21.9V11.616c0-8.444-5.121-12.33-11.461-8.672L178.541,263.571c-6.34,3.658-11.462,13.458-11.462,21.9V634.745C167.08,643.127,172.125,647.014,178.541,643.356Z" transform="translate(-162.934 0.826)" fill="#e4e7f2"/>
        <g transform="matrix(1, 0, 0, 1, -4.06, -3.15)" filter="url(#Tracé_267)">
          <path id="Tracé_267-2" data-name="Tracé 267" d="M178.012,643.732,629.446,383.1c6.34-3.658,11.477-13.458,11.477-21.9V11.916c0-8.444-5.136-12.33-11.477-8.672L178.012,263.871c-6.325,3.643-11.462,13.458-11.462,21.9V634.984C166.55,643.427,171.686,647.314,178.012,643.732Z" transform="translate(-157.55 4.13)" fill="#d6d8e5"/>
        </g>
        <path id="Tracé_268" data-name="Tracé 268" d="M170.549,619.809,632.972,352.856l-.229-342.139c0-3.49-2.469-4.923-5.5-3.17L175.807,268.175a12.193,12.193,0,0,0-5.487,9.511Z" transform="translate(-159.407 3.568)" fill="#fff"/>
      </g>
      <ellipse id="Ellipse_2" data-name="Ellipse 2" cx="35.497" cy="20.484" rx="35.497" ry="20.484" transform="translate(116.81 713.027)" fill="#d6d8e5" opacity="0.4"/>
      <ellipse id="Ellipse_3" data-name="Ellipse 3" cx="35.497" cy="20.484" rx="35.497" ry="20.484" transform="translate(539.118 721.105)" fill="#d6d8e5" opacity="0.4"/>
      <ellipse id="Ellipse_4" data-name="Ellipse 4" cx="35.497" cy="20.484" rx="35.497" ry="20.484" transform="translate(662.162 535.206)" fill="#d6d8e5" opacity="0.4"/>
      <g id="Men_4" transform="translate(551.441 556.932)">
        <path id="Tracé_269" data-name="Tracé 269" d="M104.542,396.64s-1.006,15.059-3.048,17.208-8.642,3.658-8.642,3.658L87.7,425.964s4.771-26.916,5.716-27.557S104.542,396.64,104.542,396.64Z" transform="translate(-56.493 -349.033)" fill="#ffcea9"/>
        <path id="_Контур_" data-name="&lt;Контур&gt;" d="M86.84,385.85A5.624,5.624,0,0,1,94,388.014c1.89,3.14,3.856,13.885,4.039,15.729,0,0-2.652,3.673-6.645,3.048Z" transform="translate(-48.683 -354.963)" fill="#ededed"/>
        <path id="Tracé_270" data-name="Tracé 270" d="M126.3,485.36a11.1,11.1,0,0,1-8.322-1.006c-2.012,0-12.894-4.572-14.373-.686-1.3,3.429,3.414,6.6,5.929,7.209,5.5,1.326,9.572,4.07,11.782,4.572,1.646.335,3.78.564,5.091-.732C127.981,493.149,127.844,487.4,126.3,485.36Z" transform="translate(-103.389 -304.239)" fill="#38226d"/>
        <path id="Tracé_271" data-name="Tracé 271" d="M121.567,493.7c-2.21-.457-6.279-3.2-11.782-4.572-2.1-.5-5.746-2.82-6.1-5.563-.488,3.155,3.765,5.944,6.1,6.523,5.5,1.326,9.572,4.069,11.782,4.572,1.646.335,3.78.564,5.091-.732a3.14,3.14,0,0,0,.716-1.311,6.584,6.584,0,0,1-5.807,1.082Z" transform="translate(-103.635 -303.475)" fill="#9c73ff"/>
        <path id="Tracé_272" data-name="Tracé 272" d="M115.2,481.89a11.019,11.019,0,0,1-8.322-1.006c-2,0-12.894-4.572-14.373-.686-1.3,3.429,3.414,6.6,5.944,7.209,5.487,1.326,9.556,4.069,11.766,4.572,1.646.351,3.78.564,5.091-.716C116.827,489.679,116.736,483.933,115.2,481.89Z" transform="translate(-75.332 -306.058)" fill="#38226d"/>
        <path id="Tracé_273" data-name="Tracé 273" d="M110.432,490.231c-2.21-.457-6.279-3.2-11.766-4.572-2.119-.518-5.746-2.835-6.1-5.578-.488,3.155,3.765,5.959,6.1,6.523,5.487,1.326,9.556,4.07,11.766,4.572,1.646.351,3.78.564,5.091-.716a3.125,3.125,0,0,0,.716-1.326A6.539,6.539,0,0,1,110.432,490.231Z" transform="translate(-75.551 -305.299)" fill="#9c73ff"/>
        <path id="_Контур_2" data-name="&lt;Контур&gt;" d="M125.487,481.871a66.937,66.937,0,0,0-2.5-11.919s.747-10.288,1.113-20.042c.427-11.081,4.268-20.82,1.235-29.66l-33.714,7.5s1.631,44.2,2.088,49.58a98.442,98.442,0,0,0,1.524,12.391c1.57,8.581,3.246,27.694,3.246,27.694,3.612,2.088,8.9.366,8.9.366s0-24.005-.2-30.178c-.29-7.621-.518-6.965-.518-6.965l1.128-18.777.732-9.343s.96,6.859,1.524,12.986c.533,5.335,1.829,10.166,3.262,20.1,1.25,8.627,2.545,26.2,2.545,26.2,3.612,2.1,8.474.655,8.474.655S126.478,489.354,125.487,481.871Z" transform="translate(-84.419 -336.658)" fill="#8c50ff"/>
        <path id="_Контур_3" data-name="&lt;Контур&gt;" d="M118.6,395.836c-2.591.137-4.572.808-4.862,0a32.5,32.5,0,0,1-.594-4.054c.3-.762.564-1.524.564-1.524,3.262-2.012,4.3-5.548,4.725-9.663.732-7.026-3.048-13.169-10.09-13.9-6.6-.7-11.462,3.947-12.772,10.318-.686,3.155-2.088,9.145-.2,14.281,1.052,2.9,2.408,5.2,3.749,5.639a32.424,32.424,0,0,0,3.917-.351h0l.579,3.2c.244,1.25.152,1.92-2.347,3.445s3.78,4.694,7.88,4.389,8.688-2.774,9.953-5.426C120.517,399.2,120.38,395.759,118.6,395.836Z" transform="translate(-82.253 -364.766)" fill="#ffcea9"/>
        <path id="_Контур_4" data-name="&lt;Контур&gt;" d="M114.7,386.261c.732,1.8-1.1,3.993-5.99,5.533s-5.334-.442-5.334-.442a97.535,97.535,0,0,0-9.5,4.893c-2.926,2.042-4.222,7.971-4.572,18-.457,11.583-.5,28.776-.122,31.748,0,0,5.487,5.456,12.5,4.877S120.444,444.1,123.31,439.3c0-10.166-1.265-11.812.381-17.68,3.765-13.4,5.746-18.884,3.917-27.785-1.524-7.346-3.612-8.261-6.523-8.185a60.957,60.957,0,0,0-6.386.61Z" transform="translate(-82.119 -354.795)" fill="#f4f4f4"/>
        <path id="Tracé_274" data-name="Tracé 274" d="M115.119,446.342l3.566-40.359-7.529-3.993-2.926,2.469.9,36.244h0v.991h0v1.28s-.168,3.048,5.578,6.691c0,0,.091-.96.183-1.844h0l.137-1.524Z" transform="translate(-101.927 -346.229)" fill="#ffcea9"/>
        <path id="_Контур_5" data-name="&lt;Контур&gt;" d="M115.56,391c-3.887,0-6.356,1.981-7.316,7.971s-1.524,10.882-1.524,10.882a10.425,10.425,0,0,0,6.92,3.429c4.71.534,6.1-1.859,6.1-1.859s.5-6.218.762-10.44S120.391,391,115.56,391Z" transform="translate(-101.499 -351.989)" fill="#ededed"/>
        <path id="Tracé_275" data-name="Tracé 275" d="M96.357,376.707s-6.1-9.221,7.087-11.111c9.5-1.357,15.592,4.74,16.293,11.355.671,6.325-3.216,12.894-6.1,15.5a11.492,11.492,0,0,1-8.2-.991,49.108,49.108,0,0,1-.183-5.182S109.953,376.539,96.357,376.707Z" transform="translate(-82.815 -365.405)" fill="#3a2c6d"/>
      </g>
      <path id="Tracé_276" data-name="Tracé 276" d="M210.341,545.382,575.128,334.776c7.514-4.329,13.611-15.973,13.611-26V40.191c0-10.029-6.1-14.632-13.611-10.288L210.341,240.493c-7.514,4.344-13.611,15.988-13.611,26v268.6C196.745,545.107,202.842,549.726,210.341,545.382Z" transform="translate(-155.426 14.82)" fill="#d6d8e5" opacity="0.4"/>
      <path id="Tracé_277" data-name="Tracé 277" d="M196.941,520.632,561.7,310.041c7.529-4.344,13.611-15.988,13.611-26.017V15.441c0-10.029-6.1-14.632-13.611-10.288L196.941,215.743c-7.514,4.344-13.611,15.988-13.611,26.017V510.344C183.33,520.373,189.426,524.976,196.941,520.632Z" transform="translate(-121.572 1.848)" fill="#fff"/>
      <path id="Tracé_278" data-name="Tracé 278" d="M183.33,262.9,575.308,36.58V15.441c0-10.029-6.1-14.632-13.611-10.288L196.941,215.743c-7.514,4.344-13.611,15.988-13.611,26.017Z" transform="translate(-121.572 1.848)" fill="#8c50ff"/>
      <ellipse id="Ellipse_5" data-name="Ellipse 5" cx="3.887" cy="6.737" rx="3.887" ry="6.737" transform="translate(429.916 41.902) rotate(-150)" fill="#fff"/>
      <ellipse id="Ellipse_6" data-name="Ellipse 6" cx="3.9" cy="6.76" rx="3.9" ry="6.76" transform="translate(391.822 63.357) rotate(-150.113)" fill="#fff"/>
      <ellipse id="Ellipse_7" data-name="Ellipse 7" cx="3.887" cy="6.737" rx="3.887" ry="6.737" transform="translate(411.544 52.507) rotate(-150)" fill="#fff"/>
      <path id="Tracé_279" data-name="Tracé 279" d="M207.44,224.6l19.052-11V135.03L207.44,146.019Z" transform="translate(190.497 70.779)" fill="#d782e7"/>
      <path id="Tracé_280" data-name="Tracé 280" d="M253.87,270.33l19.067-11V125.75l-19.067,11Z" transform="translate(73.286 65.915)" fill="#da7fe8"/>
      <path id="Tracé_281" data-name="Tracé 281" d="M230.66,247.207l19.052-11V130.9l-19.052,11Z" transform="translate(131.887 68.614)" fill="#8c50ff"/>
      <path id="Tracé_282" data-name="Tracé 282" d="M277.09,301.561l19.052-10.989V105.13L277.09,116.119Z" transform="translate(14.691 55.107)" fill="#8c50ff"/>
      <path id="Tracé_283" data-name="Tracé 283" d="M319.06,238.58l151.088-87.227V129.36L319.06,216.586Z" transform="translate(-223.283 67.807)" fill="#e9eaf2"/>
      <path id="Tracé_284" data-name="Tracé 284" d="M319.06,253.361l151.088-87.226v-11L319.06,242.357Z" transform="translate(-223.283 81.314)" fill="#e9eaf2"/>
      <path id="Tracé_285" data-name="Tracé 285" d="M319.06,267.111l151.088-87.226v-11L319.06,256.107Z" transform="translate(-223.283 88.521)" fill="#e9eaf2"/>
      <path id="Tracé_286" data-name="Tracé 286" d="M319.06,269.064l130.664-75.43v-11L319.06,258.075Z" transform="translate(-202.86 95.728)" fill="#e9eaf2"/>
      <path id="Tracé_287" data-name="Tracé 287" d="M319.06,271.825l111.613-64.441v-11L319.06,260.821Z" transform="translate(-183.808 102.935)" fill="#e9eaf2"/>
      <path id="Tracé_288" data-name="Tracé 288" d="M330.67,270.7l46.288-26.718V232.99l-46.288,26.7Z" transform="translate(-147.789 122.124)" fill="#e9eaf2"/>
      <path id="Tracé_289" data-name="Tracé 289" d="M319.06,245.149l13.611-7.865v-11l-13.611,7.865Z" transform="translate(-85.806 118.607)" fill="#dd7be9"/>
      <path id="Tracé_290" data-name="Tracé 290" d="M330.67,288.232l46.288-26.718v-11L330.67,277.228Z" transform="translate(-147.789 131.306)" fill="#e9eaf2"/>
      <path id="Tracé_291" data-name="Tracé 291" d="M319.06,262.679l13.611-7.865v-11l-13.611,7.865Z" transform="translate(-85.806 127.795)" fill="#8c50ff"/>
      <path id="Tracé_292" data-name="Tracé 292" d="M385.15,302.147l46.273-26.718V264.44l-46.273,26.7Z" transform="translate(-285.288 138.608)" fill="#e9eaf2"/>
      <path id="Tracé_293" data-name="Tracé 293" d="M373.54,276.6l13.611-7.864v-11l-13.611,7.865Z" transform="translate(-223.321 135.091)" fill="#8c50ff"/>
      <path id="Tracé_294" data-name="Tracé 294" d="M385.15,319.682l46.273-26.718v-11L385.15,308.678Z" transform="translate(-285.288 147.791)" fill="#e9eaf2"/>
      <path id="Tracé_295" data-name="Tracé 295" d="M373.54,294.114l13.611-7.849v-11l-13.611,7.865Z" transform="translate(-223.321 144.279)" fill="#dd7be9"/>
      <path id="Tracé_296" data-name="Tracé 296" d="M88.914,381.979l131.7-76.6-12.909-8.855L76.02,373.123Z" transform="translate(396.676 155.422)" fill="#d6d8e5" opacity="0.4"/>
      <path id="Tracé_297" data-name="Tracé 297" d="M99.471,441.071l110.241-63.648c7.529-4.344,13.611-15.988,13.611-26V173.981c0-10.029-6.1-14.632-13.611-10.288L99.471,227.341c-7.514,4.344-13.611,15.988-13.611,26v177.44C85.86,440.888,91.957,445.46,99.471,441.071Z" transform="translate(378.972 84.945)" fill="#c4c7d6"/>
      <path id="Tracé_298" data-name="Tracé 298" d="M176.049,355.169l-8.489-5.091,8.566-13.458Z" transform="translate(301.646 176.44)" fill="#c4c7d6"/>
      <path id="Tracé_299" data-name="Tracé 299" d="M92.027,167.1,84.3,162.44l.274,12.437Z" transform="translate(512.644 85.146)" fill="#c4c7d6"/>
      <path id="Tracé_300" data-name="Tracé 300" d="M94.311,444.16l110.3-63.663c7.514-4.329,13.611-15.927,13.611-26V177.1c0-10.014-6.1-14.632-13.611-10.288l-110.3,63.633C86.8,234.789,80.7,246.433,80.7,256.462V433.856C80.761,443.824,86.857,448.488,94.311,444.16Z" transform="translate(391.935 86.581)" fill="#d6d8e5"/>
      <path id="Tracé_301" data-name="Tracé 301" d="M94.09,267.312l96.646-55.8V183.24L94.09,239.023Z" transform="translate(399.015 96.048)" fill="#8c50ff"/>
      <path id="Tracé_302" data-name="Tracé 302" d="M94.99,264.095l25.849-14.937V220.87L94.99,235.807Z" transform="translate(467.539 115.771)" fill="#8c50ff"/>
      <path id="Tracé_303" data-name="Tracé 303" d="M117.31,276.985l25.865-14.937V233.76L117.31,248.7Z" transform="translate(411.185 122.527)" fill="#8c50ff"/>
      <path id="Tracé_304" data-name="Tracé 304" d="M139.64,289.859l25.849-14.921V246.65L139.64,261.571Z" transform="translate(354.836 129.283)" fill="#8c50ff"/>
      <path id="Tracé_305" data-name="Tracé 305" d="M94.99,291.935,120.839,277V248.71L94.99,263.647Z" transform="translate(467.539 130.363)" fill="#8c50ff"/>
      <path id="Tracé_306" data-name="Tracé 306" d="M117.31,304.825l25.865-14.936V261.6L117.31,276.537Z" transform="translate(411.185 137.119)" fill="#8c50ff"/>
      <path id="Tracé_307" data-name="Tracé 307" d="M139.64,317.715l25.849-14.937V274.49L139.64,289.427Z" transform="translate(354.836 143.875)" fill="#8c50ff"/>
      <path id="Tracé_308" data-name="Tracé 308" d="M94.99,319.775l25.849-14.937V276.55L94.99,291.487Z" transform="translate(467.539 144.955)" fill="#8c50ff"/>
      <path id="Tracé_309" data-name="Tracé 309" d="M117.31,332.665l25.865-14.937V289.44L117.31,304.377Z" transform="translate(411.185 151.711)" fill="#8c50ff"/>
      <path id="Tracé_310" data-name="Tracé 310" d="M139.64,345.555l25.849-14.937V302.33L139.64,317.267Z" transform="translate(354.836 158.467)" fill="#8c50ff"/>
      <path id="Tracé_311" data-name="Tracé 311" d="M393.105,479.615l52.8-30.483-12.315-7.1-52.8,30.483Z" transform="translate(-293.122 231.69)" fill="#d6d8e5" opacity="0.4"/>
      <path id="Tracé_312" data-name="Tracé 312" d="M391.57,492.186l54.442-31.443L439.2,398.68l-40.832,23.563Z" transform="translate(-309.663 208.968)" fill="#b13abf"/>
      <path id="Tracé_313" data-name="Tracé 313" d="M382.29,497.336l54.442-31.428-6.813-62.078-40.832,23.578Z" transform="translate(-286.239 211.667)" fill="#da7fe8"/>
      <path id="Tracé_314" data-name="Tracé 314" d="M427.694,491.932l-14.144-7.849,6.8-69.943L434.492,422Z" transform="translate(-331.643 217.071)" fill="#e4a9eb"/>
      <path id="Tracé_315" data-name="Tracé 315" d="M400.9,406.529,386.76,398.68l1.661,15.059Z" transform="translate(-257.223 208.968)" fill="#e28c10"/>
      <path id="Tracé_316" data-name="Tracé 316" d="M393.54,422.461l2.515-1.524c0-5.853,3.445-12.62,7.621-15.059s7.621.335,7.621,6.188l2.515-1.448c0-7.468-4.572-10.9-10.2-7.621S393.54,414.992,393.54,422.461Z" transform="translate(-280.464 210.58)" fill="#7c5522"/>
      <path id="Tracé_317" data-name="Tracé 317" d="M402.25,417.095l2.515-1.448c0-5.868,3.445-12.62,7.621-15.058s7.621.32,7.621,6.188l2.515-1.448c0-7.468-4.572-10.9-10.2-7.621S402.25,409.657,402.25,417.095Z" transform="translate(-302.449 207.807)" fill="#7c5522"/>
      <g id="Girl_4" transform="translate(120.11 547.623)">
        <path id="_Контур_6" data-name="&lt;Контур&gt;" d="M403.879,380.29c-3.048.869-4.725,4.207-7.362,11.324a59.167,59.167,0,0,0-3.17,20.058c.838,6.706,3.612,11.919,10.334,17.36l3.2-5.868s-6.569-5.807-7.24-12.513c-.381-3.765,4.039-16.461,4.039-16.766S403.879,380.29,403.879,380.29Z" transform="translate(-393.34 -348.294)" fill="#ffcea9"/>
        <path id="Tracé_318" data-name="Tracé 318" d="M366.766,482.641a7.331,7.331,0,0,0,6.1-.823c1.646,0,11.279-3.765,12.5-.564,1.052,2.8-2.8,5.4-4.862,5.9-4.5,1.1-7.834,3.338-9.648,3.719a4.572,4.572,0,0,1-4.161-.594C365.334,489.011,365.5,484.317,366.766,482.641Z" transform="translate(-329.936 -296.051)" fill="#38226d"/>
        <path id="Tracé_319" data-name="Tracé 319" d="M370.513,489.461c1.814-.381,5.152-2.622,9.648-3.719,1.722-.411,4.71-2.3,5-4.572.411,2.576-3.048,4.877-5,5.334-4.5,1.1-7.834,3.338-9.648,3.719a4.572,4.572,0,0,1-4.161-.594,2.713,2.713,0,0,1-.594-1.067A5.4,5.4,0,0,0,370.513,489.461Z" transform="translate(-329.613 -295.419)" fill="#9c73ff"/>
        <path id="Tracé_320" data-name="Tracé 320" d="M383.231,474.256a5.777,5.777,0,0,0,5.289-.793c1.524,0,11.431-3.627,12.6-.533,1.021,2.7-2.7,5.2-4.679,5.67-4.329,1.052-7.545,3.216-9.282,3.582a4.39,4.39,0,0,1-4.009-.564C381.89,480.4,382.027,475.871,383.231,474.256Z" transform="translate(-370.879 -300.393)" fill="#38226d"/>
        <path id="Tracé_321" data-name="Tracé 321" d="M386.843,480.821c1.738-.366,4.953-2.53,9.282-3.582,1.661-.4,4.572-2.225,4.816-4.39.381,2.484-2.972,4.694-4.816,5.136-4.329,1.052-7.545,3.216-9.282,3.582a4.389,4.389,0,0,1-4.009-.564,2.484,2.484,0,0,1-.564-1.036,5.182,5.182,0,0,0,4.572.853Z" transform="translate(-370.558 -299.78)" fill="#9c73ff"/>
        <path id="_Контур_7" data-name="&lt;Контур&gt;" d="M377.019,484.449a31.913,31.913,0,0,1,1.89-10.852s-1.265-14.86-2.21-24.615c-1.387-14.388-3.6-15.805-2.972-24.539.579-8.108,5.182-13.367,6.386-18.854l23.487,1.859s2.042,6.645,4.679,19.905,2.8,29.035,2.561,49.931c-.076,5.38.914,10.059.594,23.472-.213,9.023-.716,20.058-.716,20.058-3.445,2.957-5.822.777-5.822.777s-6.02-26.7-6.9-32.845a19.234,19.234,0,0,1,.823-10.136s-1.768-8.4-3.048-15c-1.6-8.047-5.533-25.438-5.533-25.438s.671,26.718-.5,32.007-1.372,9.846-2.362,17.009c-1.2,8.672-1.753,21.338-1.753,21.338-3.582,2.271-5.167.518-5.167.518S377.019,492.024,377.019,484.449Z" transform="translate(-367.897 -335.033)" fill="#ffcea9"/>
        <path id="Tracé_322" data-name="Tracé 322" d="M380.249,405.59c-2.454,2.515-6.523,10.181-6.523,21.78,0,13.047,1.905,10.395,2.8,24.783l.915,14.373s19.616,9.358,33.607.671c1.25-2.713-.472-32.937-2.911-43.682S403.98,407.5,403.98,407.5,385.934,412.311,380.249,405.59Z" transform="translate(-368.033 -335.033)" fill="#8c50ff"/>
        <path id="_Контур_8" data-name="&lt;Контур&gt;" d="M380.261,391.152c5-.29,5.472.533,5.883-1.235.137-.64.411-5.045.411-5.045a15.669,15.669,0,0,1-1.25-1.844,12.8,12.8,0,0,1,5.38-23.655c6.645-.7,11.522,3.963,12.818,10.364.7,3.155,1.433,9.617-.533,14.784-1.113,2.926-2.134,4.984-4.786,4.877a15.849,15.849,0,0,1-2.606-.457,24.382,24.382,0,0,0-.152,3.658c.076,1.28-.152,1.936,2.362,3.475s-3.8,4.71-7.9,4.4-8.733-2.8-10.014-5.456C378.478,392.052,377.9,391.3,380.261,391.152Z" transform="translate(-368.32 -359.293)" fill="#ffcea9"/>
        <path id="Tracé_323" data-name="Tracé 323" d="M404.066,400.712s-5.655-1.28-8.246-3.8c0,0,3.368-10.593,5.517-13.26s4.237,14.449,4.237,14.449Z" transform="translate(-395.813 -346.677)" fill="#ededed"/>
        <path id="_Контур_9" data-name="&lt;Контур&gt;" d="M388.037,380.166c-.914,1.158-1.021,2.606,2.545,3.506a11.309,11.309,0,0,0,7.819-.594,51.514,51.514,0,0,1,8.078,4.283c3.048,10.014.579,11.294,1.859,18.473-.488,3.612-1.1,12.925-1.25,15.043-6.8,4.755-20.622,3.14-23.731-1.905a38.663,38.663,0,0,0-.472-5.03c-3.246-12.041-5.792-15.241-4.877-24.386.518-5.2.914-7.8,3.673-9.145A24.389,24.389,0,0,1,388.037,380.166Z" transform="translate(-371.142 -348.414)" fill="#f4f4f4"/>
        <path id="_Контур_10" data-name="&lt;Контур&gt;" d="M396.326,416.247a38.285,38.285,0,0,0-4.572,1.311,15.06,15.06,0,0,1-4.435,1.524c-1.677.274-4.283-.594-8.794-2.728a48.59,48.59,0,0,1-13.2-9.922,115.708,115.708,0,0,1-11.538-16.461c-1.951-3.566-4.435-4.466-6.584-3.765-2.576.854-2.9,3.4,0,8.215A91.219,91.219,0,0,0,360.4,411.7a49.412,49.412,0,0,0,13.717,9.709,42.841,42.841,0,0,0,11.583,4.024c1.417.3,2.378.884,4.984,1.8a17.132,17.132,0,0,0,8.108.9c2.271-.442,3.048-.96,3.14-1.524s-.381-.945-1.433-.869a14.188,14.188,0,0,1-5.03-.122s2.317-.076,3.719-.244a13.841,13.841,0,0,0,3.6-.915c1.113-.472,1.524-2.21.411-2.149s-1.89.381-3.948.594a13.713,13.713,0,0,1-3.292,0,26.372,26.372,0,0,0,4.024-.991,5.777,5.777,0,0,0,2.8-1.722c.381-.442.274-1.524-1.036-1.265a20.858,20.858,0,0,1-4.923,1.1c-1.692,0-2.881-.137-2.667-.411s1.2-.213,2.5-.945,2.012-2.088,1.524-2.743S397.7,415.744,396.326,416.247Z" transform="translate(-316.865 -345.309)" fill="#ffcea9"/>
        <path id="Tracé_324" data-name="Tracé 324" d="M379.391,401.049a18.289,18.289,0,0,0,10.379-5.258l-6.279-8.718s-3.536-4.466-8.2-1.936c0,0-3.536.381,0,7.743A77.244,77.244,0,0,0,379.391,401.049Z" transform="translate(-346.326 -346.16)" fill="#ededed"/>
        <path id="Tracé_325" data-name="Tracé 325" d="M409.4,365.962a5.822,5.822,0,0,0-6.569-4.786,10.974,10.974,0,0,0-7.468-1.8c-5.959.61-9.861,4.481-11.675,10.456a48.332,48.332,0,0,0-1.753,9.145c-1.8,13.275-6.615,23.822-2.1,27.755s16.857,6.447,22.009,3.932-4.252-25.362,5.975-38.1C410.207,369.589,410.436,367.471,409.4,365.962Z" transform="translate(-372.996 -359.297)" fill="#3a2c6d"/>
      </g>
      <g id="Men_13" transform="translate(650.929 371.615)">
        <path id="Tracé_326" data-name="Tracé 326" d="M27.845,360.45c-2.332,1.89-5.761.168-5.929.335a104,104,0,0,1-8.581,7.148c-1.524,1.143-3.7,2.667-3.292,4.847.732,3.917,7,2.713,9.358,1.524s4.3-3.185,6.539-4.572c1.524-.991,3.17-1.524,3.414-3.521C29.582,364.977,28.332,360.4,27.845,360.45Z" transform="translate(37.617 -182.684)" fill="#38226d"/>
        <path id="Tracé_327" data-name="Tracé 327" d="M29.176,363.69c-.3,1.936-1.859,2.469-3.445,3.445-2.271,1.417-4.268,3.46-6.63,4.649s-7.621,2.21-9.145-.594c.823,3.78,7,2.591,9.328,1.417s4.3-3.185,6.539-4.572c1.524-.991,3.17-1.524,3.414-3.521a3.048,3.048,0,0,0-.061-.823Z" transform="translate(37.81 -180.986)" fill="#9c73ff"/>
        <path id="Tracé_328" data-name="Tracé 328" d="M40.532,355.534c-2.317,1.89-6.386-.183-6.569,0a91.432,91.432,0,0,1-7.621,6.92c-1.448,1.143-3.719,2.667-3.307,4.847.732,3.917,7.011,2.713,9.373,1.524s4.3-3.185,6.539-4.572c1.524-.991,3.17-1.524,3.414-3.521C42.483,359.512,40.943,355.488,40.532,355.534Z" transform="translate(4.827 -185.267)" fill="#38226d"/>
        <path id="Tracé_329" data-name="Tracé 329" d="M42.238,358.58c-.3,1.936-1.859,2.469-3.445,3.46-2.271,1.4-4.268,3.445-6.63,4.572s-7.621,2.195-9.145-.594c.823,3.78,7,2.591,9.328,1.4s4.3-3.185,6.539-4.572c1.6-.991,3.17-1.524,3.414-3.521a3.14,3.14,0,0,0-.061-.747Z" transform="translate(4.843 -183.664)" fill="#9c73ff"/>
        <path id="_Контур_11" data-name="&lt;Контур&gt;" d="M43.591,307.017c-.122,3.521-1.219,18.777-1.707,26.855s-.594,17.985-.594,17.985,1.387,5.9,2.3,12.818,0,28.76,0,28.76a5.548,5.548,0,0,1-5.959,0s-3.719-17.482-5.441-25.362-2.027-12.406-2.911-17.3c-1.082-5.9-3.414-33.455-3.414-33.455H24.92l-2.484,31.108A34.8,34.8,0,0,1,23.96,355.5c.671,5.06-.716,30.559-.716,30.559a6.188,6.188,0,0,1-6.432-.259s-6.218-33.775-6.218-38.911c0-3.4.594-48.209.594-48.209Z" transform="translate(22.084 -215.06)" fill="#8c50ff"/>
        <path id="_Контур_12" data-name="&lt;Контур&gt;" d="M30.515,259.57s-.4,7.621-.229,8.337,3.521,2.926,4.5,3.734-5.3,7-8.352,8.4S13.719,277.753,13.536,273s1.661-8.733,3.14-8.947S30.515,259.57,30.515,259.57Z" transform="translate(26.732 -235.559)" fill="#ffcea9"/>
        <path id="Tracé_330" data-name="Tracé 330" d="M59.554,272.092c-.442-3.384,1.783-6.584-.381-9.282-7.621,7.423-6.6,27.038-8.322,39.628-5.609,5.883-16.9,11.66-20.073,13.092-.579.274-1.082.549-.975,1.174a14.145,14.145,0,0,0,2.576,5.716c7.468-3.231,12.848-5.075,22.191-13.946a20.786,20.786,0,0,0,2.362-3.048C59.661,297.362,60.331,277.929,59.554,272.092Z" transform="translate(-23.31 -233.861)" fill="#ffcea9"/>
        <path id="_Контур_13" data-name="&lt;Контур&gt;" d="M35.154,268.227s-5.563,8.291-13.321,9.069c-2.454-2.408-2.667-10.989.716-13.717,0,0-3.048-2.515-5.243-2.027a10.974,10.974,0,0,0-4.786,6.1,50.3,50.3,0,0,0-2.743,17.741c.137,8.139,0,32.982,0,32.982s1.1,5.258,8.108,9.145,12.193,4.3,16.994,3.185c3.932-.915,7.179-2.3,8.535-5.152-.351-5.7-2.9-20.576-1.951-27.739s2.469-12.513,2.865-18.29-.762-5.67-3.673-7.743a47.241,47.241,0,0,0-5.5-3.551Z" transform="translate(22.946 -234.554)" fill="#f4f4f4"/>
        <path id="_Контур_14" data-name="&lt;Контур&gt;" d="M13.5,255.556h0c.914-5.944,5.2-10.456,11.324-10.12a11.8,11.8,0,0,1,6.02,21.551,11.8,11.8,0,0,1-.96,2.606c-2.164,2.53-8.733,4.1-10.669,3.826a5.624,5.624,0,0,1-4.892-3.993C12.361,264.747,13,258.5,13.5,255.556Z" transform="translate(26.398 -242.977)" fill="#ffcea9"/>
        <path id="Tracé_331" data-name="Tracé 331" d="M28.562,267.827h0L28,262.63s4.207-10.913-5.776-8.871c-6.615,1.4-8.276,2-10.288-2.439s5.075-8.428,13.5-7.316a11.645,11.645,0,0,1,10.44,11.812C35.649,259.079,34.78,265.693,28.562,267.827Z" transform="translate(28.685 -243.816)" fill="#3a2c6d"/>
        <path id="Tracé_332" data-name="Tracé 332" d="M39.608,271.353c-2.911-.823-.7-.137-2.911-.823-7.621,7.407-6.615,20.134-8.337,32.693-4.176,6.9-19.707,16.263-19.707,16.263-.2,1.326.274,1.722,1.951,4.435a67.062,67.062,0,0,0,23.06-14.876c.366-.351.9-.442,1.052-.915C37.413,300.114,40.37,277.19,39.608,271.353Z" transform="translate(29.375 -229.815)" fill="#ffcea9"/>
        <path id="Tracé_333" data-name="Tracé 333" d="M30.34,281.23l11.279,38.515,24.706,9.876L57.317,292.1Z" transform="translate(-30.34 -224.206)" fill="#f4f4f4"/>
        <path id="Tracé_334" data-name="Tracé 334" d="M44.29,303.716c-.366-1.311-1.326-.991-2.393-.655a6.4,6.4,0,0,1-3.658.32,11.231,11.231,0,0,1-2.622-1.783,3.277,3.277,0,0,0-1.646-.457c0,.32.564,2.286.564,2.286H28.561a.914.914,0,0,0-.854,1.524h-.366c-1.113-.259-1.524,1.448-.472,1.707l.914.137c-.732.274-.914,1.524,0,1.646h.29a.9.9,0,0,0,.4,0h.168a.975.975,0,0,0,.808,1.158c2.652.335,6.539,1.387,8.931-.792a14.859,14.859,0,0,0,4.8-1.3C44.686,306.764,44.732,305.286,44.29,303.716Z" transform="translate(-2.33 -213.771)" fill="#ffcea9"/>
        <path id="Tracé_335" data-name="Tracé 335" d="M54,302.523h-.366a.914.914,0,0,0-.518-1.661c-.564,0-6.1-1.158-6.1-1.158l-.671-2.286c0-.137-.96.457-.991.472a3.8,3.8,0,0,0-1.768,2.774,6.1,6.1,0,0,0,1.524,4.313,5.578,5.578,0,0,0,3.78,1.631l1.92.122a.96.96,0,0,0,1.036-.945h.274a.929.929,0,0,0,.4,0h.213c.945,0,1.021-1.189.381-1.616h.914C55.233,304.291,55.141,302.523,54,302.523Z" transform="translate(-39.092 -215.733)" fill="#ffcea9"/>
        <path id="Tracé_336" data-name="Tracé 336" d="M31.579,277.8a5.99,5.99,0,0,1-4.039-1.829c.213-2.85,3.856-13.717,11.187-14.464a13.55,13.55,0,0,0-4.572,5.533,72.045,72.045,0,0,0-2.576,10.76Z" transform="translate(1.525 -234.542)" fill="#ededed"/>
        <path id="Tracé_337" data-name="Tracé 337" d="M19.6,288.279s-7.285,2.515-12.422-1.707c-.564-.976,3.048-13.382,3.048-13.382s3.048-6.356,7.849-3.826S19.6,288.279,19.6,288.279Z" transform="translate(50.698 -230.738)" fill="#ededed"/>
      </g>
    </g>
  </g>
</svg>
