<svg xmlns="http://www.w3.org/2000/svg" width="161" height="161" viewBox="0 0 161 161">
  <g id="ux" transform="translate(-0.5)">
    <path id="Tracé_242" data-name="Tracé 242" d="M201.918,368h-5.367v10.733h-48.3V384.1h48.3v8.05a8.05,8.05,0,0,1-8.05,8.05H129.468a8.08,8.08,0,0,1-6.977-4.025l-4.647,2.683a13.472,13.472,0,0,0,11.624,6.708H188.5a13.432,13.432,0,0,0,13.417-13.417Zm0,0" transform="translate(-77.985 -244.566)" fill="#7787ef"/>
    <path id="Tracé_243" data-name="Tracé 243" d="M232.5,432h5.367v5.367H232.5Zm0,0" transform="translate(-154.183 -287.1)" fill="#7787ef"/>
    <path id="Tracé_244" data-name="Tracé 244" d="M110.367,72.45V67.083H102.18A34.888,34.888,0,0,0,70.117,35.02V26.833H64.75V35.02a34.875,34.875,0,0,0-5.367.837V21.467h42.933V16.1H59.383V13.417a8.05,8.05,0,0,1,8.05-8.05h59.033a8.046,8.046,0,0,1,5.323,2.013l3.551-4.025A13.4,13.4,0,0,0,126.467,0H67.433A13.432,13.432,0,0,0,54.017,13.417v24.15a34.929,34.929,0,0,0-21.33,29.517H24.5V72.45h8.193A34.728,34.728,0,0,0,64.75,104.527V112.7h5.367v-8.173A34.728,34.728,0,0,0,102.174,72.45ZM64.75,93.917V99.16a29.4,29.4,0,0,1-10.733-3.1V91.233a13.417,13.417,0,0,1,26.833,0v4.829a29.434,29.434,0,0,1-10.733,3.105V93.917ZM59.383,64.4a8.05,8.05,0,1,1,8.05,8.05A8.05,8.05,0,0,1,59.383,64.4ZM87.11,91.771c-.29.267-.6.482-.894.73V91.233a18.783,18.783,0,0,0-10.14-16.658,13.417,13.417,0,1,0-17.287,0A18.783,18.783,0,0,0,48.65,91.233v1.28c-.3-.244-.607-.473-.894-.73a29.532,29.532,0,0,1-9.7-19.334h5.224V67.083h-5.23a29.546,29.546,0,0,1,26.7-26.7v5.23h5.367v-5.23a29.546,29.546,0,0,1,26.7,26.7h-5.23V72.45h5.224a29.532,29.532,0,0,1-9.7,19.334Zm0,0" transform="translate(-15.95 0)" fill="#7787ef"/>
    <path id="Tracé_245" data-name="Tracé 245" d="M334.217,69.567a2.683,2.683,0,0,0,2.683-2.683v-32.2A2.683,2.683,0,0,0,334.217,32H275.183a2.683,2.683,0,0,0-2.683,2.683v32.2a2.683,2.683,0,0,0,2.683,2.683Zm-56.35-32.2h53.667V64.2H277.867Zm0,0" transform="translate(-180.767 -21.267)" fill="#7787ef"/>
    <path id="Tracé_246" data-name="Tracé 246" d="M304.5,64h10.733v5.367H304.5Zm0,0" transform="translate(-202.033 -42.533)" fill="#7787ef"/>
    <path id="Tracé_247" data-name="Tracé 247" d="M352.5,64h26.833v5.367H352.5Zm0,0" transform="translate(-233.933 -42.533)" fill="#7787ef"/>
    <path id="Tracé_248" data-name="Tracé 248" d="M304.5,96h42.933v5.367H304.5Zm0,0" transform="translate(-202.033 -63.8)" fill="#7787ef"/>
    <path id="Tracé_249" data-name="Tracé 249" d="M312.471,160a8.507,8.507,0,0,0-5.635,2.146l-23.407,20.636V160h-5.367v26.833h.776L263.572,200.3a18.783,18.783,0,0,0-17.71,18.73v4.734a6.977,6.977,0,0,1-3.882,6.281,2.683,2.683,0,0,0,1.2,5.085h18.783a18.783,18.783,0,0,0,18.73-17.71l38.173-43.261A8.525,8.525,0,0,0,312.471,160Zm-50.509,69.767H249.69a12.379,12.379,0,0,0,1.538-6v-4.734a13.434,13.434,0,0,1,12.344-13.373l11.763,11.763A13.432,13.432,0,0,1,261.962,229.767Zm52.878-59.154-36.9,41.82-9.379-9.376,41.82-36.9a3.159,3.159,0,0,1,4.457,4.457Zm0,0" transform="translate(-159.495 -106.333)" fill="#7787ef"/>
    <path id="Tracé_250" data-name="Tracé 250" d="M3.183,360.25H62.217a2.683,2.683,0,0,0,2.683-2.683V336.1a2.683,2.683,0,0,0-2.683-2.683H43.433V320H38.067v13.417H3.183A2.683,2.683,0,0,0,.5,336.1v21.467A2.683,2.683,0,0,0,3.183,360.25Zm2.683-21.467H59.533v16.1H5.867Zm0,0" transform="translate(0 -212.667)" fill="#7787ef"/>
    <path id="Tracé_251" data-name="Tracé 251" d="M32.5,392H45.917v5.367H32.5Zm0,0" transform="translate(-21.267 -260.516)" fill="#7787ef"/>
    <path id="Tracé_252" data-name="Tracé 252" d="M88.5,392h24.15v5.367H88.5Zm0,0" transform="translate(-58.483 -260.516)" fill="#7787ef"/>
    <path id="Tracé_253" data-name="Tracé 253" d="M3.183,58.833H30.017A2.683,2.683,0,0,0,32.7,56.15V34.683A2.683,2.683,0,0,0,30.017,32H3.183A2.683,2.683,0,0,0,.5,34.683V56.15A2.683,2.683,0,0,0,3.183,58.833ZM5.867,37.367H27.333v16.1H5.867Zm0,0" transform="translate(0 -21.267)" fill="#7787ef"/>
    <path id="Tracé_254" data-name="Tracé 254" d="M32.5,64H43.233v5.367H32.5Zm0,0" transform="translate(-21.267 -42.533)" fill="#7787ef"/>
  </g>
</svg>
